<?xml version="1.0" encoding="UTF-8"?><!DOCTYPE svg PUBLIC "-//W3C//DTD SVG 1.1//EN" "http://www.w3.org/Graphics/SVG/1.1/DTD/svg11.dtd"><svg xmlns="http://www.w3.org/2000/svg" xmlns:xlink="http://www.w3.org/1999/xlink"><defs/><symbol id="access-24" viewBox="0 0 24 24"><path fill-rule="evenodd" clip-rule="evenodd" d="M3 4.72a1 1 0 0 1 .684-.948l8-2.667a1 1 0 0 1 .632 0l8 2.667a1 1 0 0 1 .684.949v8.572a8 8 0 0 1-4.115 6.993l-4.4 2.444a1 1 0 0 1-.97 0l-4.4-2.444A8 8 0 0 1 3 13.293V4.72ZM7 15a3 3 0 0 1 3-3h4a3 3 0 0 1 3 3v1.434a1 1 0 0 1-.485.857l-4 2.4a1 1 0 0 1-1.03 0l-4-2.4A1 1 0 0 1 7 16.434V15Zm5-5a3 3 0 1 0 0-6 3 3 0 0 0 0 6Z" fill="currentColor"/></symbol><symbol id="action-24" viewBox="0 0 24 24"><path d="M14 11h5.863a.5.5 0 0 1 .369.838l-9.363 10.214a.5.5 0 0 1-.869-.337V13H4.137a.5.5 0 0 1-.369-.838l9.363-10.214a.5.5 0 0 1 .869.337V11Z" fill="currentColor"/></symbol><symbol id="add-roundel-24" viewBox="0 0 24 24"><path fill-rule="evenodd" clip-rule="evenodd" d="M12 22c5.523 0 10-4.477 10-10S17.523 2 12 2 2 6.477 2 12s4.477 10 10 10Zm0-15a1 1 0 0 1 1 1v3h3a1 1 0 1 1 0 2h-3v3a1 1 0 1 1-2 0v-3H8a1 1 0 1 1 0-2h3V8a1 1 0 0 1 1-1Z" fill="currentColor"/></symbol><symbol id="calendar-24" viewBox="0 0 24 24"><path fill-rule="evenodd" clip-rule="evenodd" d="M3 5a1 1 0 0 0-1 1v3h20V6a1 1 0 0 0-1-1h-2V2h-3v3H8V2H5v3H3Zm-1 6h20v10a1 1 0 0 1-1 1H3a1 1 0 0 1-1-1V11Zm3 3h5v5H5v-5Z" fill="currentColor"/></symbol><symbol id="chat-24" viewBox="0 0 24 24"><path fill-rule="evenodd" clip-rule="evenodd" d="M12 2C6.477 2 2 6.477 2 12v9.048c0 .526.426.952.952.952H12c5.523 0 10-4.477 10-10S17.523 2 12 2Zm-6 8a1 1 0 0 1 1-1h10a1 1 0 1 1 0 2H7a1 1 0 0 1-1-1Zm0 4a1 1 0 0 1 1-1h6a1 1 0 1 1 0 2H7a1 1 0 0 1-1-1Z" fill="currentColor"/></symbol><symbol id="clipboard-24" viewBox="0 0 24 24"><path fill-rule="evenodd" clip-rule="evenodd" d="M10 1a1 1 0 0 0-1 1v2a1 1 0 0 0 1 1h4a1 1 0 0 0 1-1V2a1 1 0 0 0-1-1h-4ZM4 3h3v3a1 1 0 0 0 1 1h8a1 1 0 0 0 1-1V3h3a1 1 0 0 1 1 1v18a1 1 0 0 1-1 1H4a1 1 0 0 1-1-1V4a1 1 0 0 1 1-1Z" fill="currentColor"/></symbol><symbol id="cloud-24" viewBox="0 0 24 24"><path fill-rule="evenodd" clip-rule="evenodd" d="M20 11c0 .138-.003.275-.01.412A5.001 5.001 0 0 1 18 21H7A6 6 0 0 1 4.097 9.748 8 8 0 0 1 20 11Z" fill="currentColor"/></symbol><symbol id="compatibility-24" viewBox="0 0 24 24"><path fill-rule="evenodd" clip-rule="evenodd" d="M2 3a1 1 0 0 1 1-1h18a1 1 0 0 1 1 1v8h-6V7H8v4H2V3Zm14 10v4h6v4a1 1 0 0 1-1 1H3a1 1 0 0 1-1-1v-4h6v-4h8Z" fill="currentColor"/></symbol><symbol id="contrast-24" viewBox="0 0 24 24"><path fill-rule="evenodd" clip-rule="evenodd" d="M12 22c5.523 0 10-4.477 10-10S17.523 2 12 2 2 6.477 2 12s4.477 10 10 10Zm2.679-3.533c-.85.352-1.76.533-2.679.533V5a7 7 0 0 1 2.679 13.467Z" fill="currentColor"/></symbol><symbol id="cpu-24" viewBox="0 0 24 24"><path fill-rule="evenodd" clip-rule="evenodd" d="M7 2v3H6a1 1 0 0 0-1 1v1H2v2h3v2H2v2h3v2H2v2h3v1a1 1 0 0 0 1 1h1v3h2v-3h2v3h2v-3h2v3h2v-3h1a1 1 0 0 0 1-1v-1h3v-2h-3v-2h3v-2h-3V9h3V7h-3V6a1 1 0 0 0-1-1h-1V2h-2v3h-2V2h-2v3H9V2H7Zm3 12v-4h4v4h-4Zm5.5-6h-7a.5.5 0 0 0-.5.5v7a.5.5 0 0 0 .5.5h7a.5.5 0 0 0 .5-.5v-7a.5.5 0 0 0-.5-.5Z" fill="currentColor"/></symbol><symbol id="document-24" viewBox="0 0 24 24"><path d="M16.293 1.293A1 1 0 0 0 15.586 1H4a1 1 0 0 0-1 1v20a1 1 0 0 0 1 1h16a1 1 0 0 0 1-1V6.414a1 1 0 0 0-.293-.707l-4.414-4.414ZM6 12a1 1 0 0 1 1-1h7a1 1 0 1 1 0 2H7a1 1 0 0 1-1-1Zm11 4a1 1 0 0 1-1 1H7a1 1 0 1 1 0-2h9a1 1 0 0 1 1 1Zm1-8a1 1 0 0 1-1 1H7a1 1 0 0 1 0-2h10a1 1 0 0 1 1 1Z" fill="currentColor"/></symbol><symbol id="firewall-24" viewBox="0 0 24 24"><path fill-rule="evenodd" clip-rule="evenodd" d="M2 3a1 1 0 0 1 1-1h7a1 1 0 0 1 1 1v3a1 1 0 0 1-1 1H3a1 1 0 0 1-1-1V3Zm0 15a1 1 0 0 1 1-1h7a1 1 0 0 1 1 1v3a1 1 0 0 1-1 1H3a1 1 0 0 1-1-1v-3Zm1-9a1 1 0 0 0-1 1v4a1 1 0 0 0 1 1h3a1 1 0 0 0 1-1v-4a1 1 0 0 0-1-1H3Zm14 1a1 1 0 0 1 1-1h3a1 1 0 0 1 1 1v4a1 1 0 0 1-1 1h-3a1 1 0 0 1-1-1v-4Zm-3-8a1 1 0 0 0-1 1v3a1 1 0 0 0 1 1h7a1 1 0 0 0 1-1V3a1 1 0 0 0-1-1h-7Zm-1 16a1 1 0 0 1 1-1h7a1 1 0 0 1 1 1v3a1 1 0 0 1-1 1h-7a1 1 0 0 1-1-1v-3Zm-1.272-2.177a.5.5 0 0 0 .544 0l1.128-.732c1-.691 1.6-1.855 1.6-3.127V9.5a.5.5 0 0 0-.5-.5h-5a.5.5 0 0 0-.5.5v2.464c0 1.272.6 2.472 1.6 3.127l1.128.732Z" fill="currentColor"/></symbol><symbol id="folder-24" viewBox="0 0 24 24"><path fill-rule="evenodd" clip-rule="evenodd" d="M2 3h10a1 1 0 0 1 1 1v2H1V4a1 1 0 0 1 1-1ZM1 8h21a1 1 0 0 1 1 1v11a1 1 0 0 1-1 1H2a1 1 0 0 1-1-1V8Z" fill="currentColor"/></symbol><symbol id="gateway-24" viewBox="0 0 24 24"><path fill-rule="evenodd" clip-rule="evenodd" d="M4 1h16a1 1 0 0 1 1 1v20a1 1 0 0 1-1 1H4a1 1 0 0 1-1-1V2a1 1 0 0 1 1-1Zm6.306 5.246a.5.5 0 0 0-.306.46v10.32a.5.5 0 0 0 .292.454l7 3.197a.5.5 0 0 0 .708-.455V3.754a.5.5 0 0 0-.694-.461l-7 2.953Z" fill="currentColor"/></symbol><symbol id="heart-24" viewBox="0 0 24 24"><path d="M12 3.889c2.299-2.502 5.977-2.502 8.276 0 2.299 2.501 2.299 6.604 0 9.106l-7.536 8.2a1 1 0 0 1-1.476-.005l-7.54-8.296c-2.299-2.501-2.299-6.604 0-9.105 2.299-2.402 5.977-2.402 8.276.1Z" fill="currentColor"/></symbol><symbol id="hourglass-24" viewBox="0 0 24 24"><path fill-rule="evenodd" clip-rule="evenodd" d="M3 2a1 1 0 0 1 1-1h16a1 1 0 1 1 0 2h-2v4.465a1 1 0 0 1-.445.832L12 12 6.445 8.297A1 1 0 0 1 6 7.465V3H4a1 1 0 0 1-1-1Zm9 10-5.555 3.703a1 1 0 0 0-.445.832V21H4a1 1 0 1 0 0 2h16a1 1 0 1 0 0-2h-2v-4.465a1 1 0 0 0-.445-.832L12 12Zm-4 9v-3.93l4-2.666 4 2.666V21H8Z" fill="currentColor"/></symbol><symbol id="images-24" viewBox="0 0 24 24"><path fill-rule="evenodd" clip-rule="evenodd" d="M11.499 11.71a1 1 0 0 0 1.002 0l8.252-4.777a.5.5 0 0 0 0-.866L12.5 1.29a1 1 0 0 0-1.002 0L3.247 6.067a.5.5 0 0 0 0 .866L11.5 11.71ZM11 14.088a1 1 0 0 0-.514-.874L2.743 8.913A.5.5 0 0 0 2 9.35v8.062a1 1 0 0 0 .514.874l7.743 4.301A.5.5 0 0 0 11 22.15v-8.062Zm2 0a1 1 0 0 1 .514-.874l7.743-4.301A.5.5 0 0 1 22 9.35v8.062a1 1 0 0 1-.514.874l-7.743 4.301A.5.5 0 0 1 13 22.15v-8.062Z" fill="currentColor"/></symbol><symbol id="instances-24" viewBox="0 0 24 24"><path fill-rule="evenodd" clip-rule="evenodd" d="M7 3a1 1 0 0 1 1-1h13a1 1 0 0 1 1 1v13a1 1 0 0 1-1 1h-2V6a1 1 0 0 0-1-1H7V3ZM3 7h13a1 1 0 0 1 1 1v13a1 1 0 0 1-1 1H3a1 1 0 0 1-1-1V8a1 1 0 0 1 1-1Z" fill="currentColor"/></symbol><symbol id="ip-global-24" viewBox="0 0 24 24"><path fill-rule="evenodd" clip-rule="evenodd" d="M13.412 1.09a11.108 11.108 0 0 0-2.824 0c-.332.453-.671 1.049-.992 1.798C9.108 4.026 8.703 5.42 8.423 7h7.154c-.28-1.58-.685-2.974-1.173-4.112-.32-.749-.66-1.345-.992-1.798Zm2.694.702c.656 1.436 1.173 3.212 1.5 5.208h4.195a11.04 11.04 0 0 0-5.695-5.208ZM22.586 9h-4.724c.09.966.138 1.97.138 3s-.048 2.034-.138 3h4.724c.27-.954.414-1.96.414-3s-.144-2.046-.414-3Zm-.785 8h-4.195c-.327 1.995-.844 3.772-1.5 5.208A11.041 11.041 0 0 0 21.801 17Zm-8.389 5.91a11.12 11.12 0 0 1-2.824 0c-.332-.453-.671-1.049-.992-1.798-.488-1.138-.893-2.532-1.173-4.112h7.154c-.28 1.58-.685 2.974-1.173 4.112-.32.749-.66 1.345-.992 1.798Zm-5.518-.702A11.04 11.04 0 0 1 2.199 17h4.195c.327 1.995.844 3.772 1.5 5.208ZM1.414 15h4.724C6.048 14.034 6 13.03 6 12s.048-2.034.138-3H1.414C1.144 9.954 1 10.96 1 12s.144 2.046.414 3ZM2.2 7h4.195c.327-1.996.844-3.772 1.5-5.208A11.04 11.04 0 0 0 2.199 7ZM8 12c0 1.04.052 2.044.147 3h7.706c.095-.956.147-1.96.147-3s-.052-2.044-.147-3H8.147C8.052 9.956 8 10.96 8 12Z" fill="currentColor"/></symbol><symbol id="ip-local-24" viewBox="0 0 24 24"><path fill-rule="evenodd" clip-rule="evenodd" d="M12.555 9.962a4.036 4.036 0 0 1-1.354-.042l-2.812 4.871a4 4 0 1 1-1.872-.758L9.4 9.04a4 4 0 1 1 5.018.147l2.82 4.886a4 4 0 1 1-1.81.864l-2.873-4.975Z" fill="currentColor"/></symbol><symbol id="issues-24" viewBox="0 0 24 24"><path fill-rule="evenodd" clip-rule="evenodd" d="M6 1a1 1 0 0 0-1 1v19H4a1 1 0 1 0 0 2h4a1 1 0 1 0 0-2H7v-9h6v2a1 1 0 0 0 1 1h6a1 1 0 0 0 1-1V7a1 1 0 0 0-1-1h-4V4a1 1 0 0 0-1-1H7V2a1 1 0 0 0-1-1Z" fill="currentColor"/></symbol><symbol id="key-24" viewBox="0 0 24 24"><path fill-rule="evenodd" clip-rule="evenodd" d="M18.173 2.707a1 1 0 0 1 1.414 0l.707.707a1 1 0 0 1 0 1.414l-.233.233 1.232 1.232a1 1 0 0 1-1.414 1.414l-1.232-1.231-1.464 1.464 1.231 1.232a1 1 0 0 1 0 1.414l-.707.707a1 1 0 0 1-1.414 0L15.06 10.06 13.623 11.5a6.5 6.5 0 1 1-2.359-1.884l6.909-6.908ZM8.5 19a3.5 3.5 0 1 0 0-7 3.5 3.5 0 0 0 0 7Z" fill="currentColor"/></symbol><symbol id="load-balancer-24" viewBox="0 0 24 24"><path fill-rule="evenodd" clip-rule="evenodd" d="M10 2a1 1 0 0 0-1 1v4a1 1 0 0 0 1 1h1v4H4a1 1 0 0 0-1 1v5a1 1 0 0 0-1 1v2a1 1 0 0 0 1 1h2a1 1 0 0 0 1-1v-2a1 1 0 0 0-1-1v-4h6v4a1 1 0 0 0-1 1v2a1 1 0 0 0 1 1h2a1 1 0 0 0 1-1v-2a1 1 0 0 0-1-1v-4h6v4a1 1 0 0 0-1 1v2a1 1 0 0 0 1 1h2a1 1 0 0 0 1-1v-2a1 1 0 0 0-1-1v-5a1 1 0 0 0-1-1h-7V8h1a1 1 0 0 0 1-1V3a1 1 0 0 0-1-1h-4Z" fill="currentColor"/></symbol><symbol id="logs-24" viewBox="0 0 24 24"><path fill-rule="evenodd" clip-rule="evenodd" d="M1 4a1 1 0 0 1 1-1h4a1 1 0 0 1 1 1v2a1 1 0 0 1-1 1H5v3.973l4 .054V11a1 1 0 0 1 1-1h12a1 1 0 0 1 1 1v2a1 1 0 0 1-1 1H10a1 1 0 0 1-1-.973l-4-.054V18h4a1 1 0 0 1 1-1h12a1 1 0 0 1 1 1v2a1 1 0 0 1-1 1H10a1 1 0 0 1-1-1H4a1 1 0 0 1-1-1V7H2a1 1 0 0 1-1-1V4Zm8 0a1 1 0 0 1 1-1h12a1 1 0 0 1 1 1v2a1 1 0 0 1-1 1H10a1 1 0 0 1-1-1V4Z" fill="currentColor"/></symbol><symbol id="networking-24" viewBox="0 0 24 24"><path fill-rule="evenodd" clip-rule="evenodd" d="M3 2h7a1 1 0 0 1 1 1v7a1 1 0 0 1-1 1H3a1 1 0 0 1-1-1V3a1 1 0 0 1 1-1Zm11 0h7a1 1 0 0 1 1 1v7a1 1 0 0 1-1 1h-7a1 1 0 0 1-1-1V3a1 1 0 0 1 1-1Zm7 11h-7a1 1 0 0 0-1 1v7a1 1 0 0 0 1 1h7a1 1 0 0 0 1-1v-7a1 1 0 0 0-1-1ZM6 17a1 1 0 0 0 1 1h3a1 1 0 1 0 0-2H8v-2a1 1 0 1 0-2 0v3Z" fill="currentColor"/></symbol><symbol id="overview-24" viewBox="0 0 24 24"><path fill-rule="evenodd" clip-rule="evenodd" d="M11 3a1 1 0 0 0-1-1H3a1 1 0 0 0-1 1v10a1 1 0 0 0 1 1h7a1 1 0 0 0 1-1V3Zm11 0a1 1 0 0 0-1-1h-7a1 1 0 0 0-1 1v4a1 1 0 0 0 1 1h7a1 1 0 0 0 1-1V3ZM2 17a1 1 0 0 1 1-1h7a1 1 0 0 1 1 1v4a1 1 0 0 1-1 1H3a1 1 0 0 1-1-1v-4Zm20-6a1 1 0 0 0-1-1h-7a1 1 0 0 0-1 1v10a1 1 0 0 0 1 1h7a1 1 0 0 0 1-1V11Z" fill="currentColor"/></symbol><symbol id="person-24" viewBox="0 0 24 24"><path fill-rule="evenodd" clip-rule="evenodd" d="M18 8A6 6 0 1 1 6 8a6 6 0 0 1 12 0ZM1 21.454A5.455 5.455 0 0 1 6.455 16h11.09A5.455 5.455 0 0 1 23 21.454a.545.545 0 0 1-.546.546H1.546A.545.545 0 0 1 1 21.454Z" fill="currentColor"/></symbol><symbol id="person-group-24" viewBox="0 0 24 24"><path fill-rule="evenodd" clip-rule="evenodd" d="M16 12a5 5 0 1 0 0-10 5 5 0 0 0 0 10Zm-2 2a5 5 0 0 0-5 5v2a1 1 0 0 0 1 1h12a1 1 0 0 0 1-1v-2a5 5 0 0 0-5-5h-4ZM9.136 5.618C9.046 6.065 9 6.527 9 7c0 1.557.508 2.995 1.368 4.158a4 4 0 1 1-1.232-5.54Zm-.886 9.388A6.968 6.968 0 0 0 7 19v3H2a1 1 0 0 1-1-1v-1a5 5 0 0 1 5-5h2c.084 0 .167.002.25.006Z" fill="currentColor"/></symbol><symbol id="location-24" viewBox="0 0 24 24"><path fill-rule="evenodd" clip-rule="evenodd" d="M18 7a6.002 6.002 0 0 1-5 5.917V17h-2v-4.083A6.002 6.002 0 0 1 12 1a6 6 0 0 1 6 6Zm3 13c0 1.657-4.03 3-9 3s-9-1.343-9-3c0-1.544 3.5-2.816 8-2.982V20a1 1 0 1 0 2 0v-2.982c4.5.166 8 1.438 8 2.982Z" fill="currentColor"/></symbol><symbol id="progress-24" viewBox="0 0 24 24"><path fill-rule="evenodd" clip-rule="evenodd" d="M18 1a1 1 0 0 0-1 1v20a1 1 0 0 0 1 1h2a1 1 0 0 0 1-1V2a1 1 0 0 0-1-1h-2Zm-8 8a1 1 0 0 1 1-1h2a1 1 0 0 1 1 1v13a1 1 0 0 1-1 1h-2a1 1 0 0 1-1-1V9Zm-7 7a1 1 0 0 1 1-1h2a1 1 0 0 1 1 1v6a1 1 0 0 1-1 1H4a1 1 0 0 1-1-1v-6Z" fill="currentColor"/></symbol><symbol id="prohibited-24" viewBox="0 0 24 24"><path fill-rule="evenodd" clip-rule="evenodd" d="M16.49 5.388A7.942 7.942 0 0 0 12 4c-4.4 0-8 3.6-8 8 0 1.661.513 3.208 1.388 4.49L16.49 5.388Zm2.122 2.122L7.51 18.612A7.942 7.942 0 0 0 12 20c4.4 0 8-3.6 8-8a7.942 7.942 0 0 0-1.388-4.49ZM1 12C1 5.9 5.9 1 12 1s11 4.9 11 11-4.9 11-11 11S1 18.1 1 12Z" fill="currentColor"/></symbol><symbol id="organization-24" viewBox="0 0 24 24"><g fill="currentColor"><path d="M9.918 12.707a1 1 0 0 0 0-1.414L6.52 7.895a1 1 0 0 0-1.415 0l-3.398 3.398a1 1 0 0 0 0 1.414l3.398 3.398a1 1 0 0 0 1.415 0l3.398-3.398ZM22.293 12.707a1 1 0 0 0 0-1.414l-3.398-3.398a1 1 0 0 0-1.415 0l-3.398 3.398a1 1 0 0 0 0 1.414l3.398 3.398a1 1 0 0 0 1.415 0l3.398-3.398ZM11.293 1.707a1 1 0 0 1 1.414 0l3.398 3.398a1 1 0 0 1 0 1.415l-3.398 3.398a1 1 0 0 1-1.414 0L7.895 6.52a1 1 0 0 1 0-1.415l3.398-3.398ZM16.105 18.895a1 1 0 0 0 0-1.415l-3.398-3.398a1 1 0 0 0-1.414 0L7.895 17.48a1 1 0 0 0 0 1.415l3.398 3.398a1 1 0 0 0 1.414 0l3.398-3.398Z"/></g></symbol><symbol id="router-24" viewBox="0 0 24 24"><path fill-rule="evenodd" clip-rule="evenodd" d="M20.933 5.2a1 1 0 0 1 0 1.6L14.8 11.4a.5.5 0 0 1-.8-.4V9H5a1 1 0 0 1-1-1V4a1 1 0 0 1 1-1h9V1a.5.5 0 0 1 .8-.4l6.133 4.6Zm-17.866 12a1 1 0 0 0 0 1.6L9.2 23.4a.5.5 0 0 0 .8-.4v-2h9a1 1 0 0 0 1-1v-4a1 1 0 0 0-1-1h-9v-2a.5.5 0 0 0-.8-.4l-6.133 4.6Z" fill="currentColor"/></symbol><symbol id="safety-24" viewBox="0 0 24 24"><path d="M3 4.72a1 1 0 0 1 .684-.948l8-2.667a1 1 0 0 1 .632 0l8 2.667a1 1 0 0 1 .684.949v8.572a8 8 0 0 1-4.115 6.993l-4.4 2.444a1 1 0 0 1-.97 0l-4.4-2.444A8 8 0 0 1 3 13.293V4.72Z" fill="currentColor"/></symbol><symbol id="security-24" viewBox="0 0 24 24"><path fill-rule="evenodd" clip-rule="evenodd" d="M12 1a6 6 0 0 0-6 6v1.385c0 .34.276.615.615.615h2A.385.385 0 0 0 9 8.615V7a3 3 0 1 1 6 0v1.615c0 .213.172.385.385.385h2c.34 0 .615-.276.615-.615V7a6 6 0 0 0-6-6ZM4 11a1 1 0 0 0-1 1v10a1 1 0 0 0 1 1h16a1 1 0 0 0 1-1V12a1 1 0 0 0-1-1H4Zm8 6a2 2 0 1 0 0-4 2 2 0 0 0 0 4Z" fill="currentColor"/></symbol><symbol id="racks-24" viewBox="0 0 24 24"><path fill-rule="evenodd" clip-rule="evenodd" d="M3 2a1 1 0 0 0-1 1v7a1 1 0 0 0 1 1h18a1 1 0 0 0 1-1V3a1 1 0 0 0-1-1H3Zm6 4.5a2.5 2.5 0 1 1-5 0 2.5 2.5 0 0 1 5 0ZM3 13a1 1 0 0 0-1 1v7a1 1 0 0 0 1 1h18a1 1 0 0 0 1-1v-7a1 1 0 0 0-1-1H3Zm6 4.5a2.5 2.5 0 1 1-5 0 2.5 2.5 0 0 1 5 0Z" fill="currentColor"/></symbol><symbol id="settings-24" viewBox="0 0 24 24"><path fill-rule="evenodd" clip-rule="evenodd" d="M2 7.091a1 1 0 0 1 .518-.876l9-4.95a1 1 0 0 1 .964 0l9 4.95a1 1 0 0 1 .518.876v9.818a1 1 0 0 1-.518.876l-9 4.95a1 1 0 0 1-.964 0l-9-4.95A1 1 0 0 1 2 16.909V7.09ZM12 17a5 5 0 1 0 0-10 5 5 0 0 0 0 10Z" fill="currentColor"/></symbol><symbol id="snapshots-24" viewBox="0 0 24 24"><path fill-rule="evenodd" clip-rule="evenodd" d="M11.486 1.309 2.714 6.57a.5.5 0 0 0 0 .858l8.77 5.262a1 1 0 0 0 1.03 0l8.77-5.262a.5.5 0 0 0 0-.858l-8.77-5.262a1 1 0 0 0-1.03 0Zm-8.187 9.47 8.187 4.912a1 1 0 0 0 1.028 0l8.187-4.912a.858.858 0 0 1 .883 1.47l-9.07 5.442a1 1 0 0 1-1.028 0l-9.07-5.441a.858.858 0 0 1 .883-1.47Zm8.187 9.912L3.299 15.78a.858.858 0 0 0-.883 1.47l9.07 5.442a1 1 0 0 0 1.028 0l9.07-5.441a.857.857 0 0 0-.883-1.47l-8.187 4.911a1 1 0 0 1-1.028 0Z" fill="currentColor"/></symbol><symbol id="software-update-24" viewBox="0 0 24 24"><path fill-rule="evenodd" clip-rule="evenodd" d="M12.707 1.707a1 1 0 0 0-1.414 0L7.707 5.293C7.077 5.923 7.523 7 8.414 7h7.172c.89 0 1.337-1.077.707-1.707l-3.586-3.586ZM2 11a1 1 0 0 1 1-1h18a1 1 0 0 1 1 1v10a1 1 0 0 1-1 1H3a1 1 0 0 1-1-1V11Zm9.293 2.707a1 1 0 0 1 1.414 0l3.586 3.586c.63.63.184 1.707-.707 1.707H8.414c-.89 0-1.337-1.077-.707-1.707l3.586-3.586Z" fill="currentColor"/></symbol><symbol id="speaker-24" viewBox="0 0 24 24"><path fill-rule="evenodd" clip-rule="evenodd" d="M10.723 7a1 1 0 0 0 .514-.143l8.248-4.948A1 1 0 0 1 21 2.766v18.468a1 1 0 0 1-1.515.857l-8.247-4.949a1 1 0 0 0-.515-.142H4a1 1 0 0 1-1-1V8a1 1 0 0 1 1-1h6.723Z" fill="currentColor"/></symbol><symbol id="storage-24" viewBox="0 0 24 24"><path d="M18.3 2.375A1 1 0 0 0 17.52 2H17a1 1 0 0 0-1 1v3.1H5V3a1 1 0 0 0-1-1H3a1 1 0 0 0-1 1v18a1 1 0 0 0 1 1h18a1 1 0 0 0 1-1V7.35a1 1 0 0 0-.22-.624l-3.48-4.35ZM12 18c-2.2 0-4-1.8-4-4s1.8-4 4-4 4 1.8 4 4-1.8 4-4 4Z" fill="currentColor"/></symbol><symbol id="subnet-24" viewBox="0 0 24 24"><path fill-rule="evenodd" clip-rule="evenodd" d="M3 2a1 1 0 0 0-1 1v6a1 1 0 0 0 1 1h2v4H3a1 1 0 0 0-1 1v6a1 1 0 0 0 1 1h6a1 1 0 0 0 1-1v-2h4v2a1 1 0 0 0 1 1h6a1 1 0 0 0 1-1v-6a1 1 0 0 0-1-1h-2v-4h2a1 1 0 0 0 1-1V3a1 1 0 0 0-1-1h-6a1 1 0 0 0-1 1v2h-4V3a1 1 0 0 0-1-1H3Zm14 12v-4h-2a1 1 0 0 1-1-1V7h-4v2a1 1 0 0 1-1 1H7v4h2a1 1 0 0 1 1 1v2h4v-2a1 1 0 0 1 1-1h2Z" fill="currentColor"/></symbol><symbol id="resize-24" viewBox="0 0 24 24"><path fill-rule="evenodd" clip-rule="evenodd" d="M19 5v6a1 1 0 0 0 1 1h1a1 1 0 0 0 1-1V3a1 1 0 0 0-1-1h-8a1 1 0 0 0-1 1v1a1 1 0 0 0 1 1h6ZM7 8a1 1 0 0 1 1-1h8a1 1 0 0 1 1 1v8a1 1 0 0 1-1 1H8a1 1 0 0 1-1-1V8ZM5 19v-6a1 1 0 0 0-1-1H3a1 1 0 0 0-1 1v8a1 1 0 0 0 1 1h8a1 1 0 0 0 1-1v-1a1 1 0 0 0-1-1H5Z" fill="currentColor"/></symbol><symbol id="terminal-24" viewBox="0 0 24 24"><path fill-rule="evenodd" clip-rule="evenodd" d="M2 3a1 1 0 0 0-1 1v16a1 1 0 0 0 1 1h20a1 1 0 0 0 1-1V4a1 1 0 0 0-1-1H2Zm3.44 12.294A1 1 0 0 1 4 14.396v-.138a1 1 0 0 1 .585-.91L9.733 11 4.585 8.651A1 1 0 0 1 4 7.741v-.137a1 1 0 0 1 1.44-.898l6 2.943a1 1 0 0 1 .56.898v.906a1 1 0 0 1-.56.898l-6 2.943ZM19 16h-6a1 1 0 1 0 0 2h6a1 1 0 1 0 0-2Z" fill="currentColor"/></symbol><symbol id="transmit-24" viewBox="0 0 24 24"><path fill-rule="evenodd" clip-rule="evenodd" d="M18.363 13.84c-.336.439-.336 1.07.059 1.456.394.387 1.03.384 1.377-.046A9.946 9.946 0 0 0 22 8.995c0-2.366-.823-4.54-2.199-6.252-.345-.43-.983-.434-1.377-.047s-.395 1.017-.06 1.456A7.954 7.954 0 0 1 20 8.995c0 1.821-.61 3.5-1.637 4.845Zm-12.726 0c.336.439.336 1.07-.059 1.456-.394.387-1.03.384-1.377-.046A9.946 9.946 0 0 1 2 8.995c0-2.366.823-4.54 2.199-6.252.346-.43.983-.434 1.377-.047s.394 1.017.06 1.456A7.953 7.953 0 0 0 4 8.995c0 1.821.61 3.5 1.637 4.845Zm1.444-1.412c.316.452.957.454 1.351.068.395-.387.387-1.017.108-1.495A3.974 3.974 0 0 1 8 8.995c0-.73.196-1.416.54-2.006.278-.477.285-1.107-.11-1.494-.393-.386-1.034-.384-1.35.068A5.965 5.965 0 0 0 6 8.995c0 1.277.4 2.46 1.08 3.434Zm8.487.068c.394.386 1.035.384 1.351-.068A5.965 5.965 0 0 0 18 8.995c0-1.277-.4-2.46-1.08-3.432-.316-.452-.957-.454-1.35-.068-.395.387-.388 1.017-.11 1.494.343.59.54 1.275.54 2.006 0 .731-.197 1.417-.54 2.007-.279.477-.287 1.107.108 1.494ZM14 9a2 2 0 0 1-1.412 1.912l3.014 9.794A1 1 0 0 1 14.646 22H9.354a1 1 0 0 1-.956-1.294l3.014-9.794A2 2 0 1 1 14 9Z" fill="currentColor"/></symbol><symbol id="wireless-24" viewBox="0 0 24 24"><path d="M11.321 20.227a1 1 0 0 0 1.457-.004L22.476 9.86a.956.956 0 0 0 .102-1.2C20.164 5.2 16.338 3 12.052 3 7.767 3 3.849 5.2 1.425 8.657a.954.954 0 0 0 .104 1.203l9.792 10.367Z" fill="currentColor"/></symbol><symbol id="access-16" viewBox="0 0 16 16"><path fill-rule="evenodd" clip-rule="evenodd" d="M5 13.29a6.316 6.316 0 0 1-3-5.354V3.541a.75.75 0 0 1 .513-.712l5.25-1.75a.75.75 0 0 1 .474 0l5.25 1.75a.75.75 0 0 1 .513.712v4.395c0 2.152-1.12 4.126-3 5.348a7.33 7.33 0 0 1-.2.125l-2.43 1.38a.75.75 0 0 1-.74 0L5.2 13.41a6.375 6.375 0 0 1-.2-.12Zm0-2.887c0 .175.06.347.18.474.29.307.63.576 1.011.795l.003.002 1.435.815c.23.13.512.13.742 0l1.416-.804c.394-.242.74-.523 1.033-.835a.69.69 0 0 0 .18-.475V10a2 2 0 0 0-2-2H7a2 2 0 0 0-2 2v.402ZM10 5a2 2 0 1 1-4 0 2 2 0 0 1 4 0Z" fill="currentColor"/></symbol><symbol id="action-16" viewBox="0 0 16 16"><path d="M9 7h3.978a.5.5 0 0 1 .394.807L7.895 14.85A.5.5 0 0 1 7 14.543V9H3.022a.5.5 0 0 1-.394-.807L8.105 1.15A.5.5 0 0 1 9 1.457V7Z" fill="currentColor"/></symbol><symbol id="add-roundel-16" viewBox="0 0 16 16"><path fill-rule="evenodd" clip-rule="evenodd" d="M8 15A7 7 0 1 0 8 1a7 7 0 0 0 0 14ZM7 4.75A.75.75 0 0 1 7.75 4h.5a.75.75 0 0 1 .75.75V7h2.25a.75.75 0 0 1 .75.75v.5a.75.75 0 0 1-.75.75H9v2.25a.75.75 0 0 1-.75.75h-.5a.75.75 0 0 1-.75-.75V9H4.75A.75.75 0 0 1 4 8.25v-.5A.75.75 0 0 1 4.75 7H7V4.75Z" fill="currentColor"/></symbol><symbol id="calendar-16" viewBox="0 0 16 16"><path fill-rule="evenodd" clip-rule="evenodd" d="M1.75 3a.75.75 0 0 0-.75.75V6h14V3.75a.75.75 0 0 0-.75-.75H13V1h-2v2H5V1H3v2H1.75ZM1 7h14v7.25a.75.75 0 0 1-.75.75H1.75a.75.75 0 0 1-.75-.75V7Zm2 2.75A.75.75 0 0 1 3.75 9h2.5a.75.75 0 0 1 .75.75v2.5a.75.75 0 0 1-.75.75h-2.5a.75.75 0 0 1-.75-.75v-2.5Z" fill="currentColor"/></symbol><symbol id="chat-16" viewBox="0 0 16 16"><path fill-rule="evenodd" clip-rule="evenodd" d="M1 8a7 7 0 1 1 7 7H1.746A.746.746 0 0 1 1 14.254V8Zm3-1.25A.75.75 0 0 1 4.75 6h6.5a.75.75 0 0 1 .75.75v.5a.75.75 0 0 1-.75.75h-6.5A.75.75 0 0 1 4 7.25v-.5ZM4.75 9a.75.75 0 0 0-.75.75v.5c0 .414.336.75.75.75h3.5a.75.75 0 0 0 .75-.75v-.5A.75.75 0 0 0 8.25 9h-3.5Z" fill="currentColor"/></symbol><symbol id="clipboard-16" viewBox="0 0 16 16"><path fill-rule="evenodd" clip-rule="evenodd" d="M6.75 1a.75.75 0 0 0-.75.75v.5c0 .414.336.75.75.75h2.5a.75.75 0 0 0 .75-.75v-.5A.75.75 0 0 0 9.25 1h-2.5Zm-4 1H4v2.25c0 .414.336.75.75.75h6.5a.75.75 0 0 0 .75-.75V2h1.25a.75.75 0 0 1 .75.75v11.5a.75.75 0 0 1-.75.75H2.75a.75.75 0 0 1-.75-.75V2.75A.75.75 0 0 1 2.75 2Z" fill="currentColor"/></symbol><symbol id="cloud-16" viewBox="0 0 16 16"><path fill-rule="evenodd" clip-rule="evenodd" d="M13.333 7v.018A3 3 0 0 1 13 13H4a4 4 0 0 1-.254-7.992A5.001 5.001 0 0 1 13.333 7Z" fill="currentColor"/></symbol><symbol id="close-16" viewBox="0 0 16 16"><path fill-rule="evenodd" clip-rule="evenodd" d="M2.22 2.644a.75.75 0 0 0 0 1.06L6.514 8 2.22 12.295a.75.75 0 0 0 0 1.06l.424.425a.75.75 0 0 0 1.06 0L8 9.483l4.295 4.296a.75.75 0 0 0 1.06 0l.425-.425a.75.75 0 0 0 0-1.06L9.484 8l4.295-4.296a.75.75 0 0 0 0-1.06l-.424-.424a.75.75 0 0 0-1.061 0L7.999 6.515 3.704 2.22a.75.75 0 0 0-1.06 0l-.424.424Z" fill="currentColor"/></symbol><symbol id="compability-16" viewBox="0 0 16 16"><path fill-rule="evenodd" clip-rule="evenodd" d="M1 1.75A.75.75 0 0 1 1.75 1h12.5a.75.75 0 0 1 .75.75V7h-4V4H5v3H1V1.75ZM11 9v3h4v2.25a.75.75 0 0 1-.75.75H1.75a.75.75 0 0 1-.75-.75V12h4V9h6Z" fill="currentColor"/></symbol><symbol id="contrast-16" viewBox="0 0 16 16"><path fill-rule="evenodd" clip-rule="evenodd" d="M8 16A8 8 0 1 0 8 0a8 8 0 0 0 0 16Zm2.296-2.457A6 6 0 0 1 8 14V2a6 6 0 0 1 2.296 11.543Z" fill="currentColor"/></symbol><symbol id="cpu-16" viewBox="0 0 16 16"><path fill-rule="evenodd" clip-rule="evenodd" d="M7 0v3h2V0h2v3h1.25a.75.75 0 0 1 .75.75V5h3v2h-3v2h3v2h-3v1.25a.75.75 0 0 1-.75.75H11v3H9v-3H7v3H5v-3H3.75a.75.75 0 0 1-.75-.75V11H0V9h3V7H0V5h3V3.75A.75.75 0 0 1 3.75 3H5V0h2Zm0 9V7h2v2H7Zm3.5-4h-5a.5.5 0 0 0-.5.5v5a.5.5 0 0 0 .5.5h5a.5.5 0 0 0 .5-.5v-5a.5.5 0 0 0-.5-.5Z" fill="currentColor"/></symbol><symbol id="delete-16" viewBox="0 0 16 16"><path fill-rule="evenodd" clip-rule="evenodd" d="M9.69 0a.75.75 0 0 1 .53.22l.56.56c.141.141.332.22.53.22h1.94a.75.75 0 0 1 .75.75v.5a.75.75 0 0 1-.75.75H2.75A.75.75 0 0 1 2 2.25v-.5A.75.75 0 0 1 2.75 1h1.94a.75.75 0 0 0 .53-.22l.56-.56A.75.75 0 0 1 6.31 0h3.38ZM3.75 5a.75.75 0 0 0-.75.75v9.5c0 .414.336.75.75.75h8.5a.75.75 0 0 0 .75-.75v-9.5a.75.75 0 0 0-.75-.75h-8.5ZM6.5 7a.5.5 0 0 1 .5.5v6a.5.5 0 0 1-.5.5h-1a.5.5 0 0 1-.5-.5v-6a.5.5 0 0 1 .5-.5h1Zm3 0a.5.5 0 0 0-.5.5v6a.5.5 0 0 0 .5.5h1a.5.5 0 0 0 .5-.5v-6a.5.5 0 0 0-.5-.5h-1Z" fill="currentColor"/></symbol><symbol id="document-16" viewBox="0 0 16 16"><path d="M11.72.224A.75.75 0 0 0 11.185 0H2.75A.75.75 0 0 0 2 .75v14.5c0 .414.336.75.75.75h10.5a.75.75 0 0 0 .75-.75V2.852a.75.75 0 0 0-.215-.525L11.72.224ZM4 8.75A.75.75 0 0 1 4.75 8h3.5a.75.75 0 0 1 .75.75v.5a.75.75 0 0 1-.75.75h-3.5A.75.75 0 0 1 4 9.25v-.5Zm6 3.5a.75.75 0 0 1-.75.75h-4.5a.75.75 0 0 1-.75-.75v-.5a.75.75 0 0 1 .75-.75h4.5a.75.75 0 0 1 .75.75v.5Zm1-5.91a.75.75 0 0 1-.75.75h-5.5A.75.75 0 0 1 4 6.34v-.59A.75.75 0 0 1 4.75 5h5.5a.75.75 0 0 1 .75.75v.59Z" fill="currentColor"/></symbol><symbol id="download-roundel-16" viewBox="0 0 16 16"><path fill-rule="evenodd" clip-rule="evenodd" d="M8 15A7 7 0 1 0 8 1a7 7 0 0 0 0 14ZM4.905 8H7V4.75A.75.75 0 0 1 7.75 4h.5a.75.75 0 0 1 .75.75V8h2.095c.334 0 .501.404.265.64l-2.83 2.83a.75.75 0 0 1-1.06 0L4.64 8.64A.375.375 0 0 1 4.905 8Z" fill="currentColor"/></symbol><symbol id="edit-16" viewBox="0 0 16 16"><path fill-rule="evenodd" clip-rule="evenodd" d="M.75 16a.75.75 0 0 1-.75-.75v-2.94a.75.75 0 0 1 .22-.53l8.25-8.25a.75.75 0 0 1 1.06 0l2.94 2.94a.75.75 0 0 1 0 1.06l-8.25 8.25a.75.75 0 0 1-.53.22H.75ZM13.47 5.47a.75.75 0 0 0 1.06 0l.94-.94a.75.75 0 0 0 0-1.06L12.53.53a.75.75 0 0 0-1.06 0l-.94.94a.75.75 0 0 0 0 1.06l2.94 2.94Z" fill="currentColor"/></symbol><symbol id="email-16" viewBox="0 0 16 16"><path fill-rule="evenodd" clip-rule="evenodd" d="m3.049 10 1.555-7h6.792l1.555 7H10.75a.75.75 0 0 0-.75.75v.5a.75.75 0 0 1-.75.75h-2.5a.75.75 0 0 1-.75-.75v-.5a.75.75 0 0 0-.75-.75H3.049Zm-.18-8.413A.75.75 0 0 1 3.602 1h8.796a.75.75 0 0 1 .732.587l1.852 8.333a.748.748 0 0 1 .018.162v4.168a.75.75 0 0 1-.75.75H1.75a.75.75 0 0 1-.75-.75v-4.168a.75.75 0 0 1 .018-.162l1.851-8.333Z" fill="currentColor"/></symbol><symbol id="error-16" viewBox="0 0 16 16"><path fill-rule="evenodd" clip-rule="evenodd" d="M8 15A7 7 0 1 0 8 1a7 7 0 0 0 0 14ZM4.995 6.409a.75.75 0 0 1 0-1.06l.353-.354a.75.75 0 0 1 1.061 0L8 6.585l1.591-1.59a.75.75 0 0 1 1.06 0l.354.353a.75.75 0 0 1 0 1.061L9.415 8l1.59 1.591a.75.75 0 0 1 0 1.06l-.353.354a.75.75 0 0 1-1.061 0L8 9.415l-1.591 1.59a.75.75 0 0 1-1.06 0l-.354-.353a.75.75 0 0 1 0-1.061L6.585 8l-1.59-1.591Z" fill="currentColor"/></symbol><symbol id="firewall-16" viewBox="0 0 16 16"><path fill-rule="evenodd" clip-rule="evenodd" d="M0 .75A.75.75 0 0 1 .75 0h5.5A.75.75 0 0 1 7 .75v1.5a.75.75 0 0 1-.75.75H.75A.75.75 0 0 1 0 2.25V.75Zm0 13A.75.75 0 0 1 .75 13h5.5a.75.75 0 0 1 .75.75v1.5a.75.75 0 0 1-.75.75H.75a.75.75 0 0 1-.75-.75v-1.5ZM9.75 13a.75.75 0 0 0-.75.75v1.5c0 .414.336.75.75.75h5.5a.75.75 0 0 0 .75-.75v-1.5a.75.75 0 0 0-.75-.75h-5.5ZM0 5.75A.75.75 0 0 1 .75 5h1.5a.75.75 0 0 1 .75.75v4.5a.75.75 0 0 1-.75.75H.75a.75.75 0 0 1-.75-.75v-4.5ZM13.75 5a.75.75 0 0 0-.75.75v4.5c0 .414.336.75.75.75h1.5a.75.75 0 0 0 .75-.75v-4.5a.75.75 0 0 0-.75-.75h-1.5ZM9 .75A.75.75 0 0 1 9.75 0h5.5a.75.75 0 0 1 .75.75v1.5a.75.75 0 0 1-.75.75h-5.5A.75.75 0 0 1 9 2.25V.75ZM7.796 11.867c.124.081.284.081.408 0l1.196-.776c1-.691 1.6-1.855 1.6-3.127V5.375A.375.375 0 0 0 10.625 5h-5.25A.375.375 0 0 0 5 5.375v2.589c0 1.272.6 2.472 1.6 3.127l1.196.776Z" fill="currentColor"/></symbol><symbol id="folder-16" viewBox="0 0 16 16"><path fill-rule="evenodd" clip-rule="evenodd" d="M1.75 2h6.773a.75.75 0 0 1 .75.75v1.16H1V2.75A.75.75 0 0 1 1.75 2ZM1 5h13.25a.75.75 0 0 1 .75.75v7.5a.75.75 0 0 1-.75.75H1.75a.75.75 0 0 1-.75-.75V5Z" fill="currentColor"/></symbol><symbol id="gateway-16" viewBox="0 0 16 16"><path fill-rule="evenodd" clip-rule="evenodd" d="M2.75 0h10.5a.75.75 0 0 1 .75.75v14.5a.75.75 0 0 1-.75.75H2.75a.75.75 0 0 1-.75-.75V.75A.75.75 0 0 1 2.75 0Zm3.471 4.15A.375.375 0 0 0 6 4.492v6.838c0 .143.082.274.21.337l4.25 2.07c.25.122.54-.06.54-.337V2.58a.375.375 0 0 0-.529-.342l-4.25 1.913Z" fill="currentColor"/></symbol><symbol id="health-16" viewBox="0 0 16 16"><path d="M8 3.228a4.05 4.05 0 0 1 5.793 0c1.61 1.626 1.61 4.292 0 5.918l-5.257 5.312a.75.75 0 0 1-1.069-.003l-5.26-5.374c-1.61-1.626-1.61-4.292 0-5.918A4.108 4.108 0 0 1 8 3.228Z" fill="currentColor"/></symbol><symbol id="hide-16" viewBox="0 0 16 16"><path fill-rule="evenodd" clip-rule="evenodd" d="M3.997 12.003 2.5 13.5a.707.707 0 0 1-1-1l1.28-1.28A10.638 10.638 0 0 1 .185 8.325a.63.63 0 0 1 0-.652C.852 6.563 3.357 3 8 3c.956 0 1.822.151 2.6.4l1.9-1.9a.707.707 0 0 1 1 1l-1.497 1.497L10.12 5.88 5.88 10.12l-1.882 1.882ZM5.13 8.87 8.87 5.13a3 3 0 0 0-3.743 3.743Zm8.09-4.09-2.348 2.348A3.003 3.003 0 0 1 7.13 10.87L5.4 12.6C6.178 12.85 7.044 13 8 13c4.643 0 7.148-3.563 7.816-4.674a.63.63 0 0 0 0-.652c-.35-.581-1.2-1.832-2.597-2.893Z" fill="currentColor"/></symbol><symbol id="hourglass-16" viewBox="0 0 16 16"><path fill-rule="evenodd" clip-rule="evenodd" d="M4 0h-.25A.75.75 0 0 0 3 .75v.5c0 .414.336.75.75.75H4v2.625a.75.75 0 0 0 .3.6L8 8l-3.7 2.775a.75.75 0 0 0-.3.6V14h-.25a.75.75 0 0 0-.75.75v.5c0 .414.336.75.75.75h8.5a.75.75 0 0 0 .75-.75v-.5a.75.75 0 0 0-.75-.75H12v-2.625a.75.75 0 0 0-.3-.6L8 8l3.7-2.775a.75.75 0 0 0 .3-.6V2h.25a.75.75 0 0 0 .75-.75v-.5a.75.75 0 0 0-.75-.75H4Zm6 12v2H6v-2l2-1.5 2 1.5Z" fill="currentColor"/></symbol><symbol id="images-16" viewBox="0 0 16 16"><g fill="currentColor"><path d="M1.523 5.312A.375.375 0 0 0 1 5.657v5.808a.75.75 0 0 0 .451.688l5.024 2.184A.375.375 0 0 0 7 13.993V8.154a.75.75 0 0 0-.455-.69L1.523 5.313ZM9 13.993c0 .27.277.452.525.344l5.024-2.184a.75.75 0 0 0 .451-.688V5.657c0-.27-.275-.451-.523-.345L9.455 7.465A.75.75 0 0 0 9 8.154v5.84ZM12.891 3.816a.375.375 0 0 0 .002-.689L8.299 1.13a.75.75 0 0 0-.598 0L3.107 3.127c-.301.131-.3.56.002.689l4.596 1.97a.75.75 0 0 0 .59 0l4.596-1.97Z"/></g></symbol><symbol id="info-16" viewBox="0 0 16 16"><path fill-rule="evenodd" clip-rule="evenodd" d="M8 15A7 7 0 1 0 8 1a7 7 0 0 0 0 14Zm.25-11a.75.75 0 0 1 .75.75v.5a.75.75 0 0 1-.75.75h-.5A.75.75 0 0 1 7 5.25v-.5A.75.75 0 0 1 7.75 4h.5Zm0 3a.75.75 0 0 1 .75.75v3.5a.75.75 0 0 1-.75.75h-.5a.75.75 0 0 1-.75-.75v-3.5A.75.75 0 0 1 7.75 7h.5Z" fill="currentColor"/></symbol><symbol id="help-16" viewBox="0 0 16 16"><path d="M15 8A7 7 0 1 1 1 8a7 7 0 0 1 14 0Z" fill="currentColor"/></symbol><symbol id="instances-16" viewBox="0 0 16 16"><path fill-rule="evenodd" clip-rule="evenodd" d="M6 1.75A.75.75 0 0 1 6.75 1h7.5a.75.75 0 0 1 .75.75v7.5a.75.75 0 0 1-.75.75H13V3.75a.75.75 0 0 0-.75-.75H6V1.75Zm-5 4A.75.75 0 0 1 1.75 5h8.5a.75.75 0 0 1 .75.75v8.5a.75.75 0 0 1-.75.75h-8.5a.75.75 0 0 1-.75-.75v-8.5Z" fill="currentColor"/></symbol><symbol id="integration-16" viewBox="0 0 16 16"><path fill-rule="evenodd" clip-rule="evenodd" d="M1.75 1a.75.75 0 0 0-.75.75v4.5c0 .414.336.75.75.75h4.5A.75.75 0 0 0 7 6.25v-4.5A.75.75 0 0 0 6.25 1h-4.5Zm9.25.75a.75.75 0 0 1 .75-.75h.5a.75.75 0 0 1 .75.75V3h1.25a.75.75 0 0 1 .75.75v.5a.75.75 0 0 1-.75.75H13v1.25a.75.75 0 0 1-.75.75h-.5a.75.75 0 0 1-.75-.75V5H9.75A.75.75 0 0 1 9 4.25v-.5A.75.75 0 0 1 9.75 3H11V1.75Zm-10 8A.75.75 0 0 1 1.75 9h4.5a.75.75 0 0 1 .75.75v4.5a.75.75 0 0 1-.75.75h-4.5a.75.75 0 0 1-.75-.75v-4.5ZM9.75 9a.75.75 0 0 0-.75.75v4.5c0 .414.336.75.75.75h4.5a.75.75 0 0 0 .75-.75v-4.5a.75.75 0 0 0-.75-.75h-4.5Z" fill="currentColor"/></symbol><symbol id="ip-global-16" viewBox="0 0 16 16"><path fill-rule="evenodd" clip-rule="evenodd" d="M5.75 8c0-.424.008-.841.024-1.25h4.452a32.576 32.576 0 0 1-.023 3H5.797A32.353 32.353 0 0 1 5.75 8Zm-1.5 0c0-.423.008-.84.023-1.25H.097a8.06 8.06 0 0 0 .095 3h4.103C4.265 9.18 4.25 8.595 4.25 8ZM.688 11.25a8.026 8.026 0 0 0 4.54 4.257 13.39 13.39 0 0 1-.068-.22c-.34-1.135-.599-2.512-.752-4.037H.688Zm8.326 4.686a8.085 8.085 0 0 1-2.028 0 9.783 9.783 0 0 1-.389-1.08c-.298-.995-.535-2.224-.681-3.606h4.168c-.146 1.382-.383 2.611-.681 3.605-.123.41-.254.771-.389 1.081Zm1.758-.43a8.027 8.027 0 0 0 4.54-4.256h-3.72c-.153 1.525-.412 2.902-.752 4.037l-.068.22Zm5.036-5.756a8.027 8.027 0 0 0 .095-3h-4.176a34.235 34.235 0 0 1-.022 3h4.103Zm-.293-4.5A8.024 8.024 0 0 0 10.772.493l.068.22c.377 1.257.654 2.812.798 4.537h3.877ZM6.985.064a8.078 8.078 0 0 1 2.03 0c.134.31.265.67.388 1.08.334 1.113.59 2.52.73 4.106H5.867c.14-1.587.395-2.993.729-4.106.123-.41.254-.77.388-1.08Zm-1.757.43A8.024 8.024 0 0 0 .485 5.25h3.877c.144-1.725.421-3.28.798-4.537l.068-.22Z" fill="currentColor"/></symbol><symbol id="ip-local-16" viewBox="0 0 16 16"><path fill-rule="evenodd" clip-rule="evenodd" d="M8.736 6.909a3.006 3.006 0 0 1-1.07.073L6.038 9.799a3 3 0 1 1-1.32-.713l1.53-2.65a3 3 0 1 1 3.804-.247l1.632 2.827a3 3 0 1 1-1.422.537L8.736 6.91Z" fill="currentColor"/></symbol><symbol id="issues-16" viewBox="0 0 16 16"><path fill-rule="evenodd" clip-rule="evenodd" d="M2.75 1a.75.75 0 0 0-.75.75V13h-.25a.75.75 0 0 0-.75.75v.5c0 .414.336.75.75.75h2.5a.75.75 0 0 0 .75-.75v-.5a.75.75 0 0 0-.75-.75H4V8h3v1.25c0 .414.336.75.75.75h4.5a.75.75 0 0 0 .75-.75v-4.5a.75.75 0 0 0-.75-.75H9V2.75A.75.75 0 0 0 8.25 2H4v-.25A.75.75 0 0 0 3.25 1h-.5Z" fill="currentColor"/></symbol><symbol id="key-16" viewBox="0 0 16 16"><path fill-rule="evenodd" clip-rule="evenodd" d="m14.53.53.94.94a.75.75 0 0 1 0 1.06L15 3l.5.5a.707.707 0 0 1-1 1L14 4l-1 1 .47.47a.75.75 0 0 1 0 1.06l-.94.94a.75.75 0 0 1-1.06 0L11 7 9.392 8.608a5 5 0 1 1-2-2L13.47.53a.75.75 0 0 1 1.06 0ZM5 13a2 2 0 1 0 0-4 2 2 0 0 0 0 4Z" fill="currentColor"/></symbol><symbol id="dots-16" viewBox="0 0 16 16"><path fill-rule="evenodd" clip-rule="evenodd" d="M6.5 1.75A.75.75 0 0 1 7.25 1h1.5a.75.75 0 0 1 .75.75v1.5a.75.75 0 0 1-.75.75h-1.5a.75.75 0 0 1-.75-.75v-1.5Zm0 5.5a.75.75 0 0 1 .75-.75h1.5a.75.75 0 0 1 .75.75v1.5a.75.75 0 0 1-.75.75h-1.5a.75.75 0 0 1-.75-.75v-1.5Zm3 5.5a.75.75 0 0 0-.75-.75h-1.5a.75.75 0 0 0-.75.75v1.5c0 .414.336.75.75.75h1.5a.75.75 0 0 0 .75-.75v-1.5Z" fill="currentColor"/></symbol><symbol id="link-16" viewBox="0 0 16 16"><g fill="currentColor"><path d="m6.586 12.243 1.59-1.591a.75.75 0 0 1 1.061 0l.354.353a.75.75 0 0 1 0 1.06L8 13.658A4 4 0 0 1 2.343 8l1.591-1.591a.75.75 0 0 1 1.06 0l.354.354a.75.75 0 0 1 0 1.06l-1.59 1.591a2 2 0 1 0 2.828 2.829ZM12.066 9.591a.75.75 0 0 1-1.06 0l-.354-.354a.75.75 0 0 1 0-1.06l1.59-1.591a2 2 0 1 0-2.828-2.829l-1.59 1.591a.75.75 0 0 1-1.061 0l-.354-.353a.75.75 0 0 1 0-1.06L8 2.342A4 4 0 0 1 13.657 8l-1.591 1.591Z"/><path d="M9.945 5.702a.75.75 0 0 0-1.061 0L5.702 8.884a.75.75 0 0 0 0 1.06l.353.354a.75.75 0 0 0 1.061 0l3.182-3.182a.75.75 0 0 0 0-1.06l-.353-.354Z"/></g></symbol><symbol id="load-balancer-16" viewBox="0 0 16 16"><path fill-rule="evenodd" clip-rule="evenodd" d="M10.25 0h-4.5A.75.75 0 0 0 5 .75v3.5c0 .414.336.75.75.75H7v2H2.75a.75.75 0 0 0-.75.75V11H.75a.75.75 0 0 0-.75.75v3.5c0 .414.336.75.75.75h4.5a.75.75 0 0 0 .75-.75v-3.5a.75.75 0 0 0-.75-.75H4V9h8v2h-1.25a.75.75 0 0 0-.75.75v3.5c0 .414.336.75.75.75h4.5a.75.75 0 0 0 .75-.75v-3.5a.75.75 0 0 0-.75-.75H14V7.75a.75.75 0 0 0-.75-.75H9V5h1.25a.75.75 0 0 0 .75-.75V.75a.75.75 0 0 0-.75-.75Z" fill="currentColor"/></symbol><symbol id="logs-16" viewBox="0 0 16 16"><path fill-rule="evenodd" clip-rule="evenodd" d="M.75 3a.75.75 0 0 0-.75.75v2.5c0 .414.336.75.75.75H1v4.25c0 .414.336.75.75.75H6v-2H3V7h.25A.75.75 0 0 0 4 6.25v-2.5A.75.75 0 0 0 3.25 3H.75Zm6 0a.75.75 0 0 0-.75.75v2.5c0 .414.336.75.75.75h8.5a.75.75 0 0 0 .75-.75v-2.5a.75.75 0 0 0-.75-.75h-8.5ZM6 9.75A.75.75 0 0 1 6.75 9h8.5a.75.75 0 0 1 .75.75v2.5a.75.75 0 0 1-.75.75h-8.5a.75.75 0 0 1-.75-.75v-2.5Z" fill="currentColor"/></symbol><symbol id="metrics-16" viewBox="0 0 16 16"><path fill-rule="evenodd" clip-rule="evenodd" d="M9 1.75c0-.414.337-.755.749-.704a6.003 6.003 0 0 1 5.205 5.205c.05.412-.29.749-.704.749h-4.5A.75.75 0 0 1 9 6.25v-4.5ZM1 9a6.001 6.001 0 0 1 5.251-5.954c.412-.05.749.29.749.704v4.5c0 .414.336.75.75.75h4.5c.414 0 .755.337.704.749A6.001 6.001 0 0 1 1 9Z" fill="currentColor"/></symbol><symbol id="networking-16" viewBox="0 0 16 16"><path fill-rule="evenodd" clip-rule="evenodd" d="M6.25 1h-4.5a.75.75 0 0 0-.75.75v4.5c0 .414.336.75.75.75h4.5A.75.75 0 0 0 7 6.25v-4.5A.75.75 0 0 0 6.25 1Zm8 0h-4.5a.75.75 0 0 0-.75.75v4.5c0 .414.336.75.75.75h4.5a.75.75 0 0 0 .75-.75v-4.5a.75.75 0 0 0-.75-.75Zm-4.5 8h4.5a.75.75 0 0 1 .75.75v4.5a.75.75 0 0 1-.75.75h-4.5a.75.75 0 0 1-.75-.75v-4.5A.75.75 0 0 1 9.75 9Zm-6.5 0h-.5a.75.75 0 0 0-.75.75v3.5c0 .414.336.75.75.75h3.5a.75.75 0 0 0 .75-.75v-.5a.75.75 0 0 0-.75-.75H4V9.75A.75.75 0 0 0 3.25 9Z" fill="currentColor"/></symbol><symbol id="new-window-16" viewBox="0 0 16 16"><path fill-rule="evenodd" clip-rule="evenodd" d="M14.25 1h-8.5a.75.75 0 0 0-.75.75v8.5c0 .414.336.75.75.75h8.5a.75.75 0 0 0 .75-.75v-8.5a.75.75 0 0 0-.75-.75ZM7 3.75A.75.75 0 0 1 7.75 3h4.5a.75.75 0 0 1 .75.75v.5a.75.75 0 0 1-.75.75h-4.5A.75.75 0 0 1 7 4.25v-.5ZM1.75 5H4v2H3v6h6v-1h2v2.25a.75.75 0 0 1-.75.75h-8.5a.75.75 0 0 1-.75-.75v-8.5A.75.75 0 0 1 1.75 5Z" fill="currentColor"/></symbol><symbol id="notifications-16" viewBox="0 0 16 16"><path fill-rule="evenodd" clip-rule="evenodd" d="M8 1a1 1 0 0 0-1 1 .125.125 0 0 1-.098.12A5.002 5.002 0 0 0 3 7v2.69a.75.75 0 0 1-.22.53l-.573.573a.707.707 0 0 0 .5 1.207H13.293a.707.707 0 0 0 .5-1.207l-.573-.573a.75.75 0 0 1-.22-.53V7a5.002 5.002 0 0 0-3.902-4.88A.125.125 0 0 1 9 2a1 1 0 0 0-1-1Zm2 12a2 2 0 1 1-4 0h4Z" fill="currentColor"/></symbol><symbol id="organization-16" viewBox="0 0 16 16"><path fill-rule="evenodd" clip-rule="evenodd" d="M7.47.53a.75.75 0 0 1 1.06 0l2.273 2.273a.75.75 0 0 1 0 1.06L8.53 6.137a.75.75 0 0 1-1.06 0L5.197 3.864a.75.75 0 0 1 0-1.061L7.47.53Zm8 8a.75.75 0 0 0 0-1.06l-2.273-2.273a.75.75 0 0 0-1.06 0L9.863 7.47a.75.75 0 0 0 0 1.06l2.272 2.273a.75.75 0 0 0 1.061 0L15.47 8.53Zm-4.667 4.667a.75.75 0 0 0 0-1.06L8.53 9.863a.75.75 0 0 0-1.06 0l-2.273 2.272a.75.75 0 0 0 0 1.061L7.47 15.47a.75.75 0 0 0 1.06 0l2.273-2.273ZM6.136 8.53a.75.75 0 0 0 0-1.06L3.864 5.197a.75.75 0 0 0-1.061 0L.53 7.47a.75.75 0 0 0 0 1.06l2.273 2.273a.75.75 0 0 0 1.06 0L6.137 8.53Z" fill="currentColor"/></symbol><symbol id="overview-16" viewBox="0 0 16 16"><path fill-rule="evenodd" clip-rule="evenodd" d="M7 1.75A.75.75 0 0 0 6.25 1h-4.5a.75.75 0 0 0-.75.75v6.5c0 .414.336.75.75.75h4.5A.75.75 0 0 0 7 8.25v-6.5Zm8 0a.75.75 0 0 0-.75-.75h-4.5a.75.75 0 0 0-.75.75v2.5c0 .414.336.75.75.75h4.5a.75.75 0 0 0 .75-.75v-2.5Zm-14 10a.75.75 0 0 1 .75-.75h4.5a.75.75 0 0 1 .75.75v2.5a.75.75 0 0 1-.75.75h-4.5a.75.75 0 0 1-.75-.75v-2.5Zm14-4a.75.75 0 0 0-.75-.75h-4.5a.75.75 0 0 0-.75.75v6.5c0 .414.336.75.75.75h4.5a.75.75 0 0 0 .75-.75v-6.5Z" fill="currentColor"/></symbol><symbol id="profile-16" viewBox="0 0 16 16"><path fill-rule="evenodd" clip-rule="evenodd" d="M12 13.745a7 7 0 1 0-8-11.49 7 7 0 0 0 8 11.49Zm-7.88-2.59A3.001 3.001 0 0 1 7 9h2c1.363 0 2.514.91 2.88 2.155A4.99 4.99 0 0 1 8 13a4.99 4.99 0 0 1-3.88-1.845ZM10 6a2 2 0 1 1-4 0 2 2 0 0 1 4 0Z" fill="currentColor"/></symbol><symbol id="refresh-16" viewBox="0 0 16 16"><path fill-rule="evenodd" clip-rule="evenodd" d="M6.806 4.182A4 4 0 0 1 11.873 7h-.968a.375.375 0 0 0-.265.64l1.83 1.83a.75.75 0 0 0 1.06 0l1.83-1.83a.375.375 0 0 0-.265-.64h-1.179A6 6 0 0 0 4.32 3.262c-.327.254-.324.733-.031 1.026l.353.353c.293.293.765.286 1.107.053a4 4 0 0 1 1.058-.512ZM2.084 9H.905a.375.375 0 0 1-.265-.64l1.83-1.83a.75.75 0 0 1 1.06 0l1.83 1.83a.375.375 0 0 1-.265.64h-.968a4 4 0 0 0 6.125 2.306c.342-.233.814-.24 1.107.053l.353.353c.293.293.296.772-.031 1.027A6 6 0 0 1 2.084 9Z" fill="currentColor"/></symbol><symbol id="repair-16" viewBox="0 0 16 16"><path fill-rule="evenodd" clip-rule="evenodd" d="M6.703 9.703A5 5 0 0 1 .03 4.443c.06-.545.712-.7 1.1-.312L3.47 6.47a.75.75 0 0 0 1.06 0l1.94-1.94a.75.75 0 0 0 0-1.06L4.13 1.13c-.388-.388-.233-1.04.312-1.1a5 5 0 0 1 5.26 6.672l5.767 5.767a.75.75 0 0 1 0 1.06l-1.94 1.94a.75.75 0 0 1-1.06 0L6.703 9.703Z" fill="currentColor"/></symbol><symbol id="resize-16" viewBox="0 0 16 16"><path fill-rule="evenodd" clip-rule="evenodd" d="M11 .75v.5c0 .414.336.75.75.75H14v2.25c0 .414.336.75.75.75h.5a.75.75 0 0 0 .75-.75V.75a.75.75 0 0 0-.75-.75h-3.5a.75.75 0 0 0-.75.75ZM.75 11h.5a.75.75 0 0 1 .75.75V14h2.25a.75.75 0 0 1 .75.75v.5a.75.75 0 0 1-.75.75H.75a.75.75 0 0 1-.75-.75v-3.5A.75.75 0 0 1 .75 11Zm4-7h6.5a.75.75 0 0 1 .75.75v6.5a.75.75 0 0 1-.75.75h-6.5a.75.75 0 0 1-.75-.75v-6.5A.75.75 0 0 1 4.75 4Z" fill="currentColor"/></symbol><symbol id="router-16" viewBox="0 0 16 16"><path fill-rule="evenodd" clip-rule="evenodd" d="M13.268 3.414a.75.75 0 0 1 0 1.172L9.609 7.513A.375.375 0 0 1 9 7.22V6H3.75A.75.75 0 0 1 3 5.25v-2.5A.75.75 0 0 1 3.75 2H9V.78c0-.314.364-.489.61-.293l3.658 2.927Zm-10.536 8a.75.75 0 0 0 0 1.172l3.659 2.927c.245.196.609.021.609-.293V14h5.25a.75.75 0 0 0 .75-.75v-2.5a.75.75 0 0 0-.75-.75H7V8.78a.375.375 0 0 0-.61-.293l-3.658 2.927Z" fill="currentColor"/></symbol><symbol id="search-16" viewBox="0 0 16 16"><path fill-rule="evenodd" clip-rule="evenodd" d="M11 7a4 4 0 1 1-8 0 4 4 0 0 1 8 0Zm-.524 4.89a6 6 0 1 1 1.414-1.414l2.287 2.287a.75.75 0 0 1 0 1.06l-.354.354a.75.75 0 0 1-1.06 0l-2.287-2.286Z" fill="currentColor"/></symbol><symbol id="security-16" viewBox="0 0 16 16"><path fill-rule="evenodd" clip-rule="evenodd" d="M4.75 7A.75.75 0 0 1 4 6.25V5a4 4 0 1 1 8 0v1.25a.75.75 0 0 1-.75.75h-.5a.75.75 0 0 1-.75-.75V5a2 2 0 1 0-4 0v1.25a.75.75 0 0 1-.75.75h-.5Zm-2 1a.75.75 0 0 0-.75.75v5.5c0 .414.336.75.75.75h10.5a.75.75 0 0 0 .75-.75v-5.5a.75.75 0 0 0-.75-.75H2.75ZM8 12a1 1 0 1 0 0-2 1 1 0 0 0 0 2Z" fill="currentColor"/></symbol><symbol id="servers-16" viewBox="0 0 16 16"><path fill-rule="evenodd" clip-rule="evenodd" d="M15.25 2a.75.75 0 0 1 .75.75v3.5a.75.75 0 0 1-.75.75H.75A.75.75 0 0 1 0 6.25v-3.5A.75.75 0 0 1 .75 2h14.5ZM4 4.5a1.5 1.5 0 1 1-3 0 1.5 1.5 0 0 1 3 0ZM15.25 9a.75.75 0 0 1 .75.75v3.5a.75.75 0 0 1-.75.75H.75a.75.75 0 0 1-.75-.75v-3.5A.75.75 0 0 1 .75 9h14.5ZM4 11.5a1.5 1.5 0 1 1-3 0 1.5 1.5 0 0 1 3 0Z" fill="currentColor"/></symbol><symbol id="settings-16" viewBox="0 0 16 16"><path fill-rule="evenodd" clip-rule="evenodd" d="M8.372.213a.75.75 0 0 0-.744 0l-6.25 3.571A.75.75 0 0 0 1 4.435v7.13c0 .269.144.517.378.65l6.25 3.572a.75.75 0 0 0 .744 0l6.25-3.571a.75.75 0 0 0 .378-.651v-7.13a.75.75 0 0 0-.378-.65L8.372.212ZM8 12a4 4 0 1 0 0-8 4 4 0 0 0 0 8Z" fill="currentColor"/></symbol><symbol id="show-16" viewBox="0 0 16 16"><path fill-rule="evenodd" clip-rule="evenodd" d="M.184 7.674C.852 6.563 3.357 3 8 3s7.148 3.563 7.816 4.674a.63.63 0 0 1 0 .652C15.148 9.437 12.643 13 8 13S.852 9.437.184 8.326a.63.63 0 0 1 0-.652ZM8 11a3 3 0 1 0 0-6 3 3 0 0 0 0 6Z" fill="currentColor"/></symbol><symbol id="snapshots-16" viewBox="0 0 16 16"><path fill-rule="evenodd" clip-rule="evenodd" d="m7.705 1.127-5.9 2.528a.375.375 0 0 0 0 .69l5.9 2.528a.75.75 0 0 0 .59 0l5.9-2.528a.375.375 0 0 0 0-.69l-5.9-2.528a.75.75 0 0 0-.59 0ZM1 7.505v-.368a.75.75 0 0 1 1.045-.689l5.66 2.425a.75.75 0 0 0 .59 0l5.66-2.425a.75.75 0 0 1 1.045.69v.367a.75.75 0 0 1-.455.69l-6.25 2.678a.75.75 0 0 1-.59 0l-6.25-2.678A.75.75 0 0 1 1 7.505Zm0 3.632v.368c0 .3.179.572.455.69l6.25 2.678a.75.75 0 0 0 .59 0l6.25-2.678a.75.75 0 0 0 .455-.69v-.368a.75.75 0 0 0-1.045-.689l-5.66 2.425a.75.75 0 0 1-.59 0l-5.66-2.425a.75.75 0 0 0-1.045.69Z" fill="currentColor"/></symbol><symbol id="software-update-16" viewBox="0 0 16 16"><path fill-rule="evenodd" clip-rule="evenodd" d="M8.53 1.53a.75.75 0 0 0-1.06 0L5.28 3.72A.75.75 0 0 0 5.81 5h4.38a.75.75 0 0 0 .53-1.28L8.53 1.53ZM1 7.75A.75.75 0 0 1 1.75 7h12.5a.75.75 0 0 1 .75.75v6.5a.75.75 0 0 1-.75.75H1.75a.75.75 0 0 1-.75-.75v-6.5Zm6.47 1.78a.75.75 0 0 1 1.06 0l2.19 2.19a.75.75 0 0 1-.53 1.28H5.81a.75.75 0 0 1-.53-1.28l2.19-2.19Z" fill="currentColor"/></symbol><symbol id="storage-16" viewBox="0 0 16 16"><path fill-rule="evenodd" clip-rule="evenodd" d="M11.625 1a.75.75 0 0 1 .6.3l2.625 3.5a.75.75 0 0 1 .15.45v9a.75.75 0 0 1-.75.75H1.75a.75.75 0 0 1-.75-.75V1.75A.75.75 0 0 1 1.75 1h.5a.75.75 0 0 1 .75.75V5h7V1.75a.75.75 0 0 1 .75-.75h.875ZM8 12a2 2 0 1 0 0-4 2 2 0 0 0 0 4Z" fill="currentColor"/></symbol><symbol id="subnet-16" viewBox="0 0 16 16"><path fill-rule="evenodd" clip-rule="evenodd" d="M.75 0h4.5A.75.75 0 0 1 6 .75V2h4V.75a.75.75 0 0 1 .75-.75h4.5a.75.75 0 0 1 .75.75v4.5a.75.75 0 0 1-.75.75H14v4h1.25a.75.75 0 0 1 .75.75v4.5a.75.75 0 0 1-.75.75h-4.5a.75.75 0 0 1-.75-.75V14H6v1.25a.75.75 0 0 1-.75.75H.75a.75.75 0 0 1-.75-.75v-4.5A.75.75 0 0 1 .75 10H2V6H.75A.75.75 0 0 1 0 5.25V.75A.75.75 0 0 1 .75 0ZM6 12h4v-1.25a.75.75 0 0 1 .75-.75H12V6h-1.25a.75.75 0 0 1-.75-.75V4H6v1.25a.75.75 0 0 1-.75.75H4v4h1.25a.75.75 0 0 1 .75.75V12Z" fill="currentColor"/></symbol><symbol id="tags-16" viewBox="0 0 16 16"><path fill-rule="evenodd" clip-rule="evenodd" d="M15.78 1.78c.141.141.22.332.22.53v3.38a.75.75 0 0 1-.22.53l-9.25 9.25a.75.75 0 0 1-1.06 0L.53 10.53a.75.75 0 0 1 0-1.06L9.78.22a.75.75 0 0 1 .53-.22h3.38a.75.75 0 0 1 .53.22l1.56 1.56ZM12 6a2 2 0 1 0 0-4 2 2 0 0 0 0 4Z" fill="currentColor"/></symbol><symbol id="terminal-16" viewBox="0 0 16 16"><path fill-rule="evenodd" clip-rule="evenodd" d="M.75 1a.75.75 0 0 0-.75.75v12.5c0 .414.336.75.75.75h14.5a.75.75 0 0 0 .75-.75V1.75a.75.75 0 0 0-.75-.75H.75Zm2.335 9.457A.75.75 0 0 1 2 9.787v-.323a.75.75 0 0 1 .415-.671L6 7 2.415 5.207A.75.75 0 0 1 2 4.537v-.323a.75.75 0 0 1 1.085-.671l4.5 2.25a.75.75 0 0 1 .415.67v1.073a.75.75 0 0 1-.415.671l-4.5 2.25ZM8 11.75a.75.75 0 0 1 .75-.75h4.5a.75.75 0 0 1 .75.75v.5a.75.75 0 0 1-.75.75h-4.5a.75.75 0 0 1-.75-.75v-.5Z" fill="currentColor"/></symbol><symbol id="time-16" viewBox="0 0 16 16"><path fill-rule="evenodd" clip-rule="evenodd" d="M8 15A7 7 0 1 0 8 1a7 7 0 0 0 0 14ZM7 3.75A.75.75 0 0 1 7.75 3h.5a.75.75 0 0 1 .75.75V7h2.25a.75.75 0 0 1 .75.75v.5a.75.75 0 0 1-.75.75h-3.5A.75.75 0 0 1 7 8.25v-4.5Z" fill="currentColor"/></symbol><symbol id="person-16" viewBox="0 0 16 16"><path fill-rule="evenodd" clip-rule="evenodd" d="M12 5a4 4 0 1 1-8 0 4 4 0 0 1 8 0ZM1 14.368A3.368 3.368 0 0 1 4.368 11h7.264A3.368 3.368 0 0 1 15 14.368a.632.632 0 0 1-.632.632H1.632A.632.632 0 0 1 1 14.368Z" fill="currentColor"/></symbol><symbol id="person-group-16" viewBox="0 0 16 16"><path fill-rule="evenodd" clip-rule="evenodd" d="M10.5 7a3.5 3.5 0 1 0 0-7 3.5 3.5 0 0 0 0 7ZM9 9a3 3 0 0 0-3 3v1.25c0 .414.336.75.75.75h7.5a.75.75 0 0 0 .75-.75V12a3 3 0 0 0-3-3H9ZM5.508 3.212A4.98 4.98 0 0 0 6.68 6.726 2.5 2.5 0 0 1 2 5.5a2.5 2.5 0 0 1 3.508-2.288ZM5.168 10a4.977 4.977 0 0 0-.668 2.5V14H1.75a.75.75 0 0 1-.75-.75V13a3 3 0 0 1 3-3h1.169Z" fill="currentColor"/></symbol><symbol id="like-16" viewBox="0 0 16 16"><path fill-rule="evenodd" clip-rule="evenodd" d="M7.604 1.495 4 6v9h7.536a.75.75 0 0 0 .671-.415L15 9V8a2 2 0 0 0-2-2H9l.611-2.446a1.997 1.997 0 0 0-1.044-2.27.784.784 0 0 0-.963.21ZM1.75 6a.75.75 0 0 0-.75.75v7.5c0 .414.336.75.75.75H3V6H1.75Z" fill="currentColor"/></symbol><symbol id="dislike-16" viewBox="0 0 16 16"><path fill-rule="evenodd" clip-rule="evenodd" d="M8.379 14.527 12 10V1H4.464a.75.75 0 0 0-.671.415L1 7v1a2 2 0 0 0 2 2h4l-.61 2.444a2 2 0 0 0 1.045 2.273l.023.012a.75.75 0 0 0 .92-.202ZM14.25 10a.75.75 0 0 0 .75-.75v-7.5a.75.75 0 0 0-.75-.75H13v9h1.25Z" fill="currentColor"/></symbol><symbol id="add-12" viewBox="0 0 12 12"><path fill-rule="evenodd" clip-rule="evenodd" d="M6.75.667A.667.667 0 0 0 6.083 0h-.166a.667.667 0 0 0-.667.667V5.25H.667A.667.667 0 0 0 0 5.917v.166c0 .368.299.667.667.667H5.25v4.583c0 .368.299.667.667.667h.166a.667.667 0 0 0 .667-.667V6.75h4.583A.667.667 0 0 0 12 6.083v-.166a.667.667 0 0 0-.667-.667H6.75V.667Z" fill="currentColor"/></symbol><symbol id="add-roundel-12" viewBox="0 0 12 12"><path fill-rule="evenodd" clip-rule="evenodd" d="M6 12A6 6 0 1 0 6 0a6 6 0 0 0 0 12Zm.083-9.5c.368 0 .667.299.667.667V5.25h2.083c.368 0 .667.299.667.667v.166a.667.667 0 0 1-.667.667H6.75v2.083a.667.667 0 0 1-.667.667h-.166a.667.667 0 0 1-.667-.667V6.75H3.167a.667.667 0 0 1-.667-.667v-.166c0-.368.299-.667.667-.667H5.25V3.167c0-.368.299-.667.667-.667h.166Z" fill="currentColor"/></symbol><symbol id="checkmark-12" viewBox="0 0 12 12"><path fill-rule="evenodd" clip-rule="evenodd" d="M10.492 2.651c.28.242.31.665.067.944L5.447 9.463a.667.667 0 0 1-.974.035L1.475 6.516a.667.667 0 0 1 0-.946l.237-.235a.667.667 0 0 1 .94 0l2.24 2.226L9.3 2.501a.667.667 0 0 1 .938-.068l.253.218Z" fill="currentColor"/></symbol><symbol id="close-12" viewBox="0 0 17 17"><path fill-rule="evenodd" clip-rule="evenodd" d="M12.809 5.254a.668.668 0 0 0 0-.945l-.118-.118a.668.668 0 0 0-.945 0L8.5 7.437 5.254 4.191a.668.668 0 0 0-.945 0l-.118.118a.668.668 0 0 0 0 .945L7.437 8.5l-3.246 3.246a.668.668 0 0 0 0 .945l.118.118c.26.26.684.26.945 0L8.5 9.562l3.246 3.247c.261.26.684.26.945 0l.118-.118a.668.668 0 0 0 0-.945L9.562 8.5l3.247-3.246Z" fill="currentColor"/></symbol><symbol id="carat-right" viewBox="0 0 12 12"><path d="M8.807 6.597a.667.667 0 0 0 0-1.194l-5.842-2.92A.667.667 0 0 0 2 3.079v5.842c0 .496.522.818.965.596l5.842-2.92Z" fill="currentColor"/></symbol><symbol id="carat-up" viewBox="0 0 12 12"><path d="M6.597 3.193a.667.667 0 0 0-1.194 0l-2.92 5.842c-.222.443.1.965.596.965h5.842a.667.667 0 0 0 .596-.965l-2.92-5.842Z" fill="currentColor"/></symbol><symbol id="carat-down" viewBox="0 0 12 12"><path d="M5.403 8.807a.667.667 0 0 0 1.194 0l2.92-5.842A.667.667 0 0 0 8.921 2H3.079a.667.667 0 0 0-.596.965l2.92 5.842Z" fill="currentColor"/></symbol><symbol id="carat-left" viewBox="0 0 12 12"><path d="M3.193 5.403a.667.667 0 0 0 0 1.194l5.842 2.92c.443.222.965-.1.965-.596V3.079a.667.667 0 0 0-.965-.596l-5.842 2.92Z" fill="currentColor"/></symbol><symbol id="clipboard-12" viewBox="0 0 12 12"><path fill-rule="evenodd" clip-rule="evenodd" d="M4.67 0C4.3 0 4 .3 4 .67v.66a.667.667 0 0 0 .67.67h2.66A.668.668 0 0 0 8 1.33V.67C8 .3 7.7 0 7.33 0H4.67Zm-3 1h.83v.33A2.17 2.17 0 0 0 4.67 3.5h2.66A2.17 2.17 0 0 0 9.5 1.33V1h.83c.37 0 .67.3.67.67v9.66c0 .37-.3.67-.67.67H1.67a.67.67 0 0 1-.67-.67V1.67c0-.37.3-.67.67-.67Z" fill="currentColor"/></symbol><symbol id="disabled-12" viewBox="0 0 12 12"><path fill-rule="evenodd" clip-rule="evenodd" d="M6 12A6 6 0 1 0 6 0a6 6 0 0 0 0 12ZM3.167 6.75a.667.667 0 0 1-.667-.667v-.166c0-.368.299-.667.667-.667h5.666c.368 0 .667.299.667.667v.166a.667.667 0 0 1-.667.667H3.167Z" fill="currentColor"/></symbol><symbol id="error-12" viewBox="0 0 12 12"><path fill-rule="evenodd" clip-rule="evenodd" d="M6 12A6 6 0 1 0 6 0a6 6 0 0 0 0 12Zm.083-9c.368 0 .667.299.667.667v2.666A.667.667 0 0 1 6.083 7h-.166a.667.667 0 0 1-.667-.667V3.667c0-.368.299-.667.667-.667h.166Zm0 5c.368 0 .667.299.667.667v.166a.667.667 0 0 1-.667.667h-.166a.667.667 0 0 1-.667-.667v-.166c0-.368.299-.667.667-.667h.166Z" fill="currentColor"/></symbol><symbol id="filter-12" viewBox="0 0 12 12"><path fill-rule="evenodd" clip-rule="evenodd" d="M0 1.667C0 1.299.299 1 .667 1h10.666c.368 0 .667.299.667.667v.666a.667.667 0 0 1-.667.667H.667A.667.667 0 0 1 0 2.333v-.666Zm2 4C2 5.299 2.299 5 2.667 5h6.666c.368 0 .667.299.667.667v.666A.667.667 0 0 1 9.333 7H2.667A.667.667 0 0 1 2 6.333v-.666Zm6 4A.667.667 0 0 0 7.333 9H4.667A.667.667 0 0 0 4 9.667v.666c0 .368.299.667.667.667h2.666A.667.667 0 0 0 8 10.333v-.666Z" fill="currentColor"/></symbol><symbol id="key-12" viewBox="0 0 12 12"><path fill-rule="evenodd" clip-rule="evenodd" d="m10.972.472.556.556c.26.26.26.683 0 .944l-.278.278.278.278c.26.26.26.683 0 .944l-.056.056a.667.667 0 0 1-.944 0l-.278-.278-1 1 .278.278c.26.26.26.683 0 .944l-.056.056a.667.667 0 0 1-.944 0L8.25 5.25 7.044 6.456a3.75 3.75 0 1 1-1.5-1.5L10.028.472c.26-.26.683-.26.944 0ZM3.75 10a1.75 1.75 0 1 0 0-3.5 1.75 1.75 0 0 0 0 3.5Z" fill="currentColor"/></symbol><symbol id="loader-12" viewBox="0 0 12 12"><circle cx="6" cy="6" r="5.25" stroke="#1C2225" stroke-width="1.5"/><path fill-rule="evenodd" clip-rule="evenodd" d="M8.25 2.103a4.5 4.5 0 0 0-1.585-.554C6.3 1.495 6 1.201 6 .833V.667c0-.368.3-.67.666-.63a6 6 0 0 1 4.831 8.367c-.147.337-.559.446-.878.262l-.144-.083c-.319-.185-.423-.591-.288-.934A4.5 4.5 0 0 0 8.25 2.103Z" fill="currentColor"/></symbol><symbol id="more-12" viewBox="0 0 12 12"><path fill-rule="evenodd" clip-rule="evenodd" d="M5 1.667C5 1.299 5.299 1 5.667 1h.666c.368 0 .667.299.667.667v.666A.667.667 0 0 1 6.333 3h-.666A.667.667 0 0 1 5 2.333v-.666Zm0 4C5 5.299 5.299 5 5.667 5h.666c.368 0 .667.299.667.667v.666A.667.667 0 0 1 6.333 7h-.666A.667.667 0 0 1 5 6.333v-.666Zm2 4A.667.667 0 0 0 6.333 9h-.666A.667.667 0 0 0 5 9.667v.666c0 .368.299.667.667.667h.666A.667.667 0 0 0 7 10.333v-.666Z" fill="currentColor"/></symbol><symbol id="next-arrow-12" viewBox="0 0 12 12"><path d="M3.47 1.47a.75.75 0 0 1 1.06 0l4 4a.75.75 0 0 1 0 1.06l-4 4a.75.75 0 0 1-1.06-1.06L6.94 6 3.47 2.53a.75.75 0 0 1 0-1.06Z" fill="currentColor"/></symbol><symbol id="prev-arrow-12" viewBox="0 0 12 12"><path d="M8.53 1.47a.75.75 0 0 0-1.06 0l-4 4a.75.75 0 0 0 0 1.06l4 4a.75.75 0 0 0 1.06-1.06L5.06 6l3.47-3.47a.75.75 0 0 0 0-1.06Z" fill="currentColor"/></symbol><symbol id="open-link-12" viewBox="0 0 12 12"><path fill-rule="evenodd" clip-rule="evenodd" d="M1.667 1H5.02l.99.99.01.01H2v8h8V5.98l.01.01.99.99v3.353a.667.667 0 0 1-.667.667H1.667A.667.667 0 0 1 1 10.333V1.667C1 1.299 1.299 1 1.667 1ZM10 3.97V4l1 1V1.667A.667.667 0 0 0 10.333 1H7l1 1h.03a.69.69 0 0 0 .109.139L9.86 3.86A.69.69 0 0 0 10 3.97Z" fill="currentColor"/></symbol><symbol id="repair-12" viewBox="0 0 12 12"><path fill-rule="evenodd" clip-rule="evenodd" d="M5.646 7.646a4 4 0 0 1-5.58-4.375c.085-.458.64-.565.97-.236l1.728 1.73c.13.13.342.13.472 0l1.528-1.53a.333.333 0 0 0 0-.47l-1.729-1.73c-.33-.33-.222-.884.237-.969a4 4 0 0 1 4.375 5.58l3.881 3.882c.26.26.26.683 0 .944l-1.056 1.056a.667.667 0 0 1-.944 0L5.646 7.646Z" fill="currentColor"/></symbol><symbol id="security-12" viewBox="0 0 12 12"><path fill-rule="evenodd" clip-rule="evenodd" d="M4 5h4V4a2 2 0 1 0-4 0v1ZM2 5h-.333A.667.667 0 0 0 1 5.667v5.666c0 .368.299.667.667.667h8.666a.667.667 0 0 0 .667-.667V5.667A.667.667 0 0 0 10.333 5H10V4a4 4 0 1 0-8 0v1Z" fill="currentColor"/></symbol><symbol id="success-12" viewBox="0 0 12 12"><path fill-rule="evenodd" clip-rule="evenodd" d="M6 12A6 6 0 1 0 6 0a6 6 0 0 0 0 12Zm3.111-7.003a.667.667 0 0 0-.05-.941l-.123-.112a.667.667 0 0 0-.942.05L5.36 6.924 4 5.632a.667.667 0 0 0-.943.023l-.114.12a.667.667 0 0 0 .023.943l1.979 1.885c.272.26.704.242.955-.037l3.211-3.567Z" fill="currentColor"/></symbol><symbol id="unauthorized-12" viewBox="0 0 12 12"><path fill-rule="evenodd" clip-rule="evenodd" d="M6 12A6 6 0 1 0 6 0a6 6 0 0 0 0 12ZM4.472 8.528a.667.667 0 0 1-.944 0l-.056-.056a.667.667 0 0 1 0-.944l4.056-4.056c.26-.26.683-.26.944 0l.056.056c.26.26.26.683 0 .944L4.472 8.528Z" fill="currentColor"/></symbol><symbol id="warning-12" viewBox="0 0 12 12"><path fill-rule="evenodd" clip-rule="evenodd" d="m6.597 1.193 4.92 9.842a.667.667 0 0 1-.596.965H1.079a.667.667 0 0 1-.596-.965l4.92-9.842a.667.667 0 0 1 1.194 0ZM6.083 4c.368 0 .667.299.667.667v2.666A.667.667 0 0 1 6.083 8h-.166a.667.667 0 0 1-.667-.667V4.667c0-.368.299-.667.667-.667h.166Zm0 5c.368 0 .667.299.667.667v.166a.667.667 0 0 1-.667.667h-.166a.667.667 0 0 1-.667-.667v-.166c0-.368.299-.667.667-.667h.166Z" fill="currentColor"/></symbol><symbol id="question-12" viewBox="0 0 12 12"><path fill-rule="evenodd" clip-rule="evenodd" d="M6 12A6 6 0 1 0 6 0a6 6 0 0 0 0 12ZM4.982 3.96c-.063.095-.11.198-.145.3-.09.261-.31.49-.587.49h-.5c-.276 0-.502-.225-.455-.497a2.97 2.97 0 0 1 .434-1.118C4.151 2.495 4.885 2 6 2c1.04 0 1.77.355 2.223.902.427.517.527 1.108.527 1.466 0 .598-.182 1.064-.522 1.417-.268.278-.61.45-.826.558l-.062.031c-.253.13-.37.206-.447.3a.518.518 0 0 0-.094.18c-.066.211-.228.396-.449.396h-.43c-.37 0-.683-.304-.6-.665.076-.334.214-.619.412-.861.298-.365.681-.56.928-.686.292-.149.407-.21.487-.293.035-.036.103-.112.103-.377 0-.12-.04-.337-.184-.51C6.95 3.715 6.678 3.5 6 3.5c-.604 0-.87.236-1.018.46Zm.143 4.96c0-.37.3-.67.67-.67h.41c.37 0 .67.3.67.67v.41c0 .37-.3.67-.67.67h-.41a.67.67 0 0 1-.67-.67v-.41Z" fill="currentColor"/></symbol><symbol id="select-arrows-6" viewBox="0 0 6 14"><path fill-rule="evenodd" clip-rule="evenodd" d="M3.322.536a.375.375 0 0 0-.644 0L.341 4.432C.19 4.682.37 5 .662 5h4.676a.375.375 0 0 0 .321-.568L3.322.536Zm-.644 12.928a.375.375 0 0 0 .644 0l2.337-3.896A.375.375 0 0 0 5.338 9H.662a.375.375 0 0 0-.321.568l2.337 3.896Z" fill="currentColor"/></symbol><symbol id="unread-indicator-6" viewBox="0 0 6 6"><circle cx="3" cy="3" r="3" fill="currentColor"/></symbol><symbol id="close-8" viewBox="0 0 8 8"><path fill-rule="evenodd" clip-rule="evenodd" d="M6.21 6.917a.375.375 0 0 0 .53 0l.177-.177a.375.375 0 0 0 0-.53L4.707 4l2.21-2.21a.375.375 0 0 0 0-.53l-.177-.177a.375.375 0 0 0-.53 0L4 3.293l-2.21-2.21a.375.375 0 0 0-.53 0l-.177.177a.375.375 0 0 0 0 .53L3.293 4l-2.21 2.21a.375.375 0 0 0 0 .53l.177.177a.375.375 0 0 0 .53 0L4 4.707l2.21 2.21Z" fill="currentColor"/></symbol><symbol id="distro-alpine" viewBox="0 0 16 16"><path fill-rule="evenodd" clip-rule="evenodd" d="M6.073 8.004v1.46c-.063-.002-.132-.008-.207-.021a1.601 1.601 0 0 1-.247-.067 2.29 2.29 0 0 1-.285-.124 3.137 3.137 0 0 1-.323-.196l1.062-1.052Zm5.466 1.36c-.019-.012-.03-.02-.031-.022l.01.007-.719-.704-1.231-1.219-.193.19-.915-.9L9.56 5.627l2.67 2.651.806.782a3.15 3.15 0 0 1-.33.199 2.208 2.208 0 0 1-.288.124c-.089.031-.172.052-.248.065a1.23 1.23 0 0 1-.209.019.99.99 0 0 1-.197-.019.769.769 0 0 1-.224-.085ZM8.388 6.787l-.004.004-1.58-1.61-3.968 3.88c.117.08.226.145.329.199.102.053.199.094.288.124.09.031.172.052.248.065.077.013.146.019.21.019a.998.998 0 0 0 .197-.019.738.738 0 0 0 .223-.085c.02-.012.03-.02.031-.022l1.796-1.777.64-.607 1.778 1.758.62.63a.554.554 0 0 0 .116.065c.036.016.083.031.138.043a.998.998 0 0 0 .198.018c.063 0 .132-.005.208-.018a1.59 1.59 0 0 0 .248-.065 2.22 2.22 0 0 0 .29-.125 3.15 3.15 0 0 0 .328-.199L9.31 7.695l-.002.002-.92-.91ZM15 8l-3.498-6H4.498L1 8l3.498 6h7.004L15 8Z" fill="currentColor"/></symbol><symbol id="distro-arch" viewBox="0 0 16 16"><path d="M7.499 0C6.83 1.637 6.428 2.708 5.685 4.297a11.712 11.712 0 0 0 1.924 1.681c-.977-.402-1.644-.806-2.142-1.224C4.516 6.739 3.025 9.567 0 15.003c2.378-1.372 4.22-2.22 5.939-2.541a4.36 4.36 0 0 1-.113-1.019l.002-.076c.038-1.523.83-2.695 1.77-2.615.938.08 1.667 1.38 1.63 2.902a4.203 4.203 0 0 1-.096.819c1.699.332 3.523 1.176 5.868 2.53-.462-.851-.876-1.619-1.27-2.35-.62-.481-1.268-1.108-2.59-1.786.909.237 1.559.509 2.066.813C9.198 4.217 8.873 3.225 7.498 0Z" fill="currentColor"/></symbol><symbol id="distro-centos" viewBox="0 0 16 16"><path d="M8.05 0 5.923 2.155h-3.69v3.642L0 8.007l2.233 2.21v3.614h3.582L8.005 16l2.19-2.17h3.62v-3.602L16 8.018l-2.155-2.18V2.181h-3.638L8.05 0Zm0 .502 1.66 1.68H8.585V6.5l-.533.54-.54-.547V2.155H6.418L8.051.502ZM2.585 2.507h2.989l-1.25 1.264L7.16 6.64v.438h-.532L3.783 4.261 2.584 5.448v-2.94Zm3.485 0h1.09v3.63l-2.34-2.366 1.25-1.264Zm2.868.029h1.124l1.22 1.235-2.344 2.372V2.536Zm1.62 0h2.936V5.48l-1.22-1.234-2.827 2.86h-.51v-.462l2.841-2.874-1.22-1.235Zm1.716 2.212 1.22 1.236v1.123H9.942l2.331-2.359Zm-8.49.009 2.344 2.32H2.584V5.946l1.2-1.188ZM2.232 6.293v1.138h4.251l.581.575-.521.516h-4.31V9.72L.502 8.007l1.73-1.714Zm11.613.046 1.659 1.678-1.689 1.71V8.521H9.542l-.5-.505.55-.557h4.253V6.34Zm-6.334.655.54.547.124-.126L8.584 7v.46h.512l-.55.557.5.505h-.48v.542l-.56-.557-.495.49v-.474h-.466l.52-.516-.125-.125-.455-.45h.526v-.438ZM2.584 8.876h3.601l-2.402 2.38-1.198-1.188-.001-1.192Zm4.103 0h.472v.47l-2.936 2.907 1.234 1.223H2.584v-2.91l1.199 1.186 2.904-2.876Zm2.232 0h.476l2.878 2.912.124-.126 1.066-1.08v2.894h-2.91l1.235-1.223-.125-.124L8.919 9.41v-.535Zm.973 0h3.571v1.205l-1.19 1.204-2.381-2.409Zm-1.887.128.562.556v4.27h1.127l-1.688 1.673-1.689-1.673h1.194V9.495l.494-.49Zm-.846.839v3.633h-1.2l-1.234-1.222 2.434-2.411Zm1.76.065 2.368 2.345-1.236 1.224H8.918v-3.57Z" fill="currentColor"/></symbol><symbol id="distro-debian" viewBox="0 0 16 16"><path d="M9.768 8.457c-.27 0 .054.133.404.187.095-.067.182-.147.263-.22-.219.047-.444.058-.667.033Zm1.443-.354c.155-.22.27-.46.316-.707-.04.18-.134.334-.222.487-.506.314-.047-.18 0-.373-.54.673-.074.4-.094.593Zm.525-1.367c.034-.48-.094-.333-.134-.147.047.027.087.334.134.147ZM8.756.206c.135.027.304.047.283.08.156-.033.19-.066-.29-.08h.007Zm.283.08-.1.02L9.032.3V.287h.006Zm4.464 6.63c.014.427-.135.634-.256 1l-.236.12c-.189.36.02.234-.115.52-.296.261-.903.815-1.092.868-.135 0 .094-.167.128-.227-.398.267-.324.4-.924.567l-.02-.04c-1.497.694-3.574-.68-3.54-2.561-.02.113-.047.087-.08.133a2.347 2.347 0 0 1 .306-1.374c.24-.417.604-.752 1.042-.96a2.287 2.287 0 0 1 2.515.32 2.273 2.273 0 0 0-1.834-.867c-.796.007-1.538.507-1.787 1.047-.405.254-.452.98-.627 1.107-.243 1.734.445 2.481 1.605 3.362.182.127.054.14.08.233a3.165 3.165 0 0 1-1.031-.773c.155.22.317.44.54.607-.371-.12-.857-.868-.999-.9.628 1.106 2.55 1.947 3.547 1.533a4.225 4.225 0 0 1-1.57-.187c-.223-.106-.52-.34-.473-.38a3.95 3.95 0 0 0 3.978-.56c.297-.233.627-.627.722-.634-.135.214.027.107-.081.294.296-.48-.135-.2.31-.827l.162.22c-.06-.4.499-.88.445-1.507.128-.2.135.2 0 .647.195-.494.054-.567.101-.974.054.133.121.28.155.42-.121-.467.135-.8.189-1.067-.06-.033-.189.2-.216-.354 0-.246.068-.133.095-.186-.054-.034-.176-.214-.257-.574.054-.087.149.22.23.227-.054-.28-.135-.5-.135-.72-.23-.454-.081.066-.27-.2-.23-.728.202-.167.23-.494.363.513.566 1.307.66 1.64-.067-.4-.189-.8-.33-1.173.107.046-.176-.827.141-.247a5.23 5.23 0 0 0-2.468-2.928c.122.113.284.26.223.28-.506-.3-.418-.32-.492-.447-.412-.166-.439.014-.715 0-.782-.413-.93-.366-1.645-.633l.033.153c-.519-.167-.606.067-1.166 0-.034-.027.182-.093.357-.12-.499.067-.472-.093-.964.02.115-.087.243-.14.371-.213-.405.026-.971.233-.796.046-.667.3-1.847.714-2.508 1.328l-.02-.147c-.304.36-1.322 1.074-1.403 1.54l-.087.02c-.155.267-.257.567-.385.84-.202.348-.303.134-.27.188-.404.813-.606 1.5-.782 2.067.122.18 0 1.1.048 1.84-.203 3.642 2.589 7.184 5.637 8.004.451.154 1.112.154 1.678.167-.667-.187-.755-.1-1.402-.327-.472-.213-.573-.467-.903-.753l.134.233c-.654-.227-.384-.28-.917-.447l.142-.18c-.21-.02-.56-.353-.654-.54l-.23.006c-.276-.333-.424-.58-.41-.773l-.075.133c-.087-.14-1.025-1.267-.54-1.007-.087-.08-.208-.133-.336-.367l.094-.113c-.236-.293-.432-.68-.418-.8.135.16.216.2.303.22-.593-1.448-.627-.08-1.078-1.468l.1-.013c-.067-.107-.12-.227-.175-.34l.04-.4c-.424-.494-.12-2.068-.06-2.935.047-.36.358-.733.594-1.32l-.142-.027c.27-.474 1.578-1.914 2.185-1.84.29-.368-.061 0-.122-.094.647-.66.85-.467 1.281-.587.472-.267-.404.107-.182-.1.81-.2.573-.467 1.632-.567.108.067-.263.093-.35.173.674-.326 2.123-.246 3.074.18 1.1.514 2.333 2.008 2.38 3.422l.054.013c-.027.567.088 1.214-.115 1.808l.135-.28.007.006ZM6.841 8.824l-.033.186c.175.234.317.487.539.674-.162-.313-.283-.44-.506-.867v.007Zm.418-.02c-.094-.1-.148-.227-.209-.347.054.213.176.4.29.587l-.08-.24Zm7.377-1.588-.047.1a4.64 4.64 0 0 1-.466 1.474c.27-.487.439-1.027.506-1.574h.007ZM8.803.08c.183-.067.445-.033.641-.08-.25.02-.499.033-.742.067l.101.013ZM2.438 3.428c.048.38-.29.534.075.28.202-.44-.075-.12-.068-.28h-.007Zm-.424 1.774c.08-.26.1-.413.134-.56-.236.293-.114.353-.134.553" fill="currentColor"/></symbol><symbol id="distro-fedora" viewBox="0 0 16 16"><path d="M8.003 0C4.86-.042 1.829 1.976.638 4.879.048 6.18-.03 7.622.008 9.028c.006 1.778-.014 3.556.01 5.332.075 1.028 1.102 1.743 2.088 1.628 2.172-.013 4.344.029 6.514-.024 3.193-.202 6.104-2.53 7.018-5.593.934-2.896.02-6.275-2.26-8.295A7.979 7.979 0 0 0 8.003.001Zm2.347 1.895c.27-.006.538.022.798.078.371.191.63.551.601.922-.038.5-.391.832-.919.831a1.968 1.968 0 0 0-.48-.06C9.2 3.631 8.238 4.74 8.37 5.87c.015.53-.03 1.067.021 1.594.222.305.658.12.983.17.185 0 .375.006.567.006a.09.09 0 0 0 .028.006.86.86 0 0 1 .861.863.86.86 0 0 1-.866.863.093.093 0 0 0-.04.009c-.518.002-1.036 0-1.554.001-.044 1.078.132 2.184-.206 3.227-.576 1.803-2.647 2.89-4.457 2.413-.358-.19-.606-.527-.578-.89.04-.53.437-.872 1.021-.826.05.004.075.008.112.013.477.093.985.023 1.405-.26.751-.43 1.001-1.319.93-2.129-.013-.458.03-.922-.021-1.377-.222-.304-.656-.12-.982-.17H5.06a.091.091 0 0 0-.043-.01.86.86 0 0 1-.866-.864c0-.48.383-.86.86-.863a.09.09 0 0 0 .042-.011h1.545c.039-1.005-.106-2.03.142-3.016.432-1.584 1.967-2.746 3.61-2.724Zm.47.035.087.016-.087-.016Zm.816.187a3.9 3.9 0 0 1 2.167 2.08 54.037 54.037 0 0 1-1.936-1.728 1.176 1.176 0 0 0-.23-.352h-.001Zm.3.623a57.922 57.922 0 0 0 1.978 1.73c-.01-.029-.022-.057-.033-.086.11.299.177.612.2.935-.772-.64-1.525-1.3-2.26-1.984l.01-.022a1.124 1.124 0 0 0 .107-.535c0-.013-.001-.025-.003-.038h.001Zm.013.13c-.038.345-.038.345 0 0Zm-.209.597c.766.701 1.55 1.381 2.354 2.04 0 .047.01.093.008.14.002.182-.011.363-.04.543a52.355 52.355 0 0 1-2.721-2.39c.16-.075.297-.19.4-.333h-.001Zm.35 1.22a55.299 55.299 0 0 0 1.946 1.657 3.47 3.47 0 0 1-.161.575 49.3 49.3 0 0 1-1.538-1.309l.001.037c0 .05-.003.101-.007.15.47.409.96.825 1.494 1.257a3.754 3.754 0 0 1-.253.502c-.465-.381-.923-.77-1.374-1.168a2.086 2.086 0 0 0-.107-1.7v-.001Zm.046 1.839c.43.373.88.754 1.362 1.146-.1.153-.212.298-.333.434-.45-.37-.891-.75-1.327-1.136.123-.134.221-.284.298-.444Zm-.402.544c.44.387.885.767 1.337 1.14a4.013 4.013 0 0 1-.405.37c-.46-.385-.915-.779-1.362-1.18.135-.072.264-.164.381-.283.018-.015.032-.031.049-.047Zm-.573.396c.457.407.921.807 1.392 1.199-.154.113-.32.208-.49.297a52.713 52.713 0 0 1-1.504-1.337c-.016.001-.033 0-.05.002l-.016-.01c.229-.017.454-.068.668-.151Zm-6.698.165-.014.01h-.008l.003.002c-.14.093-.258.219-.34.367l-.3-.285c.215-.05.437-.084.66-.093V7.63Zm-.662.093-.085.022.085-.021Zm-.18.05.414.395c-.079.226-.077.472.006.697-.312-.296-.627-.596-.955-.9a3.91 3.91 0 0 1 .535-.192Zm-.686.267c.48.45.949.898 1.422 1.353a1.787 1.787 0 0 0-.551.162c-.427-.408-.867-.82-1.332-1.244.147-.101.302-.19.46-.27V8.04Zm8.014.136c.315.28.638.564.982.857-.194.094-.397.17-.605.228l-.411-.332c.105-.238.117-.507.033-.754Zm-8.601.23c.443.41.877.819 1.305 1.23a2.105 2.105 0 0 0-1.018 1.554c-.477-.449-.96-.89-1.45-1.325a3.71 3.71 0 0 0-.061.146c.518.466 1.015.928 1.501 1.392.002.189.028.38.094.565.035.127.086.244.146.355A71.384 71.384 0 0 0 .96 10.568c.017-.072.027-.144.049-.215.091-.345.244-.665.433-.96.46.414.9.827 1.335 1.24.021-.053.045-.104.071-.155-.436-.41-.877-.814-1.324-1.212.1-.143.207-.28.327-.41.441.402.864.802 1.284 1.203.036-.04.073-.081.112-.119a65.43 65.43 0 0 0-1.294-1.193 3.88 3.88 0 0 1 .395-.34Zm8.48.102-.019.177.018-.177Zm1.155.503-.034.015.033-.015Zm-1.147.06.293.236c-.191.04-.388.064-.586.069h-.011a1.04 1.04 0 0 0 .305-.305h-.001ZM.924 10.734c.88.792 1.688 1.571 2.52 2.372l.117.111a1.038 1.038 0 0 0-.396.31 83.76 83.76 0 0 0-2.299-2.143 3.45 3.45 0 0 1 .058-.65Zm-.047.86c.742.68 1.474 1.372 2.196 2.074-.072.133-.12.284-.132.45a.938.938 0 0 0 0 .111 95.47 95.47 0 0 0-1.92-1.807 3.767 3.767 0 0 1-.145-.828h.001Zm.252 1.142c.629.584 1.235 1.166 1.852 1.76l.014.014c.047.13.124.248.218.354-.964-.373-1.709-1.178-2.084-2.128Zm2.235.176c.12.094.25.174.387.24l-.017.002-.012-.01a2.01 2.01 0 0 1-.358-.232Zm.698 2.168.1.017-.1-.017Zm.152.027Z" fill="currentColor"/></symbol><symbol id="distro-freebsd" viewBox="0 0 16 16"><path d="M14.84 1.239c.742.753-1.315 4.065-1.663 4.418-.348.353-1.231.029-1.973-.725-.742-.753-1.062-1.651-.714-2.004.347-.353 3.608-2.443 4.35-1.689Zm-10.407.797C3.3 1.383 1.688.656 1.175 1.178c-.52.527.221 2.202.871 3.355a7.02 7.02 0 0 1 2.387-2.497Zm9.275 3.362c.104.359.086.656-.084.828-.395.401-1.463-.027-2.425-.957A4.986 4.986 0 0 1 11 5.078 4.38 4.38 0 0 1 10.208 4c-.337-.613-.421-1.156-.166-1.414.138-.141.36-.18.631-.13.177-.114.385-.24.614-.37a6.621 6.621 0 0 0-3.11-.77c-3.72 0-6.736 3.062-6.736 6.841C1.441 11.936 4.457 15 8.178 15c3.72 0 6.737-3.063 6.737-6.842a6.89 6.89 0 0 0-.866-3.357c-.109.202-.222.401-.341.597Z" fill="currentColor"/></symbol><symbol id="distro-ubuntu" viewBox="0 0 16 16"><path fill-rule="evenodd" clip-rule="evenodd" d="M8 15A7 7 0 1 0 8 1a7 7 0 0 0 0 14ZM3.467 8.9a.9.9 0 1 0 0-1.8.9.9 0 0 0 0 1.8Zm7.25 3.805a.9.9 0 1 1-.9-1.56.9.9 0 0 1 .9 1.56Zm0-9.41a.9.9 0 1 1-.899 1.558.9.9 0 0 1 .899-1.558Zm-.16 4.478a2.566 2.566 0 0 0-3.638-2.101l-.634-1.138a3.87 3.87 0 0 1 2.73-.265 1.264 1.264 0 0 0 1.708.986 3.855 3.855 0 0 1 1.136 2.497l-1.302.02ZM6.525 5.9a2.564 2.564 0 0 0 0 4.2l-.669 1.118a3.874 3.874 0 0 1-1.595-2.231 1.264 1.264 0 0 0 0-1.974 3.873 3.873 0 0 1 1.595-2.231L6.525 5.9Zm.394 4.428a2.566 2.566 0 0 0 3.638-2.1l1.302.02a3.856 3.856 0 0 1-1.136 2.497 1.264 1.264 0 0 0-1.707.987 3.866 3.866 0 0 1-2.731-.266l.634-1.138Z" fill="currentColor"/></symbol><symbol id="distro-windows" viewBox="0 0 16 16"><path d="m0 2.265 6.539-.887.003 6.287-6.536.037L0 2.265ZM6.536 8.39l.005 6.293-6.536-.896v-5.44l6.53.043Zm.792-7.129L15.998 0v7.585l-8.67.069V1.26ZM16 8.45 15.998 16l-8.67-1.22-.012-6.345L16 8.449Z" fill="currentColor"/></symbol><symbol id="cpu-large" viewBox="0 0 19 19"><path fill-rule="evenodd" clip-rule="evenodd" d="M10 4h1V1h-1v3Zm4 1H5v9h9V5Zm-3 13h-1v-3h1v3ZM8 4h1V1H8v3Zm1 14H8v-3h1v3ZM6 4h1V1H6v3Zm1 14H6v-3h1v3Zm5-14h1V1h-1v3Zm1 14h-1v-3h1v3Zm2-8v1h3v-1h-3ZM1 11v-1h3v1H1Zm14-3v1h3V8h-3ZM1 9V8h3v1H1Zm14-3v1h3V6h-3ZM1 7V6h3v1H1Zm14 5v1h3v-1h-3ZM1 13v-1h3v1H1Z" fill="currentColor"/></symbol><symbol id="cpu-small" viewBox="0 0 15 15"><path fill-rule="evenodd" clip-rule="evenodd" d="M7 3h1V1H7v2Zm4 1H4v7h7V4ZM6 3H5V1h1v2Zm3 0h1V1H9v2ZM8 14H7v-2h1v2Zm-3 0h1v-2H5v2Zm5 0H9v-2h1v2Zm2-7v1h2V7h-2Zm0-1V5h2v1h-2Zm0 3v1h2V9h-2ZM1 8V7h2v1H1Zm0-3v1h2V5H1Zm0 5V9h2v1H1Z" fill="currentColor"/></symbol><symbol id="disk-large" viewBox="0 0 19 19"><path fill-rule="evenodd" clip-rule="evenodd" d="M3 6h16v2a1 1 0 0 0-1 1v1a1 1 0 0 0 1 1v2H3V6Zm10 6h-3V7h3v5Zm4 0h-3V7h3v5ZM7 9h2V7H7v2Zm-7 2h2v-1H0v1Zm2-2H0V8h2v1ZM0 7h2V6H0v1Zm2 6H0v-1h2v1Z" fill="currentColor"/></symbol><symbol id="disk-small" viewBox="0 0 15 15"><path fill-rule="evenodd" clip-rule="evenodd" d="M15 5H2v5h13V8h-1V7h1V5ZM7 7H6V6h1v1Zm1 2h2V6H8v3Zm3 0h2V6h-2v3ZM1 8H0V7h1v1ZM0 6h1V5H0v1Zm1 4H0V9h1v1Z" fill="currentColor"/></symbol><symbol id="ram-large" viewBox="0 0 19 19"><path fill-rule="evenodd" clip-rule="evenodd" d="M19 5.067H0V7a1 1 0 0 1 0 2v2h19V9a1 1 0 1 1 0-2V5.067ZM5 6H2v4h3V6Zm1 0h3v4H6V6Zm7 0h-3v4h3V6Zm1 0h3v4h-3V6ZM1 14h1v-2H1v2Zm3 0H3v-2h1v2Zm1 0h1v-2H5v2Zm3 0H7v-2h1v2Zm1 0h1v-2H9v2Zm3 0h-1v-2h1v2Zm1 0h1v-2h-1v2Zm3 0h-1v-2h1v2Zm2 0h-1v-2h1v2Z" fill="currentColor"/></symbol><symbol id="ram-small" viewBox="0 0 15 15"><path fill-rule="evenodd" clip-rule="evenodd" d="M15 4H0v5h15V7h-1V6h1V4ZM1 7H0V6h1v1Zm0 4h1v-1H1v1Zm3 0H3v-1h1v1Zm1 0h1v-1H5v1Zm3 0H7v-1h1v1Zm1 0h1v-1H9v1Zm3 0h-1v-1h1v1Zm2 0h-1v-1h1v1Z" fill="currentColor"/></symbol></svg>