<svg width="16" height="16" viewBox="0 0 16 16" xmlns="http://www.w3.org/2000/svg"><path fill-rule="evenodd" clip-rule="evenodd" d="M8 15A7 7 0 1 0 8 1a7 7 0 0 0 0 14ZM3.467 8.9a.9.9 0 1 0 0-1.8.9.9 0 0 0 0 1.8Zm7.25 3.805a.9.9 0 1 1-.9-1.56.9.9 0 0 1 .9 1.56Zm0-9.41a.9.9 0 1 1-.899 1.558.9.9 0 0 1 .899-1.558Zm-.16 4.478a2.566 2.566 0 0 0-3.638-2.101l-.634-1.138a3.87 3.87 0 0 1 2.73-.265 1.264 1.264 0 0 0 1.708.986 3.855 3.855 0 0 1 1.136 2.497l-1.302.02ZM6.525 5.9a2.564 2.564 0 0 0 0 4.2l-.669 1.118a3.874 3.874 0 0 1-1.595-2.231 1.264 1.264 0 0 0 0-1.974 3.873 3.873 0 0 1 1.595-2.231L6.525 5.9Zm.394 4.428a2.566 2.566 0 0 0 3.638-2.1l1.302.02a3.856 3.856 0 0 1-1.136 2.497 1.264 1.264 0 0 0-1.707.987 3.866 3.866 0 0 1-2.731-.266l.634-1.138Z" fill="#B8BBBC"/></svg>