<svg width="16" height="16" viewBox="0 0 16 16" xmlns="http://www.w3.org/2000/svg"><path fill-rule="evenodd" clip-rule="evenodd" d="M6.073 8.004v1.46c-.063-.002-.132-.008-.207-.021a1.601 1.601 0 0 1-.247-.067 2.29 2.29 0 0 1-.285-.124 3.137 3.137 0 0 1-.323-.196l1.062-1.052Zm5.466 1.36c-.019-.012-.03-.02-.031-.022l.01.007-.719-.704-1.231-1.219-.193.19-.915-.9L9.56 5.627l2.67 2.651.806.782a3.15 3.15 0 0 1-.33.199 2.208 2.208 0 0 1-.288.124c-.089.031-.172.052-.248.065a1.23 1.23 0 0 1-.209.019.99.99 0 0 1-.197-.019.769.769 0 0 1-.224-.085ZM8.388 6.787l-.004.004-1.58-1.61-3.968 3.88c.117.08.226.145.329.199.102.053.199.094.288.124.09.031.172.052.248.065.077.013.146.019.21.019a.998.998 0 0 0 .197-.019.738.738 0 0 0 .223-.085c.02-.012.03-.02.031-.022l1.796-1.777.64-.607 1.778 1.758.62.63a.554.554 0 0 0 .116.065c.036.016.083.031.138.043a.998.998 0 0 0 .198.018c.063 0 .132-.005.208-.018a1.59 1.59 0 0 0 .248-.065 2.22 2.22 0 0 0 .29-.125 3.15 3.15 0 0 0 .328-.199L9.31 7.695l-.002.002-.92-.91ZM15 8l-3.498-6H4.498L1 8l3.498 6h7.004L15 8Z" fill="#B8BBBC"/></svg>