<?xml version="1.0" encoding="utf-8"?><svg xmlns="http://www.w3.org/2000/svg" xmlns:xlink="http://www.w3.org/1999/xlink"><symbol viewBox="0 0 16 16" id="access-16" xmlns="http://www.w3.org/2000/svg"><path fill="currentColor" fill-rule="evenodd" d="M5 13.29a6.32 6.32 0 0 1-3-5.354V3.541a.75.75 0 0 1 .513-.712l5.25-1.75a.75.75 0 0 1 .474 0l5.25 1.75a.75.75 0 0 1 .513.712v4.395c0 2.152-1.12 4.126-3 5.348l-.2.125-2.43 1.38a.75.75 0 0 1-.74 0L5.2 13.41a6 6 0 0 1-.2-.12m0-2.887c0 .175.06.347.18.474.29.307.63.576 1.011.795l.003.002 1.435.815c.23.13.512.13.742 0l1.416-.804q.592-.365 1.033-.835a.7.7 0 0 0 .18-.475V10a2 2 0 0 0-2-2H7a2 2 0 0 0-2 2zM10 5a2 2 0 1 1-4 0 2 2 0 0 1 4 0" clip-rule="evenodd"/></symbol><symbol viewBox="0 0 24 24" id="access-24" xmlns="http://www.w3.org/2000/svg"><path fill="currentColor" fill-rule="evenodd" d="M3 4.72a1 1 0 0 1 .684-.948l8-2.667a1 1 0 0 1 .632 0l8 2.667a1 1 0 0 1 .684.949v8.572a8 8 0 0 1-4.115 6.993l-4.4 2.444a1 1 0 0 1-.97 0l-4.4-2.444A8 8 0 0 1 3 13.293zM7 15a3 3 0 0 1 3-3h4a3 3 0 0 1 3 3v1.434a1 1 0 0 1-.485.857l-4 2.4a1 1 0 0 1-1.03 0l-4-2.4A1 1 0 0 1 7 16.434zm5-5a3 3 0 1 0 0-6 3 3 0 0 0 0 6" clip-rule="evenodd"/></symbol><symbol viewBox="0 0 16 16" id="access-token-16" xmlns="http://www.w3.org/2000/svg"><path fill="currentColor" d="M1.25 11a.75.75 0 0 1 .75.75V14h2.25a.75.75 0 0 1 .75.75v.5a.75.75 0 0 1-.75.75H.75a.75.75 0 0 1-.75-.75v-3.5A.75.75 0 0 1 .75 11zm14 0a.75.75 0 0 1 .75.75v3.5l-.004.077a.75.75 0 0 1-.746.673h-3.5a.75.75 0 0 1-.75-.75v-.5a.75.75 0 0 1 .75-.75H14v-2.25a.75.75 0 0 1 .75-.75zm-7-8a.75.75 0 0 1 .75.75v2.518l2.18-1.26a.75.75 0 0 1 1.025.275l.25.434a.75.75 0 0 1-.274 1.024L10 8l2.18 1.26a.75.75 0 0 1 .275 1.024l-.25.434a.75.75 0 0 1-1.024.274L9 9.731v2.519a.75.75 0 0 1-.75.75h-.5a.75.75 0 0 1-.75-.75V9.731l-2.18 1.26a.75.75 0 0 1-1.025-.274l-.25-.434a.75.75 0 0 1 .274-1.024L6 7.999 3.82 6.741a.75.75 0 0 1-.274-1.024l.25-.434a.75.75 0 0 1 1.024-.274L7 6.268V3.75A.75.75 0 0 1 7.75 3zm-4-3A.75.75 0 0 1 5 .75v.5a.75.75 0 0 1-.75.75H2v2.25a.75.75 0 0 1-.75.75h-.5A.75.75 0 0 1 0 4.25V.75A.75.75 0 0 1 .75 0zm11.077.004A.75.75 0 0 1 16 .75v3.5a.75.75 0 0 1-.75.75h-.5a.75.75 0 0 1-.75-.75V2h-2.25a.75.75 0 0 1-.75-.75v-.5a.75.75 0 0 1 .75-.75h3.5z"/></symbol><symbol viewBox="0 0 24 24" id="access-token-24" xmlns="http://www.w3.org/2000/svg"><path fill="currentColor" d="M4 15a1 1 0 0 1 1 1v3h3a1 1 0 0 1 1 1v1a1 1 0 0 1-1 1H3l-.103-.005A1 1 0 0 1 2 21v-5a1 1 0 0 1 1-1zm17 0a1 1 0 0 1 1 1v5a1 1 0 0 1-1 1h-5a1 1 0 0 1-1-1v-1a1 1 0 0 1 1-1h3v-3a1 1 0 0 1 1-1zm-8.5-9a1 1 0 0 1 1 1v2.401l2.08-1.2a1 1 0 0 1 1.366.366l.5.866a1 1 0 0 1-.366 1.366l-2.08 1.2 2.081 1.202a1 1 0 0 1 .366 1.366l-.5.866a1 1 0 0 1-1.366.366l-2.08-1.201V17a1 1 0 0 1-1 1h-1a1 1 0 0 1-1-1v-2.402l-2.08 1.2a1 1 0 0 1-1.366-.365l-.5-.866a1 1 0 0 1 .366-1.366L9 12l-2.08-1.2a1 1 0 0 1-.366-1.366l.5-.866a1 1 0 0 1 1.366-.366l2.08 1.2V7a1 1 0 0 1 1-1zM8 2a1 1 0 0 1 1 1v1a1 1 0 0 1-1 1H5v3a1 1 0 0 1-1 1H3a1 1 0 0 1-1-1V3a1 1 0 0 1 1-1zm13 0a1 1 0 0 1 1 1v5a1 1 0 0 1-1 1h-1a1 1 0 0 1-1-1V5h-3a1 1 0 0 1-1-1V3a1 1 0 0 1 1-1z"/></symbol><symbol viewBox="0 0 16 16" id="action-16" xmlns="http://www.w3.org/2000/svg"><path fill="currentColor" d="M9 7h3.978a.5.5 0 0 1 .394.807L7.895 14.85A.5.5 0 0 1 7 14.543V9H3.022a.5.5 0 0 1-.394-.807L8.105 1.15A.5.5 0 0 1 9 1.457z"/></symbol><symbol viewBox="0 0 24 24" id="action-24" xmlns="http://www.w3.org/2000/svg"><path fill="currentColor" d="M14 11h5.863a.5.5 0 0 1 .369.838l-9.363 10.215a.5.5 0 0 1-.869-.338V13H4.137a.5.5 0 0 1-.369-.838l9.363-10.214a.5.5 0 0 1 .869.337z"/></symbol><symbol viewBox="0 0 12 12" id="add-12" xmlns="http://www.w3.org/2000/svg"><path fill="currentColor" fill-rule="evenodd" d="M6.75.667A.667.667 0 0 0 6.083 0h-.166a.667.667 0 0 0-.667.667V5.25H.667A.667.667 0 0 0 0 5.917v.166c0 .368.299.667.667.667H5.25v4.583c0 .368.299.667.667.667h.166a.667.667 0 0 0 .667-.667V6.75h4.583A.667.667 0 0 0 12 6.083v-.166a.667.667 0 0 0-.667-.667H6.75z" clip-rule="evenodd"/></symbol><symbol viewBox="0 0 12 12" id="add-roundel-12" xmlns="http://www.w3.org/2000/svg"><path fill="currentColor" fill-rule="evenodd" d="M6 12A6 6 0 1 0 6 0a6 6 0 0 0 0 12m.083-9.5c.368 0 .667.299.667.667V5.25h2.083c.368 0 .667.299.667.667v.166a.667.667 0 0 1-.667.667H6.75v2.083a.667.667 0 0 1-.667.667h-.166a.667.667 0 0 1-.667-.667V6.75H3.167a.667.667 0 0 1-.667-.667v-.166c0-.368.299-.667.667-.667H5.25V3.167c0-.368.299-.667.667-.667z" clip-rule="evenodd"/></symbol><symbol viewBox="0 0 16 16" id="add-roundel-16" xmlns="http://www.w3.org/2000/svg"><path fill="currentColor" fill-rule="evenodd" d="M8 15A7 7 0 1 0 8 1a7 7 0 0 0 0 14M7 4.75A.75.75 0 0 1 7.75 4h.5a.75.75 0 0 1 .75.75V7h2.25a.75.75 0 0 1 .75.75v.5a.75.75 0 0 1-.75.75H9v2.25a.75.75 0 0 1-.75.75h-.5a.75.75 0 0 1-.75-.75V9H4.75A.75.75 0 0 1 4 8.25v-.5A.75.75 0 0 1 4.75 7H7z" clip-rule="evenodd"/></symbol><symbol viewBox="0 0 24 24" id="add-roundel-24" xmlns="http://www.w3.org/2000/svg"><path fill="currentColor" fill-rule="evenodd" d="M12 22c5.523 0 10-4.477 10-10S17.523 2 12 2 2 6.477 2 12s4.477 10 10 10m0-15a1 1 0 0 1 1 1v3h3a1 1 0 1 1 0 2h-3v3a1 1 0 1 1-2 0v-3H8a1 1 0 1 1 0-2h3V8a1 1 0 0 1 1-1" clip-rule="evenodd"/></symbol><symbol viewBox="0 0 16 16" id="affinity-16" xmlns="http://www.w3.org/2000/svg"><path fill="currentColor" fill-rule="evenodd" d="M16 9.75v4.5a.75.75 0 0 1-.75.75h-3.5a.75.75 0 0 1-.75-.75v-4.5a.75.75 0 0 1 .75-.75h3.5a.75.75 0 0 1 .75.75M4.25 7A.75.75 0 0 0 5 6.25v-4.5A.75.75 0 0 0 4.25 1H.75a.75.75 0 0 0-.75.75v4.5c0 .414.336.75.75.75zm0 8a.75.75 0 0 0 .75-.75v-4.5A.75.75 0 0 0 4.25 9H.75a.75.75 0 0 0-.75.75v4.5c0 .414.336.75.75.75zM16 6.25v-4.5a.75.75 0 0 0-.75-.75h-3.5a.75.75 0 0 0-.75.75v4.5c0 .414.336.75.75.75h3.5a.75.75 0 0 0 .75-.75M8.25 4h-.5A.75.75 0 0 1 7 3.25V.75A.75.75 0 0 1 7.75 0h.5A.75.75 0 0 1 9 .75v2.5a.75.75 0 0 1-.75.75m-.5 6h.5A.75.75 0 0 0 9 9.25v-2.5A.75.75 0 0 0 8.25 6h-.5a.75.75 0 0 0-.75.75v2.5c0 .414.336.75.75.75m.5 6h-.5a.75.75 0 0 1-.75-.75v-2.5a.75.75 0 0 1 .75-.75h.5a.75.75 0 0 1 .75.75v2.5a.75.75 0 0 1-.75.75" clip-rule="evenodd"/></symbol><symbol viewBox="0 0 24 24" id="affinity-24" xmlns="http://www.w3.org/2000/svg"><path fill="currentColor" fill-rule="evenodd" d="M24 14.75v6.5a.75.75 0 0 1-.75.75h-6.5a.75.75 0 0 1-.75-.75v-6.5a.75.75 0 0 1 .75-.75h6.5a.75.75 0 0 1 .75.75M7.25 10A.75.75 0 0 0 8 9.25v-6.5A.75.75 0 0 0 7.25 2H.75a.75.75 0 0 0-.75.75v6.5c0 .414.336.75.75.75zm0 12a.75.75 0 0 0 .75-.75v-6.5a.75.75 0 0 0-.75-.75H.75a.75.75 0 0 0-.75.75v6.5c0 .414.336.75.75.75zM24 9.25v-6.5a.75.75 0 0 0-.75-.75h-6.5a.75.75 0 0 0-.75.75v6.5c0 .414.336.75.75.75h6.5a.75.75 0 0 0 .75-.75M12.25 6h-.5a.75.75 0 0 1-.75-.75V.75a.75.75 0 0 1 .75-.75h.5a.75.75 0 0 1 .75.75v4.5a.75.75 0 0 1-.75.75m-.5 9h.5a.75.75 0 0 0 .75-.75v-4.5a.75.75 0 0 0-.75-.75h-.5a.75.75 0 0 0-.75.75v4.5c0 .414.336.75.75.75m.5 9h-.5a.75.75 0 0 1-.75-.75v-4.5a.75.75 0 0 1 .75-.75h.5a.75.75 0 0 1 .75.75v4.5a.75.75 0 0 1-.75.75" clip-rule="evenodd"/></symbol><symbol viewBox="0 0 12 12" id="auto-restart-12" xmlns="http://www.w3.org/2000/svg"><path fill="currentColor" d="M6 10.5a4.5 4.5 0 0 0 1.277-.184c.32-.094.677.01.854.293l.098.157c.21.338.083.787-.294.915A6 6 0 1 1 12 6a6.14 6.14 0 0 1-1.035 3.392c-.225.337-.703.336-.97.031L7.972 7.111A.67.67 0 0 1 8.477 6H10.5A4.5 4.5 0 1 0 6 10.5"/></symbol><symbol viewBox="0 0 16 16" id="calendar-16" xmlns="http://www.w3.org/2000/svg"><path fill="currentColor" fill-rule="evenodd" d="M1.75 3a.75.75 0 0 0-.75.75V6h14V3.75a.75.75 0 0 0-.75-.75H13V1h-2v2H5V1H3v2zM1 7h14v7.25a.75.75 0 0 1-.75.75H1.75a.75.75 0 0 1-.75-.75zm2 2.75A.75.75 0 0 1 3.75 9h2.5a.75.75 0 0 1 .75.75v2.5a.75.75 0 0 1-.75.75h-2.5a.75.75 0 0 1-.75-.75z" clip-rule="evenodd"/></symbol><symbol viewBox="0 0 24 24" id="calendar-24" xmlns="http://www.w3.org/2000/svg"><path fill="currentColor" fill-rule="evenodd" d="M3 5a1 1 0 0 0-1 1v3h20V6a1 1 0 0 0-1-1h-2V2h-3v3H8V2H5v3zm-1 6h20v10a1 1 0 0 1-1 1H3a1 1 0 0 1-1-1zm3 3h5v5H5z" clip-rule="evenodd"/></symbol><symbol viewBox="0 0 12 12" id="carat-down-12" xmlns="http://www.w3.org/2000/svg"><path fill="currentColor" d="M5.403 8.807a.667.667 0 0 0 1.194 0l2.92-5.842A.667.667 0 0 0 8.921 2H3.079a.667.667 0 0 0-.596.965z"/></symbol><symbol viewBox="0 0 12 12" id="carat-left-12" xmlns="http://www.w3.org/2000/svg"><path fill="currentColor" d="M3.193 5.403a.667.667 0 0 0 0 1.194l5.842 2.92c.443.222.965-.1.965-.596V3.079a.667.667 0 0 0-.965-.596z"/></symbol><symbol viewBox="0 0 12 12" id="carat-right-12" xmlns="http://www.w3.org/2000/svg"><path fill="currentColor" d="M8.807 6.597a.667.667 0 0 0 0-1.194l-5.842-2.92A.667.667 0 0 0 2 3.079v5.842c0 .496.522.818.965.596z"/></symbol><symbol viewBox="0 0 12 12" id="carat-up-12" xmlns="http://www.w3.org/2000/svg"><path fill="currentColor" d="M6.597 3.193a.667.667 0 0 0-1.194 0l-2.92 5.842c-.222.443.1.965.596.965h5.842a.667.667 0 0 0 .596-.965z"/></symbol><symbol viewBox="0 0 16 16" id="chat-16" xmlns="http://www.w3.org/2000/svg"><path fill="currentColor" fill-rule="evenodd" d="M1 8a7 7 0 1 1 7 7H1.746A.746.746 0 0 1 1 14.254zm3-1.25A.75.75 0 0 1 4.75 6h6.5a.75.75 0 0 1 .75.75v.5a.75.75 0 0 1-.75.75h-6.5A.75.75 0 0 1 4 7.25zM4.75 9a.75.75 0 0 0-.75.75v.5c0 .414.336.75.75.75h3.5a.75.75 0 0 0 .75-.75v-.5A.75.75 0 0 0 8.25 9z" clip-rule="evenodd"/></symbol><symbol viewBox="0 0 24 24" id="chat-24" xmlns="http://www.w3.org/2000/svg"><path fill="currentColor" fill-rule="evenodd" d="M12 2C6.477 2 2 6.477 2 12v9.048c0 .526.426.952.952.952H12c5.523 0 10-4.477 10-10S17.523 2 12 2m-6 8a1 1 0 0 1 1-1h10a1 1 0 1 1 0 2H7a1 1 0 0 1-1-1m0 4a1 1 0 0 1 1-1h6a1 1 0 1 1 0 2H7a1 1 0 0 1-1-1" clip-rule="evenodd"/></symbol><symbol viewBox="0 0 12 12" id="checkmark-12" xmlns="http://www.w3.org/2000/svg"><path fill="currentColor" fill-rule="evenodd" d="M10.492 2.651c.28.242.31.665.067.944L5.448 9.463a.667.667 0 0 1-.974.035L1.475 6.516a.667.667 0 0 1 0-.946l.237-.235a.667.667 0 0 1 .94 0l2.24 2.226L9.3 2.501a.667.667 0 0 1 .938-.068z" clip-rule="evenodd"/></symbol><symbol viewBox="0 0 12 12" id="clipboard-12" xmlns="http://www.w3.org/2000/svg"><path fill="currentColor" fill-rule="evenodd" d="M4.67 0C4.3 0 4 .3 4 .67v.66a.667.667 0 0 0 .67.67h2.66A.67.67 0 0 0 8 1.33V.67C8 .3 7.7 0 7.33 0zm-3 1h.83v.33A2.17 2.17 0 0 0 4.67 3.5h2.66A2.17 2.17 0 0 0 9.5 1.33V1h.83c.37 0 .67.3.67.67v9.66c0 .37-.3.67-.67.67H1.67a.67.67 0 0 1-.67-.67V1.67c0-.37.3-.67.67-.67" clip-rule="evenodd"/></symbol><symbol viewBox="0 0 16 16" id="clipboard-16" xmlns="http://www.w3.org/2000/svg"><path fill="currentColor" fill-rule="evenodd" d="M6.75 1a.75.75 0 0 0-.75.75v.5c0 .414.336.75.75.75h2.5a.75.75 0 0 0 .75-.75v-.5A.75.75 0 0 0 9.25 1zm-4 1H4v2.25c0 .414.336.75.75.75h6.5a.75.75 0 0 0 .75-.75V2h1.25a.75.75 0 0 1 .75.75v11.5a.75.75 0 0 1-.75.75H2.75a.75.75 0 0 1-.75-.75V2.75A.75.75 0 0 1 2.75 2" clip-rule="evenodd"/></symbol><symbol viewBox="0 0 24 24" id="clipboard-24" xmlns="http://www.w3.org/2000/svg"><path fill="currentColor" fill-rule="evenodd" d="M10 1a1 1 0 0 0-1 1v2a1 1 0 0 0 1 1h4a1 1 0 0 0 1-1V2a1 1 0 0 0-1-1zM4 3h3v3a1 1 0 0 0 1 1h8a1 1 0 0 0 1-1V3h3a1 1 0 0 1 1 1v18a1 1 0 0 1-1 1H4a1 1 0 0 1-1-1V4a1 1 0 0 1 1-1" clip-rule="evenodd"/></symbol><symbol viewBox="0 0 12 12" id="close-12" xmlns="http://www.w3.org/2000/svg"><path fill="currentColor" d="M10.301 2.76a.667.667 0 0 0 0-.944l-.117-.117a.667.667 0 0 0-.943 0L6 4.939 2.76 1.7a.667.667 0 0 0-.944 0l-.117.117a.667.667 0 0 0 0 .943L4.939 6 1.7 9.24a.667.667 0 0 0 0 .944l.117.117c.26.26.683.26.943 0L6 7.061l3.24 3.24c.261.26.683.26.944 0l.117-.117a.667.667 0 0 0 0-.943L7.061 6z"/></symbol><symbol viewBox="0 0 16 16" id="close-16" xmlns="http://www.w3.org/2000/svg"><path fill="currentColor" fill-rule="evenodd" d="M2.22 2.644a.75.75 0 0 0 0 1.06L6.514 8 2.22 12.295a.75.75 0 0 0 0 1.06l.424.425a.75.75 0 0 0 1.06 0L8 9.484l4.295 4.296a.75.75 0 0 0 1.06 0l.425-.425a.75.75 0 0 0 0-1.06L9.484 8l4.295-4.296a.75.75 0 0 0 0-1.06l-.424-.424a.75.75 0 0 0-1.061 0L7.999 6.515 3.704 2.22a.75.75 0 0 0-1.06 0z" clip-rule="evenodd"/></symbol><symbol viewBox="0 0 8 8" id="close-8" xmlns="http://www.w3.org/2000/svg"><path fill="currentColor" fill-rule="evenodd" d="M6.21 6.917a.375.375 0 0 0 .53 0l.177-.177a.375.375 0 0 0 0-.53L4.707 4l2.21-2.21a.375.375 0 0 0 0-.53l-.177-.177a.375.375 0 0 0-.53 0L4 3.293l-2.21-2.21a.375.375 0 0 0-.53 0l-.177.177a.375.375 0 0 0 0 .53L3.293 4l-2.21 2.21a.375.375 0 0 0 0 .53l.177.177a.375.375 0 0 0 .53 0L4 4.707z" clip-rule="evenodd"/></symbol><symbol viewBox="0 0 16 16" id="cloud-16" xmlns="http://www.w3.org/2000/svg"><path fill="currentColor" fill-rule="evenodd" d="M13.333 7v.018A3 3 0 0 1 13 13H4a4 4 0 0 1-.254-7.992A5.001 5.001 0 0 1 13.333 7" clip-rule="evenodd"/></symbol><symbol viewBox="0 0 24 24" id="cloud-24" xmlns="http://www.w3.org/2000/svg"><path fill="currentColor" fill-rule="evenodd" d="M20 11q0 .207-.01.412A5.001 5.001 0 0 1 18 21H7A6 6 0 0 1 4.097 9.748 8 8 0 0 1 20 11" clip-rule="evenodd"/></symbol><symbol viewBox="0 0 16 16" id="compability-16" xmlns="http://www.w3.org/2000/svg"><path fill="currentColor" fill-rule="evenodd" d="M1 1.75A.75.75 0 0 1 1.75 1h12.5a.75.75 0 0 1 .75.75V7h-4V4H5v3H1zM11 9v3h4v2.25a.75.75 0 0 1-.75.75H1.75a.75.75 0 0 1-.75-.75V12h4V9z" clip-rule="evenodd"/></symbol><symbol viewBox="0 0 16 16" id="compass-16" xmlns="http://www.w3.org/2000/svg"><path fill="currentColor" fill-rule="evenodd" d="M15 8A7 7 0 1 1 1 8a7 7 0 0 1 14 0m-4.278-3.692a.738.738 0 0 1 .97.97L9.886 9.492a.75.75 0 0 1-.394.394l-4.214 1.806a.738.738 0 0 1-.97-.97l1.806-4.214a.75.75 0 0 1 .394-.394zM8 9a1 1 0 1 0 0-2 1 1 0 0 0 0 2" clip-rule="evenodd"/></symbol><symbol viewBox="0 0 24 24" id="compatibility-24" xmlns="http://www.w3.org/2000/svg"><path fill="currentColor" fill-rule="evenodd" d="M2 3a1 1 0 0 1 1-1h18a1 1 0 0 1 1 1v8h-6V7H8v4H2zm14 10v4h6v4a1 1 0 0 1-1 1H3a1 1 0 0 1-1-1v-4h6v-4z" clip-rule="evenodd"/></symbol><symbol viewBox="0 0 16 16" id="contrast-16" xmlns="http://www.w3.org/2000/svg"><path fill="currentColor" fill-rule="evenodd" d="M8 16A8 8 0 1 0 8 0a8 8 0 0 0 0 16m2.296-2.457A6 6 0 0 1 8 14V2a6 6 0 0 1 2.296 11.543" clip-rule="evenodd"/></symbol><symbol viewBox="0 0 24 24" id="contrast-24" xmlns="http://www.w3.org/2000/svg"><path fill="currentColor" fill-rule="evenodd" d="M12 22c5.523 0 10-4.477 10-10S17.523 2 12 2 2 6.477 2 12s4.477 10 10 10m2.679-3.533A7 7 0 0 1 12 19V5a7 7 0 0 1 2.679 13.467" clip-rule="evenodd"/></symbol><symbol viewBox="0 0 12 12" id="copy-12" xmlns="http://www.w3.org/2000/svg"><path fill="currentColor" fill-rule="evenodd" d="M9.5 2.5v-1H4V.67C4 .3 4.3 0 4.67 0h5.66c.37 0 .67.3.67.67v7.66c0 .37-.3.67-.67.67H9.5V2.5m-7 8v-6h4v6zM1 3.67c0-.37.3-.67.67-.67h5.66c.37 0 .67.3.67.67v7.66c0 .37-.3.67-.67.67H1.67a.67.67 0 0 1-.67-.67z" clip-rule="evenodd"/></symbol><symbol viewBox="0 0 16 16" id="cpu-16" xmlns="http://www.w3.org/2000/svg"><path fill="currentColor" fill-rule="evenodd" d="M7 0v3h2V0h2v3h1.25a.75.75 0 0 1 .75.75V5h3v2h-3v2h3v2h-3v1.25a.75.75 0 0 1-.75.75H11v3H9v-3H7v3H5v-3H3.75a.75.75 0 0 1-.75-.75V11H0V9h3V7H0V5h3V3.75A.75.75 0 0 1 3.75 3H5V0zM5.4 10.99l.1.01h5a.5.5 0 0 0 .5-.5v-5a.5.5 0 0 0-.5-.5h-5a.5.5 0 0 0-.5.5v5a.5.5 0 0 0 .4.49M9 9H7V7h2z" clip-rule="evenodd"/></symbol><symbol viewBox="0 0 24 24" id="cpu-24" xmlns="http://www.w3.org/2000/svg"><path fill="currentColor" fill-rule="evenodd" d="M7 2v3H6a1 1 0 0 0-1 1v1H2v2h3v2H2v2h3v2H2v2h3v1a1 1 0 0 0 1 1h1v3h2v-3h2v3h2v-3h2v3h2v-3h1a1 1 0 0 0 1-1v-1h3v-2h-3v-2h3v-2h-3V9h3V7h-3V6a1 1 0 0 0-1-1h-1V2h-2v3h-2V2h-2v3H9V2zm3 12v-4h4v4zm5.5-6h-7a.5.5 0 0 0-.5.5v7a.5.5 0 0 0 .5.5h7a.5.5 0 0 0 .5-.5v-7a.5.5 0 0 0-.5-.5" clip-rule="evenodd"/></symbol><symbol viewBox="0 0 16 16" id="delete-16" xmlns="http://www.w3.org/2000/svg"><path fill="currentColor" fill-rule="evenodd" d="M9.69 0a.75.75 0 0 1 .53.22l.56.56a.75.75 0 0 0 .53.22h1.94a.75.75 0 0 1 .75.75v.5a.75.75 0 0 1-.75.75H2.75A.75.75 0 0 1 2 2.25v-.5A.75.75 0 0 1 2.75 1h1.94a.75.75 0 0 0 .53-.22l.56-.56A.75.75 0 0 1 6.31 0zM3.75 5a.75.75 0 0 0-.75.75v9.5c0 .414.336.75.75.75h8.5a.75.75 0 0 0 .75-.75v-9.5a.75.75 0 0 0-.75-.75zM6.5 7a.5.5 0 0 1 .5.5v6a.5.5 0 0 1-.5.5h-1a.5.5 0 0 1-.5-.5v-6a.5.5 0 0 1 .5-.5zm3 0a.5.5 0 0 0-.5.5v6a.5.5 0 0 0 .5.5h1a.5.5 0 0 0 .5-.5v-6a.5.5 0 0 0-.5-.5z" clip-rule="evenodd"/></symbol><symbol viewBox="0 0 24 24" id="delete-24" xmlns="http://www.w3.org/2000/svg"><path fill="currentColor" fill-rule="evenodd" d="M14.586 1a1 1 0 0 1 .707.293l.414.414a1 1 0 0 0 .707.293H20a1 1 0 0 1 1 1v1a1 1 0 0 1-1 1H4a1 1 0 0 1-1-1V3a1 1 0 0 1 1-1h3.586a1 1 0 0 0 .707-.293l.414-.414A1 1 0 0 1 9.414 1zM6 7a1 1 0 0 0-1 1v14a1 1 0 0 0 1 1h12a1 1 0 0 0 1-1V8a1 1 0 0 0-1-1zm4 3a1 1 0 0 1 1 1v8a1 1 0 0 1-1 1H9a1 1 0 0 1-1-1v-8a1 1 0 0 1 1-1zm4 0a1 1 0 0 0-1 1v8a1 1 0 0 0 1 1h1a1 1 0 0 0 1-1v-8a1 1 0 0 0-1-1z" clip-rule="evenodd"/></symbol><symbol viewBox="0 0 12 12" id="disabled-12" xmlns="http://www.w3.org/2000/svg"><path fill="currentColor" fill-rule="evenodd" d="M6 12A6 6 0 1 0 6 0a6 6 0 0 0 0 12M3.167 6.75a.667.667 0 0 1-.667-.667v-.166c0-.368.299-.667.667-.667h5.666c.368 0 .667.299.667.667v.166a.667.667 0 0 1-.667.667z" clip-rule="evenodd"/></symbol><symbol viewBox="0 0 16 16" id="dislike-16" xmlns="http://www.w3.org/2000/svg"><path fill="currentColor" fill-rule="evenodd" d="M8.379 14.527 12 10V1H4.464a.75.75 0 0 0-.671.415L1 7v1a2 2 0 0 0 2 2h4l-.61 2.444a2 2 0 0 0 1.045 2.273l.023.012a.75.75 0 0 0 .92-.202M14.25 10a.75.75 0 0 0 .75-.75v-7.5a.75.75 0 0 0-.75-.75H13v9z" clip-rule="evenodd"/></symbol><symbol viewBox="0 0 24 24" id="dislike-24" xmlns="http://www.w3.org/2000/svg"><path fill="currentColor" fill-rule="evenodd" d="M11.328 23.616 17 16.982V4H5.78a.75.75 0 0 0-.689.455L1 14v.982a2 2 0 0 0 2 2h6.571l-1.098 4.207a2 2 0 0 0 1.302 2.403l.746.248a.75.75 0 0 0 .807-.224m9.922-6.634a.75.75 0 0 0 .75-.75V4.75a.75.75 0 0 0-.75-.75h-2.107v12.982z" clip-rule="evenodd"/></symbol><symbol viewBox="0 0 16 16" id="document-16" xmlns="http://www.w3.org/2000/svg"><path fill="currentColor" d="M11.72.224A.75.75 0 0 0 11.186 0H2.75A.75.75 0 0 0 2 .75v14.5c0 .414.336.75.75.75h10.5a.75.75 0 0 0 .75-.75V2.852a.75.75 0 0 0-.215-.525zM4 8.75A.75.75 0 0 1 4.75 8h3.5a.75.75 0 0 1 .75.75v.5a.75.75 0 0 1-.75.75h-3.5A.75.75 0 0 1 4 9.25zm6 3.5a.75.75 0 0 1-.75.75h-4.5a.75.75 0 0 1-.75-.75v-.5a.75.75 0 0 1 .75-.75h4.5a.75.75 0 0 1 .75.75zm1-5.91a.75.75 0 0 1-.75.75h-5.5A.75.75 0 0 1 4 6.34v-.59A.75.75 0 0 1 4.75 5h5.5a.75.75 0 0 1 .75.75z"/></symbol><symbol viewBox="0 0 24 24" id="document-24" xmlns="http://www.w3.org/2000/svg"><path fill="currentColor" d="M16.293 1.293A1 1 0 0 0 15.586 1H4a1 1 0 0 0-1 1v20a1 1 0 0 0 1 1h16a1 1 0 0 0 1-1V6.414a1 1 0 0 0-.293-.707zM6 12a1 1 0 0 1 1-1h7a1 1 0 1 1 0 2H7a1 1 0 0 1-1-1m11 4a1 1 0 0 1-1 1H7a1 1 0 1 1 0-2h9a1 1 0 0 1 1 1m1-8a1 1 0 0 1-1 1H7a1 1 0 0 1 0-2h10a1 1 0 0 1 1 1"/></symbol><symbol viewBox="0 0 16 16" id="document-api-16" xmlns="http://www.w3.org/2000/svg"><path fill="currentColor" fill-rule="evenodd" d="M11.185 0a.75.75 0 0 1 .535.224l2.065 2.103a.75.75 0 0 1 .215.525V15.25a.75.75 0 0 1-.75.75H2.75a.75.75 0 0 1-.75-.75V.75A.75.75 0 0 1 2.75 0zM7.298 3.884a.75.75 0 0 1 0 1.06l-1.47 1.47 1.47 1.47a.75.75 0 0 1 0 1.06l-.353.354a.75.75 0 0 1-1.061 0L3 6.414 5.884 3.53a.75.75 0 0 1 1.06 0zm1.404 3.171a.75.75 0 0 0 0 1.061l1.47 1.47-1.47 1.47a.75.75 0 0 0 0 1.06l.353.354a.75.75 0 0 0 1.061 0L13 9.586l-2.884-2.884a.75.75 0 0 0-1.06 0z" clip-rule="evenodd"/></symbol><symbol viewBox="0 0 16 16" id="dots-16" xmlns="http://www.w3.org/2000/svg"><path fill="currentColor" fill-rule="evenodd" d="M6.5 1.75A.75.75 0 0 1 7.25 1h1.5a.75.75 0 0 1 .75.75v1.5a.75.75 0 0 1-.75.75h-1.5a.75.75 0 0 1-.75-.75zm0 5.5a.75.75 0 0 1 .75-.75h1.5a.75.75 0 0 1 .75.75v1.5a.75.75 0 0 1-.75.75h-1.5a.75.75 0 0 1-.75-.75zm3 5.5a.75.75 0 0 0-.75-.75h-1.5a.75.75 0 0 0-.75.75v1.5c0 .414.336.75.75.75h1.5a.75.75 0 0 0 .75-.75z" clip-rule="evenodd"/></symbol><symbol viewBox="0 0 24 24" id="dots-24" xmlns="http://www.w3.org/2000/svg"><path fill="currentColor" fill-rule="evenodd" d="M10 3a1 1 0 0 1 1-1h2a1 1 0 0 1 1 1v2a1 1 0 0 1-1 1h-2a1 1 0 0 1-1-1zm0 8a1 1 0 0 1 1-1h2a1 1 0 0 1 1 1v2a1 1 0 0 1-1 1h-2a1 1 0 0 1-1-1zm1 7a1 1 0 0 0-1 1v2a1 1 0 0 0 1 1h2a1 1 0 0 0 1-1v-2a1 1 0 0 0-1-1z" clip-rule="evenodd"/></symbol><symbol viewBox="0 0 24 24" id="download-24" xmlns="http://www.w3.org/2000/svg"><path fill="currentColor" fill-rule="evenodd" d="M12 22c5.523 0 10-4.477 10-10S17.523 2 12 2 2 6.477 2 12s4.477 10 10 10m-3.793-9H11V7a1 1 0 1 1 2 0v6h2.793a.5.5 0 0 1 .353.854l-3.439 3.439a1 1 0 0 1-1.414 0l-3.44-3.44A.5.5 0 0 1 8.208 13" clip-rule="evenodd"/></symbol><symbol viewBox="0 0 16 16" id="download-roundel-16" xmlns="http://www.w3.org/2000/svg"><path fill="currentColor" fill-rule="evenodd" d="M8 15A7 7 0 1 0 8 1a7 7 0 0 0 0 14M4.905 8H7V4.75A.75.75 0 0 1 7.75 4h.5a.75.75 0 0 1 .75.75V8h2.095c.334 0 .501.404.265.64l-2.83 2.83a.75.75 0 0 1-1.06 0L4.64 8.64A.375.375 0 0 1 4.905 8" clip-rule="evenodd"/></symbol><symbol viewBox="0 0 16 16" id="edit-16" xmlns="http://www.w3.org/2000/svg"><path fill="currentColor" fill-rule="evenodd" d="M.75 16a.75.75 0 0 1-.75-.75v-2.94a.75.75 0 0 1 .22-.53l8.25-8.25a.75.75 0 0 1 1.06 0l2.94 2.94a.75.75 0 0 1 0 1.06l-8.25 8.25a.75.75 0 0 1-.53.22zM13.47 5.47a.75.75 0 0 0 1.06 0l.94-.94a.75.75 0 0 0 0-1.06L12.53.53a.75.75 0 0 0-1.06 0l-.94.94a.75.75 0 0 0 0 1.06z" clip-rule="evenodd"/></symbol><symbol viewBox="0 0 16 16" id="email-16" xmlns="http://www.w3.org/2000/svg"><path fill="currentColor" fill-rule="evenodd" d="m3.049 10 1.555-7h6.792l1.555 7H10.75a.75.75 0 0 0-.75.75v.5a.75.75 0 0 1-.75.75h-2.5a.75.75 0 0 1-.75-.75v-.5a.75.75 0 0 0-.75-.75zm-.18-8.413A.75.75 0 0 1 3.602 1h8.796a.75.75 0 0 1 .732.587l1.852 8.333a.8.8 0 0 1 .018.162v4.168a.75.75 0 0 1-.75.75H1.75a.75.75 0 0 1-.75-.75v-4.168a.8.8 0 0 1 .018-.162z" clip-rule="evenodd"/></symbol><symbol viewBox="0 0 24 24" id="email-24" xmlns="http://www.w3.org/2000/svg"><path fill="currentColor" fill-rule="evenodd" d="M6.226 14.975a1 1 0 0 1-.98-1.201l1.637-7.975A1 1 0 0 1 7.863 5h8.318a1 1 0 0 1 .98.803l1.6 7.975a1 1 0 0 1-.981 1.197H16a1 1 0 0 0-1 1V17a1 1 0 0 1-1 1h-4a1 1 0 0 1-1-1v-1.025a1 1 0 0 0-1-1zM5 3c.109-.49.435-1 .938-1H18c.502 0 .891.51 1 1l2.974 11.742q.026.116.026.233v5.954C22 21.52 21.52 22 20.929 22H3.07C2.48 22 2 21.52 2 20.929v-5.954q0-.117.026-.233z" clip-rule="evenodd"/></symbol><symbol viewBox="0 0 12 12" id="error-12" xmlns="http://www.w3.org/2000/svg"><path fill="currentColor" fill-rule="evenodd" d="M6 12A6 6 0 1 0 6 0a6 6 0 0 0 0 12m.083-9c.368 0 .667.299.667.667v2.666A.667.667 0 0 1 6.083 7h-.166a.667.667 0 0 1-.667-.667V3.667c0-.368.299-.667.667-.667zm0 5c.368 0 .667.299.667.667v.166a.667.667 0 0 1-.667.667h-.166a.667.667 0 0 1-.667-.667v-.166c0-.368.299-.667.667-.667z" clip-rule="evenodd"/></symbol><symbol viewBox="0 0 16 16" id="error-16" xmlns="http://www.w3.org/2000/svg"><path fill="currentColor" fill-rule="evenodd" d="M8 15A7 7 0 1 0 8 1a7 7 0 0 0 0 14M4.995 6.409a.75.75 0 0 1 0-1.06l.353-.354a.75.75 0 0 1 1.061 0L8 6.585l1.591-1.59a.75.75 0 0 1 1.06 0l.354.353a.75.75 0 0 1 0 1.061L9.415 8l1.59 1.591a.75.75 0 0 1 0 1.06l-.353.354a.75.75 0 0 1-1.061 0L8 9.415l-1.591 1.59a.75.75 0 0 1-1.06 0l-.354-.353a.75.75 0 0 1 0-1.061L6.585 8z" clip-rule="evenodd"/></symbol><symbol viewBox="0 0 24 24" id="error-24" xmlns="http://www.w3.org/2000/svg"><path fill="currentColor" fill-rule="evenodd" d="M12 22c5.523 0 10-4.477 10-10S17.523 2 12 2 2 6.477 2 12s4.477 10 10 10M7.447 9.613a.75.75 0 0 1 0-1.06l.884-.884a.75.75 0 0 1 1.06 0l2.387 2.387 2.387-2.387a.75.75 0 0 1 1.06 0l.884.884a.75.75 0 0 1 0 1.06L13.723 12l2.386 2.387a.75.75 0 0 1 0 1.06l-.884.884a.75.75 0 0 1-1.06 0l-2.387-2.386-2.386 2.386a.75.75 0 0 1-1.061 0l-.884-.884a.75.75 0 0 1 0-1.06L9.834 12z" clip-rule="evenodd"/></symbol><symbol viewBox="0 0 12 12" id="filter-12" xmlns="http://www.w3.org/2000/svg"><path fill="currentColor" fill-rule="evenodd" d="M0 1.667C0 1.299.299 1 .667 1h10.666c.368 0 .667.299.667.667v.666a.667.667 0 0 1-.667.667H.667A.667.667 0 0 1 0 2.333zm2 4C2 5.299 2.299 5 2.667 5h6.666c.368 0 .667.299.667.667v.666A.667.667 0 0 1 9.333 7H2.667A.667.667 0 0 1 2 6.333zm6 4A.667.667 0 0 0 7.333 9H4.667A.667.667 0 0 0 4 9.667v.666c0 .368.299.667.667.667h2.666A.667.667 0 0 0 8 10.333z" clip-rule="evenodd"/></symbol><symbol viewBox="0 0 16 16" id="filter-16" xmlns="http://www.w3.org/2000/svg"><path fill="currentColor" fill-rule="evenodd" d="M2 3.75A.75.75 0 0 1 2.75 3h10.5a.75.75 0 0 1 .75.75v.5a.75.75 0 0 1-.75.75H2.75A.75.75 0 0 1 2 4.25zm2 4A.75.75 0 0 1 4.75 7h6.5a.75.75 0 0 1 .75.75v.5a.75.75 0 0 1-.75.75h-6.5A.75.75 0 0 1 4 8.25zm6 4a.75.75 0 0 0-.75-.75h-2.5a.75.75 0 0 0-.75.75v.5c0 .414.336.75.75.75h2.5a.75.75 0 0 0 .75-.75z" clip-rule="evenodd"/></symbol><symbol viewBox="0 0 16 16" id="firewall-16" xmlns="http://www.w3.org/2000/svg"><path fill="currentColor" fill-rule="evenodd" d="M0 .75A.75.75 0 0 1 .75 0h5.5A.75.75 0 0 1 7 .75v1.5a.75.75 0 0 1-.75.75H.75A.75.75 0 0 1 0 2.25zm0 13A.75.75 0 0 1 .75 13h5.5a.75.75 0 0 1 .75.75v1.5a.75.75 0 0 1-.75.75H.75a.75.75 0 0 1-.75-.75zM9.75 13a.75.75 0 0 0-.75.75v1.5c0 .414.336.75.75.75h5.5a.75.75 0 0 0 .75-.75v-1.5a.75.75 0 0 0-.75-.75zM0 5.75A.75.75 0 0 1 .75 5h1.5a.75.75 0 0 1 .75.75v4.5a.75.75 0 0 1-.75.75H.75a.75.75 0 0 1-.75-.75zM13.75 5a.75.75 0 0 0-.75.75v4.5c0 .414.336.75.75.75h1.5a.75.75 0 0 0 .75-.75v-4.5a.75.75 0 0 0-.75-.75zM9 .75A.75.75 0 0 1 9.75 0h5.5a.75.75 0 0 1 .75.75v1.5a.75.75 0 0 1-.75.75h-5.5A.75.75 0 0 1 9 2.25zM7.796 11.867a.373.373 0 0 0 .408 0l1.196-.776c1-.691 1.6-1.855 1.6-3.127V5.375A.375.375 0 0 0 10.625 5h-5.25A.375.375 0 0 0 5 5.375v2.589c0 1.272.6 2.472 1.6 3.127z" clip-rule="evenodd"/></symbol><symbol viewBox="0 0 24 24" id="firewall-24" xmlns="http://www.w3.org/2000/svg"><path fill="currentColor" fill-rule="evenodd" d="M2 3a1 1 0 0 1 1-1h7a1 1 0 0 1 1 1v3a1 1 0 0 1-1 1H3a1 1 0 0 1-1-1zm0 15a1 1 0 0 1 1-1h7a1 1 0 0 1 1 1v3a1 1 0 0 1-1 1H3a1 1 0 0 1-1-1zm1-9a1 1 0 0 0-1 1v4a1 1 0 0 0 1 1h3a1 1 0 0 0 1-1v-4a1 1 0 0 0-1-1zm14 1a1 1 0 0 1 1-1h3a1 1 0 0 1 1 1v4a1 1 0 0 1-1 1h-3a1 1 0 0 1-1-1zm-3-8a1 1 0 0 0-1 1v3a1 1 0 0 0 1 1h7a1 1 0 0 0 1-1V3a1 1 0 0 0-1-1zm-1 16a1 1 0 0 1 1-1h7a1 1 0 0 1 1 1v3a1 1 0 0 1-1 1h-7a1 1 0 0 1-1-1zm-1.272-2.177a.5.5 0 0 0 .544 0l1.128-.732c1-.691 1.6-1.855 1.6-3.127V9.5a.5.5 0 0 0-.5-.5h-5a.5.5 0 0 0-.5.5v2.464c0 1.272.6 2.472 1.6 3.127z" clip-rule="evenodd"/></symbol><symbol viewBox="0 0 16 16" id="folder-16" xmlns="http://www.w3.org/2000/svg"><path fill="currentColor" fill-rule="evenodd" d="M1.75 2h6.773a.75.75 0 0 1 .75.75v1.16H1V2.75A.75.75 0 0 1 1.75 2M1 5h13.25a.75.75 0 0 1 .75.75v7.5a.75.75 0 0 1-.75.75H1.75a.75.75 0 0 1-.75-.75z" clip-rule="evenodd"/></symbol><symbol viewBox="0 0 24 24" id="folder-24" xmlns="http://www.w3.org/2000/svg"><path fill="currentColor" fill-rule="evenodd" d="M2 3h10a1 1 0 0 1 1 1v2H1V4a1 1 0 0 1 1-1M1 8h21a1 1 0 0 1 1 1v11a1 1 0 0 1-1 1H2a1 1 0 0 1-1-1z" clip-rule="evenodd"/></symbol><symbol viewBox="0 0 16 16" id="gateway-16" xmlns="http://www.w3.org/2000/svg"><path fill="currentColor" fill-rule="evenodd" d="M2.75 0h10.5a.75.75 0 0 1 .75.75v14.5a.75.75 0 0 1-.75.75H2.75a.75.75 0 0 1-.75-.75V.75A.75.75 0 0 1 2.75 0m3.471 4.15A.38.38 0 0 0 6 4.493v6.838c0 .143.082.274.21.337l4.25 2.07c.25.122.54-.06.54-.337V2.58a.375.375 0 0 0-.529-.342z" clip-rule="evenodd"/></symbol><symbol viewBox="0 0 24 24" id="gateway-24" xmlns="http://www.w3.org/2000/svg"><path fill="currentColor" fill-rule="evenodd" d="M4 1h16a1 1 0 0 1 1 1v20a1 1 0 0 1-1 1H4a1 1 0 0 1-1-1V2a1 1 0 0 1 1-1m6.306 5.246a.5.5 0 0 0-.306.46v10.32a.5.5 0 0 0 .292.454l7 3.197a.5.5 0 0 0 .708-.455V3.754a.5.5 0 0 0-.694-.461z" clip-rule="evenodd"/></symbol><symbol viewBox="0 0 16 16" id="heart-16" xmlns="http://www.w3.org/2000/svg"><path fill="currentColor" d="M8 3.228a4.05 4.05 0 0 1 5.793 0c1.61 1.626 1.61 4.292 0 5.918l-5.257 5.312a.75.75 0 0 1-1.069-.003l-5.26-5.374c-1.61-1.626-1.61-4.292 0-5.918A4.11 4.11 0 0 1 8 3.228"/></symbol><symbol viewBox="0 0 24 24" id="heart-24" xmlns="http://www.w3.org/2000/svg"><path fill="currentColor" d="M12 3.889c2.299-2.502 5.977-2.502 8.276 0s2.299 6.604 0 9.106l-7.536 8.2a1 1 0 0 1-1.476-.005l-7.54-8.296c-2.299-2.501-2.299-6.604 0-9.105 2.299-2.402 5.977-2.402 8.276.1"/></symbol><symbol viewBox="0 0 12 12" id="hide-12" xmlns="http://www.w3.org/2000/svg"><path fill="currentColor" fill-rule="evenodd" d="M11.539 1.385 1.385 11.539a.653.653 0 1 1-.923-.924L2.298 8.78C1.117 7.92.392 6.835.086 6.31a.61.61 0 0 1 0-.622C.635 4.749 2.534 2 6 2c.966 0 1.81.213 2.536.54l2.08-2.078a.653.653 0 0 1 .923.923M6.867 4.21 4.183 6.894A2 2 0 0 1 6.866 4.21m1.099 1.624L10.19 3.61a8.5 8.5 0 0 1 1.723 2.08.61.61 0 0 1 0 .622C11.366 7.251 9.467 10 6 10a6.1 6.1 0 0 1-1.903-.297l1.71-1.71Q5.889 8 5.973 8a2 2 0 0 0 1.993-2.166" clip-rule="evenodd"/></symbol><symbol viewBox="0 0 16 16" id="hide-16" xmlns="http://www.w3.org/2000/svg"><path fill="currentColor" fill-rule="evenodd" d="M3.997 12.003 2.5 13.5a.707.707 0 1 1-1-1l1.28-1.28A10.6 10.6 0 0 1 .185 8.325a.63.63 0 0 1 0-.652C.852 6.563 3.357 3 8 3c.956 0 1.822.151 2.6.4l1.9-1.9a.707.707 0 0 1 1 1l-1.497 1.497L10.12 5.88l-4.24 4.24zM5.13 8.87l3.74-3.74a3 3 0 0 0-3.743 3.743m8.09-4.09L10.87 7.131a3.003 3.003 0 0 1-3.743 3.742L5.4 12.6c.778.25 1.644.4 2.6.4 4.643 0 7.148-3.563 7.816-4.674a.63.63 0 0 0 0-.652c-.35-.581-1.2-1.832-2.597-2.893" clip-rule="evenodd"/></symbol><symbol viewBox="0 0 24 24" id="hide-24" xmlns="http://www.w3.org/2000/svg"><path fill="currentColor" fill-rule="evenodd" d="M6.985 17.564 5.5 19.155a.707.707 0 1 1-1.033-.964l1.244-1.333c-2.63-1.669-4.135-3.998-4.623-4.844a.64.64 0 0 1 0-.648C1.88 9.99 5.367 4.69 12 4.69c1.621 0 3.055.316 4.306.815l1.195-1.28a.707.707 0 0 1 1.033.964l-.887.95-2.556 2.74-5.687 6.092zm1.482-3.66 5.515-5.908a4.1 4.1 0 0 0-1.98-.506c-2.298 0-4.16 1.88-4.16 4.2 0 .813.229 1.572.625 2.215m10.398-6.997-3.003 3.218c.192.483.298 1.012.298 1.565 0 2.32-1.862 4.2-4.159 4.2-.46 0-.904-.076-1.319-.216l-2.289 2.453c1.08.35 2.28.563 3.608.563 6.635 0 10.12-5.3 10.914-6.677a.64.64 0 0 0 0-.647c-.451-.783-1.773-2.835-4.05-4.459" clip-rule="evenodd"/></symbol><symbol viewBox="0 0 16 16" id="hourglass-16" xmlns="http://www.w3.org/2000/svg"><path fill="currentColor" fill-rule="evenodd" d="M4 0h-.25A.75.75 0 0 0 3 .75v.5c0 .414.336.75.75.75H4v2.625a.75.75 0 0 0 .3.6L8 8l-3.7 2.775a.75.75 0 0 0-.3.6V14h-.25a.75.75 0 0 0-.75.75v.5c0 .414.336.75.75.75h8.5a.75.75 0 0 0 .75-.75v-.5a.75.75 0 0 0-.75-.75H12v-2.625a.75.75 0 0 0-.3-.6L8 8l3.7-2.775a.75.75 0 0 0 .3-.6V2h.25a.75.75 0 0 0 .75-.75v-.5a.75.75 0 0 0-.75-.75H4m6 12v2H6v-2l2-1.5z" clip-rule="evenodd"/></symbol><symbol viewBox="0 0 24 24" id="hourglass-24" xmlns="http://www.w3.org/2000/svg"><path fill="currentColor" fill-rule="evenodd" d="M3 2a1 1 0 0 1 1-1h16a1 1 0 1 1 0 2h-2v4.465a1 1 0 0 1-.445.832L12 12 6.445 8.297A1 1 0 0 1 6 7.465V3H4a1 1 0 0 1-1-1m9 10-5.555 3.703a1 1 0 0 0-.445.832V21H4a1 1 0 1 0 0 2h16a1 1 0 1 0 0-2h-2v-4.465a1 1 0 0 0-.445-.832zm-4 9v-3.93l4-2.666 4 2.666V21z" clip-rule="evenodd"/></symbol><symbol viewBox="0 0 16 16" id="images-16" xmlns="http://www.w3.org/2000/svg"><path d="M1.523 5.312A.375.375 0 0 0 1 5.657v5.808a.75.75 0 0 0 .451.688l5.024 2.184A.375.375 0 0 0 7 13.993V8.154a.75.75 0 0 0-.455-.69zM9 13.993c0 .27.277.452.525.344l5.024-2.184a.75.75 0 0 0 .451-.688V5.657a.375.375 0 0 0-.523-.345L9.455 7.465A.75.75 0 0 0 9 8.154zm3.891-10.177a.375.375 0 0 0 .002-.689L8.299 1.13a.75.75 0 0 0-.598 0L3.107 3.127c-.301.131-.3.56.002.689l4.596 1.97a.75.75 0 0 0 .59 0z" fill="currentColor"/></symbol><symbol viewBox="0 0 24 24" id="images-24" xmlns="http://www.w3.org/2000/svg"><path fill="currentColor" fill-rule="evenodd" d="M11.499 11.71a1 1 0 0 0 1.002 0l8.252-4.777a.5.5 0 0 0 0-.866L12.5 1.29a1 1 0 0 0-1.002 0L3.247 6.067a.5.5 0 0 0 0 .866zM11 14.088a1 1 0 0 0-.514-.874L2.743 8.913A.5.5 0 0 0 2 9.35v8.062a1 1 0 0 0 .514.874l7.743 4.301A.5.5 0 0 0 11 22.15zm2 0a1 1 0 0 1 .514-.874l7.743-4.301A.5.5 0 0 1 22 9.35v8.062a1 1 0 0 1-.514.874l-7.743 4.301A.5.5 0 0 1 13 22.15z" clip-rule="evenodd"/></symbol><symbol viewBox="0 0 12 12" id="info-12" xmlns="http://www.w3.org/2000/svg"><path fill="currentColor" fill-rule="evenodd" d="M6 0a6 6 0 1 0 0 12A6 6 0 0 0 6 0m-.083 9a.667.667 0 0 1-.667-.667V5.667c0-.368.299-.667.667-.667h.166c.368 0 .667.299.667.667v2.666A.667.667 0 0 1 6.083 9zm0-5a.667.667 0 0 1-.667-.667v-.166c0-.368.299-.667.667-.667h.166c.368 0 .667.299.667.667v.166A.667.667 0 0 1 6.083 4z" clip-rule="evenodd"/></symbol><symbol viewBox="0 0 16 16" id="info-16" xmlns="http://www.w3.org/2000/svg"><path fill="currentColor" fill-rule="evenodd" d="M8 15A7 7 0 1 0 8 1a7 7 0 0 0 0 14m.25-11a.75.75 0 0 1 .75.75v.5a.75.75 0 0 1-.75.75h-.5A.75.75 0 0 1 7 5.25v-.5A.75.75 0 0 1 7.75 4zm0 3a.75.75 0 0 1 .75.75v3.5a.75.75 0 0 1-.75.75h-.5a.75.75 0 0 1-.75-.75v-3.5A.75.75 0 0 1 7.75 7z" clip-rule="evenodd"/></symbol><symbol viewBox="0 0 24 24" id="info-24" xmlns="http://www.w3.org/2000/svg"><path fill="currentColor" fill-rule="evenodd" d="M12 22c5.523 0 10-4.477 10-10S17.523 2 12 2 2 6.477 2 12s4.477 10 10 10M11 8a1 1 0 1 1 2 0 1 1 0 0 1-2 0m0 3a1 1 0 1 1 2 0v5a1 1 0 1 1-2 0z" clip-rule="evenodd"/></symbol><symbol viewBox="0 0 16 16" id="instances-16" xmlns="http://www.w3.org/2000/svg"><path fill="currentColor" fill-rule="evenodd" d="M6 1.75A.75.75 0 0 1 6.75 1h7.5a.75.75 0 0 1 .75.75v7.5a.75.75 0 0 1-.75.75H13V3.75a.75.75 0 0 0-.75-.75H6zm-5 4A.75.75 0 0 1 1.75 5h8.5a.75.75 0 0 1 .75.75v8.5a.75.75 0 0 1-.75.75h-8.5a.75.75 0 0 1-.75-.75z" clip-rule="evenodd"/></symbol><symbol viewBox="0 0 24 24" id="instances-24" xmlns="http://www.w3.org/2000/svg"><path fill="currentColor" fill-rule="evenodd" d="M7 3a1 1 0 0 1 1-1h13a1 1 0 0 1 1 1v13a1 1 0 0 1-1 1h-2V6a1 1 0 0 0-1-1H7zM3 7h13a1 1 0 0 1 1 1v13a1 1 0 0 1-1 1H3a1 1 0 0 1-1-1V8a1 1 0 0 1 1-1" clip-rule="evenodd"/></symbol><symbol viewBox="0 0 16 16" id="integration-16" xmlns="http://www.w3.org/2000/svg"><path fill="currentColor" fill-rule="evenodd" d="M1.75 1a.75.75 0 0 0-.75.75v4.5c0 .414.336.75.75.75h4.5A.75.75 0 0 0 7 6.25v-4.5A.75.75 0 0 0 6.25 1zm9.25.75a.75.75 0 0 1 .75-.75h.5a.75.75 0 0 1 .75.75V3h1.25a.75.75 0 0 1 .75.75v.5a.75.75 0 0 1-.75.75H13v1.25a.75.75 0 0 1-.75.75h-.5a.75.75 0 0 1-.75-.75V5H9.75A.75.75 0 0 1 9 4.25v-.5A.75.75 0 0 1 9.75 3H11zm-10 8A.75.75 0 0 1 1.75 9h4.5a.75.75 0 0 1 .75.75v4.5a.75.75 0 0 1-.75.75h-4.5a.75.75 0 0 1-.75-.75zM9.75 9a.75.75 0 0 0-.75.75v4.5c0 .414.336.75.75.75h4.5a.75.75 0 0 0 .75-.75v-4.5a.75.75 0 0 0-.75-.75z" clip-rule="evenodd"/></symbol><symbol viewBox="0 0 16 16" id="ip-global-16" xmlns="http://www.w3.org/2000/svg"><path fill="currentColor" fill-rule="evenodd" d="M5.75 8q0-.636.024-1.25h4.452a33 33 0 0 1-.023 3H5.797A32 32 0 0 1 5.75 8m-1.5 0q0-.635.023-1.25H.097a8.1 8.1 0 0 0 .095 3h4.103Q4.25 8.894 4.25 8M.688 11.25a8.03 8.03 0 0 0 4.54 4.257l-.068-.22c-.34-1.135-.599-2.512-.752-4.037zm8.326 4.686a8 8 0 0 1-2.028 0 10 10 0 0 1-.389-1.08c-.298-.995-.535-2.224-.681-3.606h4.168c-.146 1.382-.383 2.611-.681 3.605q-.185.616-.389 1.081m1.758-.43a8.03 8.03 0 0 0 4.54-4.256h-3.72c-.153 1.525-.412 2.902-.752 4.037zm5.036-5.756a8 8 0 0 0 .095-3h-4.176a34 34 0 0 1-.022 3zm-.293-4.5A8.02 8.02 0 0 0 10.772.493l.068.22c.377 1.257.654 2.812.798 4.537zM6.985.064a8 8 0 0 1 2.03 0q.202.465.388 1.08c.334 1.113.59 2.52.73 4.106H5.867c.14-1.587.395-2.993.729-4.106q.186-.615.388-1.08m-1.757.43A8.02 8.02 0 0 0 .485 5.25h3.877c.144-1.725.421-3.28.798-4.537z" clip-rule="evenodd"/></symbol><symbol viewBox="0 0 24 24" id="ip-global-24" xmlns="http://www.w3.org/2000/svg"><path fill="currentColor" fill-rule="evenodd" d="M13.412 1.09a11 11 0 0 0-2.824 0c-.332.453-.671 1.049-.992 1.798C9.108 4.026 8.703 5.42 8.423 7h7.154c-.28-1.58-.685-2.974-1.173-4.112-.32-.749-.66-1.345-.992-1.798m2.694.702c.656 1.436 1.173 3.212 1.5 5.208h4.195a11.04 11.04 0 0 0-5.695-5.208M22.586 9h-4.724a32.39 32.39 0 0 1 0 6h4.724c.27-.954.414-1.96.414-3s-.144-2.046-.414-3m-.785 8h-4.195c-.327 1.995-.844 3.772-1.5 5.208A11.04 11.04 0 0 0 21.801 17m-8.389 5.91a11 11 0 0 1-2.824 0c-.332-.453-.671-1.049-.992-1.798-.488-1.138-.893-2.532-1.173-4.112h7.154c-.28 1.58-.685 2.974-1.173 4.112-.32.749-.66 1.345-.992 1.798m-5.518-.702A11.04 11.04 0 0 1 2.199 17h4.195c.327 1.995.844 3.772 1.5 5.208M1.414 15h4.724a32.39 32.39 0 0 1 0-6H1.414C1.144 9.954 1 10.96 1 12s.144 2.046.414 3M2.2 7h4.195c.327-1.996.844-3.772 1.5-5.208A11.04 11.04 0 0 0 2.199 7M8 12c0 1.04.052 2.044.147 3h7.706c.095-.956.147-1.96.147-3s-.052-2.044-.147-3H8.147C8.052 9.956 8 10.96 8 12" clip-rule="evenodd"/></symbol><symbol viewBox="0 0 16 16" id="ip-local-16" xmlns="http://www.w3.org/2000/svg"><path fill="currentColor" fill-rule="evenodd" d="M8.736 6.909a3 3 0 0 1-1.07.073L6.038 9.799a3 3 0 1 1-1.32-.713l1.53-2.65a3 3 0 1 1 3.804-.247l1.632 2.827Q11.84 9.001 12 9a3 3 0 1 1-1.737.554z" clip-rule="evenodd"/></symbol><symbol viewBox="0 0 24 24" id="ip-local-24" xmlns="http://www.w3.org/2000/svg"><path fill="currentColor" fill-rule="evenodd" d="M12.555 9.962a4 4 0 0 1-1.354-.042l-2.812 4.871a4 4 0 1 1-1.872-.758L9.4 9.04a4 4 0 1 1 5.018.147l2.82 4.886Q17.608 14 18 14a4 4 0 1 1-2.572.937z" clip-rule="evenodd"/></symbol><symbol viewBox="0 0 16 16" id="issues-16" xmlns="http://www.w3.org/2000/svg"><path fill="currentColor" fill-rule="evenodd" d="M2.75 1a.75.75 0 0 0-.75.75V13h-.25a.75.75 0 0 0-.75.75v.5c0 .414.336.75.75.75h2.5a.75.75 0 0 0 .75-.75v-.5a.75.75 0 0 0-.75-.75H4V8h3v1.25c0 .414.336.75.75.75h4.5a.75.75 0 0 0 .75-.75v-4.5a.75.75 0 0 0-.75-.75H9V2.75A.75.75 0 0 0 8.25 2H4v-.25A.75.75 0 0 0 3.25 1z" clip-rule="evenodd"/></symbol><symbol viewBox="0 0 24 24" id="issues-24" xmlns="http://www.w3.org/2000/svg"><path fill="currentColor" fill-rule="evenodd" d="M6 1a1 1 0 0 0-1 1v19H4a1 1 0 1 0 0 2h4a1 1 0 1 0 0-2H7v-9h6v2a1 1 0 0 0 1 1h6a1 1 0 0 0 1-1V7a1 1 0 0 0-1-1h-4V4a1 1 0 0 0-1-1H7V2a1 1 0 0 0-1-1" clip-rule="evenodd"/></symbol><symbol viewBox="0 0 12 12" id="key-12" xmlns="http://www.w3.org/2000/svg"><path fill="currentColor" fill-rule="evenodd" d="m10.972.472.556.556c.26.26.26.683 0 .944l-.278.278.278.278c.26.26.26.683 0 .944l-.056.056a.667.667 0 0 1-.944 0l-.278-.278-1 1 .278.278c.26.26.26.683 0 .944l-.056.056a.667.667 0 0 1-.944 0L8.25 5.25 7.044 6.456a3.75 3.75 0 1 1-1.5-1.5L10.028.472c.26-.26.683-.26.944 0M3.75 10a1.75 1.75 0 1 0 0-3.5 1.75 1.75 0 0 0 0 3.5" clip-rule="evenodd"/></symbol><symbol viewBox="0 0 16 16" id="key-16" xmlns="http://www.w3.org/2000/svg"><path fill="currentColor" fill-rule="evenodd" d="m14.53.53.94.94a.75.75 0 0 1 0 1.06L15 3l.5.5a.707.707 0 0 1-1 1L14 4l-1 1 .47.47a.75.75 0 0 1 0 1.06l-.94.94a.75.75 0 0 1-1.06 0L11 7 9.392 8.608a5 5 0 1 1-2-2L13.47.53a.75.75 0 0 1 1.06 0M5 13a2 2 0 1 0 0-4 2 2 0 0 0 0 4" clip-rule="evenodd"/></symbol><symbol viewBox="0 0 24 24" id="key-24" xmlns="http://www.w3.org/2000/svg"><path fill="currentColor" fill-rule="evenodd" d="M18.173 2.707a1 1 0 0 1 1.414 0l.707.707a1 1 0 0 1 0 1.414l-.233.233 1.232 1.232a1 1 0 0 1-1.414 1.414l-1.232-1.231-1.464 1.464 1.231 1.232a1 1 0 0 1 0 1.414l-.707.707a1 1 0 0 1-1.414 0L15.06 10.06l-1.437 1.44a6.5 6.5 0 1 1-2.359-1.884zM8.5 19a3.5 3.5 0 1 0 0-7 3.5 3.5 0 0 0 0 7" clip-rule="evenodd"/></symbol><symbol viewBox="0 0 16 16" id="like-16" xmlns="http://www.w3.org/2000/svg"><path fill="currentColor" fill-rule="evenodd" d="M7.621 1.473 4 6v9h7.536a.75.75 0 0 0 .671-.415L15 9V8a2 2 0 0 0-2-2H9l.61-2.444a2 2 0 0 0-1.045-2.273l-.023-.012a.75.75 0 0 0-.92.202M1.75 6a.75.75 0 0 0-.75.75v7.5c0 .414.336.75.75.75H3V6z" clip-rule="evenodd"/></symbol><symbol viewBox="0 0 24 24" id="like-24" xmlns="http://www.w3.org/2000/svg"><path fill="currentColor" fill-rule="evenodd" d="M12.563 2.512 7 9.018V22h10.323a1 1 0 0 0 .928-.629L22 12v-.982a2 2 0 0 0-2-2h-5.571l1.098-4.207a2 2 0 0 0-1.302-2.403l-.586-.195a1 1 0 0 0-1.076.299M2.75 9a.75.75 0 0 0-.75.75v11.5c0 .414.336.75.75.75H5V9z" clip-rule="evenodd"/></symbol><symbol viewBox="0 0 16 16" id="link-16" xmlns="http://www.w3.org/2000/svg"><g fill="currentColor"><path d="m6.586 12.243 1.59-1.591a.75.75 0 0 1 1.061 0l.354.353a.75.75 0 0 1 0 1.06L8 13.658A4 4 0 0 1 2.343 8l1.591-1.591a.75.75 0 0 1 1.06 0l.354.354a.75.75 0 0 1 0 1.06l-1.59 1.591a2 2 0 1 0 2.828 2.829m5.48-2.652a.75.75 0 0 1-1.06 0l-.354-.354a.75.75 0 0 1 0-1.06l1.59-1.591a2 2 0 1 0-2.828-2.829l-1.59 1.591a.75.75 0 0 1-1.061 0l-.354-.353a.75.75 0 0 1 0-1.06L8 2.342A4 4 0 0 1 13.657 8z"/><path d="M9.945 5.702a.75.75 0 0 0-1.061 0L5.702 8.884a.75.75 0 0 0 0 1.06l.353.354a.75.75 0 0 0 1.061 0l3.182-3.182a.75.75 0 0 0 0-1.06z"/></g></symbol><symbol viewBox="0 0 16 16" id="load-balancer-16" xmlns="http://www.w3.org/2000/svg"><path fill="currentColor" fill-rule="evenodd" d="M10.25 0h-4.5A.75.75 0 0 0 5 .75v3.5c0 .414.336.75.75.75H7v2H2.75a.75.75 0 0 0-.75.75V11H.75a.75.75 0 0 0-.75.75v3.5c0 .414.336.75.75.75h4.5a.75.75 0 0 0 .75-.75v-3.5a.75.75 0 0 0-.75-.75H4V9h8v2h-1.25a.75.75 0 0 0-.75.75v3.5c0 .414.336.75.75.75h4.5a.75.75 0 0 0 .75-.75v-3.5a.75.75 0 0 0-.75-.75H14V7.75a.75.75 0 0 0-.75-.75H9V5h1.25a.75.75 0 0 0 .75-.75V.75a.75.75 0 0 0-.75-.75" clip-rule="evenodd"/></symbol><symbol viewBox="0 0 24 24" id="load-balancer-24" xmlns="http://www.w3.org/2000/svg"><path fill="currentColor" fill-rule="evenodd" d="M10 2a1 1 0 0 0-1 1v4a1 1 0 0 0 1 1h1v4H4a1 1 0 0 0-1 1v5a1 1 0 0 0-1 1v2a1 1 0 0 0 1 1h2a1 1 0 0 0 1-1v-2a1 1 0 0 0-1-1v-4h6v4a1 1 0 0 0-1 1v2a1 1 0 0 0 1 1h2a1 1 0 0 0 1-1v-2a1 1 0 0 0-1-1v-4h6v4a1 1 0 0 0-1 1v2a1 1 0 0 0 1 1h2a1 1 0 0 0 1-1v-2a1 1 0 0 0-1-1v-5a1 1 0 0 0-1-1h-7V8h1a1 1 0 0 0 1-1V3a1 1 0 0 0-1-1z" clip-rule="evenodd"/></symbol><symbol viewBox="0 0 12 12" id="loader-12" xmlns="http://www.w3.org/2000/svg"><circle cx="6" cy="6" r="5.25" stroke="#1C2225" stroke-width="1.5"/><path fill="currentColor" d="M10.5 5.999a4.5 4.5 0 0 0-.464-1.99l-.14-.259a4.5 4.5 0 0 0-1.395-1.491l-.251-.156a4.5 4.5 0 0 0-1.585-.554C6.3 1.495 6 1.201 6 .833V.667c0-.368.3-.67.666-.63A6 6 0 0 1 9 .804l.334.208a6 6 0 0 1 1.862 1.987l.186.348A6 6 0 0 1 12 5.999l-.013.394a6 6 0 0 1-.49 2.011c-.147.338-.558.446-.877.262l-.073-.042-.072-.042c-.319-.184-.423-.59-.288-.933.17-.432.273-.889.303-1.354z"/></symbol><symbol viewBox="0 0 24 24" id="location-24" xmlns="http://www.w3.org/2000/svg"><path fill="currentColor" fill-rule="evenodd" d="M18 7a6 6 0 0 1-5 5.917V17h-2v-4.083A6.002 6.002 0 0 1 12 1a6 6 0 0 1 6 6m3 13c0 1.657-4.03 3-9 3s-9-1.343-9-3c0-1.544 3.5-2.816 8-2.982V20a1 1 0 1 0 2 0v-2.982c4.5.166 8 1.438 8 2.982" clip-rule="evenodd"/></symbol><symbol viewBox="0 0 16 16" id="logs-16" xmlns="http://www.w3.org/2000/svg"><path fill="currentColor" fill-rule="evenodd" d="M.75 3a.75.75 0 0 0-.75.75v2.5c0 .414.336.75.75.75H1v4.25c0 .414.336.75.75.75H6v-2H3V7h.25A.75.75 0 0 0 4 6.25v-2.5A.75.75 0 0 0 3.25 3zm6 0a.75.75 0 0 0-.75.75v2.5c0 .414.336.75.75.75h8.5a.75.75 0 0 0 .75-.75v-2.5a.75.75 0 0 0-.75-.75zM6 9.75A.75.75 0 0 1 6.75 9h8.5a.75.75 0 0 1 .75.75v2.5a.75.75 0 0 1-.75.75h-8.5a.75.75 0 0 1-.75-.75z" clip-rule="evenodd"/></symbol><symbol viewBox="0 0 24 24" id="logs-24" xmlns="http://www.w3.org/2000/svg"><path fill="currentColor" fill-rule="evenodd" d="M1 4a1 1 0 0 1 1-1h4a1 1 0 0 1 1 1v2a1 1 0 0 1-1 1H5v3.973l4 .054V11a1 1 0 0 1 1-1h12a1 1 0 0 1 1 1v2a1 1 0 0 1-1 1H10a1 1 0 0 1-1-.973l-4-.054V18h4a1 1 0 0 1 1-1h12a1 1 0 0 1 1 1v2a1 1 0 0 1-1 1H10a1 1 0 0 1-1-1H4a1 1 0 0 1-1-1V7H2a1 1 0 0 1-1-1zm8 0a1 1 0 0 1 1-1h12a1 1 0 0 1 1 1v2a1 1 0 0 1-1 1H10a1 1 0 0 1-1-1z" clip-rule="evenodd"/></symbol><symbol viewBox="0 0 12 12" id="menu-close-12" xmlns="http://www.w3.org/2000/svg"><path fill="currentColor" fill-rule="evenodd" d="M2.886 1.474a.67.67 0 0 0-.948 0l-.464.464a.67.67 0 0 0 0 .948l3.063 3.063-3.063 3.063a.67.67 0 0 0 0 .947l.464.464a.67.67 0 0 0 .948 0L5.949 7.36l3.063 3.063a.67.67 0 0 0 .947 0l.464-.464a.67.67 0 0 0 0-.947L7.36 5.949l3.063-3.063a.67.67 0 0 0 0-.948l-.464-.464a.67.67 0 0 0-.947 0L5.948 4.537z" clip-rule="evenodd"/></symbol><symbol viewBox="0 0 12 12" id="menu-open-12" xmlns="http://www.w3.org/2000/svg"><path fill="currentColor" fill-rule="evenodd" d="M1 1.667C1 1.299 1.299 1 1.667 1h8.666c.368 0 .667.299.667.667v.666a.667.667 0 0 1-.667.667H1.667A.667.667 0 0 1 1 2.333zm0 4C1 5.299 1.299 5 1.667 5h8.666c.368 0 .667.299.667.667v.666a.667.667 0 0 1-.667.667H1.667A.667.667 0 0 1 1 6.333zm10 4A.667.667 0 0 0 10.333 9H1.667A.667.667 0 0 0 1 9.667v.666c0 .368.299.667.667.667h8.666a.667.667 0 0 0 .667-.667z" clip-rule="evenodd"/></symbol><symbol viewBox="0 0 16 16" id="metrics-16" xmlns="http://www.w3.org/2000/svg"><path fill="currentColor" fill-rule="evenodd" d="M9 1.75c0-.414.337-.755.749-.704a6 6 0 0 1 5.205 5.205c.05.412-.29.749-.704.749h-4.5A.75.75 0 0 1 9 6.25zM1 9a6 6 0 0 1 5.251-5.954c.412-.05.749.29.749.704v4.5c0 .414.336.75.75.75h4.5c.414 0 .755.337.704.749A6.001 6.001 0 0 1 1 9" clip-rule="evenodd"/></symbol><symbol viewBox="0 0 24 24" id="metrics-24" xmlns="http://www.w3.org/2000/svg"><path fill="currentColor" fill-rule="evenodd" d="M13 10a1 1 0 0 0 1 1h7c.552 0 1.006-.45.945-.998a9.004 9.004 0 0 0-7.947-7.947C13.45 1.995 13 2.448 13 3zM2 13a9 9 0 0 1 8.002-8.945c.549-.06.998.393.998.945v7a1 1 0 0 0 1 1h7c.552 0 1.006.45.945.998A9.001 9.001 0 0 1 2 13" clip-rule="evenodd"/></symbol><symbol viewBox="0 0 16 16" id="monitoring-16" xmlns="http://www.w3.org/2000/svg"><path fill="currentColor" fill-rule="evenodd" d="M11 .75v.5c0 .414.336.75.75.75H14v2.25c0 .414.336.75.75.75h.5a.75.75 0 0 0 .75-.75V.75a.75.75 0 0 0-.75-.75h-3.5a.75.75 0 0 0-.75.75M1.25 11h-.5a.75.75 0 0 0-.75.75v3.5c0 .414.336.75.75.75h3.5a.75.75 0 0 0 .75-.75v-.5a.75.75 0 0 0-.75-.75H2v-2.25a.75.75 0 0 0-.75-.75m13.5 0h.5a.75.75 0 0 1 .75.75v3.5a.747.747 0 0 1-.75.75h-3.5a.75.75 0 0 1-.75-.75v-.5a.75.75 0 0 1 .75-.75H14v-2.25a.75.75 0 0 1 .75-.75M5 1.25v-.5A.75.75 0 0 0 4.25 0H.75A.75.75 0 0 0 0 .75v3.5c0 .414.336.75.75.75h.5A.75.75 0 0 0 2 4.25V2h2.25A.75.75 0 0 0 5 1.25m-1 3.5A.75.75 0 0 1 4.75 4h6.5a.75.75 0 0 1 .75.75v1.5a.75.75 0 0 1-.75.75h-6.5A.75.75 0 0 1 4 6.25zM4.75 9a.75.75 0 0 0-.75.75v1.5c0 .414.336.75.75.75h6.5a.75.75 0 0 0 .75-.75v-1.5a.75.75 0 0 0-.75-.75z" clip-rule="evenodd"/></symbol><symbol viewBox="0 0 24 24" id="monitoring-24" xmlns="http://www.w3.org/2000/svg"><path fill="currentColor" fill-rule="evenodd" d="M19 5v3a1 1 0 0 0 1 1h1a1 1 0 0 0 1-1V3a1 1 0 0 0-1-1h-5a1 1 0 0 0-1 1v1a1 1 0 0 0 1 1zM8 7a1 1 0 0 0-1 1v2a1 1 0 0 0 1 1h8a1 1 0 0 0 1-1V8a1 1 0 0 0-1-1zm0 6a1 1 0 0 0-1 1v2a1 1 0 0 0 1 1h8a1 1 0 0 0 1-1v-2a1 1 0 0 0-1-1zm-3 6h3a1 1 0 0 1 1 1v1a1 1 0 0 1-1 1H3a1 1 0 0 1-1-1v-5a1 1 0 0 1 1-1h1a1 1 0 0 1 1 1zM5 5v3a1 1 0 0 1-1 1H3a1 1 0 0 1-1-1V3a1 1 0 0 1 1-1h5a1 1 0 0 1 1 1v1a1 1 0 0 1-1 1zm11 14a1 1 0 0 0-1 1v1a1 1 0 0 0 1 1h5a1 1 0 0 0 1-1v-5a1 1 0 0 0-1-1h-1a1 1 0 0 0-1 1v3z" clip-rule="evenodd"/></symbol><symbol viewBox="0 0 12 12" id="more-12" xmlns="http://www.w3.org/2000/svg"><path fill="currentColor" fill-rule="evenodd" d="M5 1.667C5 1.299 5.299 1 5.667 1h.666c.368 0 .667.299.667.667v.666A.667.667 0 0 1 6.333 3h-.666A.667.667 0 0 1 5 2.333zm0 4C5 5.299 5.299 5 5.667 5h.666c.368 0 .667.299.667.667v.666A.667.667 0 0 1 6.333 7h-.666A.667.667 0 0 1 5 6.333zm2 4A.667.667 0 0 0 6.333 9h-.666A.667.667 0 0 0 5 9.667v.666c0 .368.299.667.667.667h.666A.667.667 0 0 0 7 10.333z" clip-rule="evenodd"/></symbol><symbol viewBox="0 0 16 16" id="networking-16" xmlns="http://www.w3.org/2000/svg"><path fill="currentColor" fill-rule="evenodd" d="M6.25 1h-4.5a.75.75 0 0 0-.75.75v4.5c0 .414.336.75.75.75h4.5A.75.75 0 0 0 7 6.25v-4.5A.75.75 0 0 0 6.25 1m8 0h-4.5a.75.75 0 0 0-.75.75v4.5c0 .414.336.75.75.75h4.5a.75.75 0 0 0 .75-.75v-4.5a.75.75 0 0 0-.75-.75m-4.5 8h4.5a.75.75 0 0 1 .75.75v4.5a.75.75 0 0 1-.75.75h-4.5a.75.75 0 0 1-.75-.75v-4.5A.75.75 0 0 1 9.75 9m-6.5 0h-.5a.75.75 0 0 0-.75.75v3.5c0 .414.336.75.75.75h3.5a.75.75 0 0 0 .75-.75v-.5a.75.75 0 0 0-.75-.75H4V9.75A.75.75 0 0 0 3.25 9" clip-rule="evenodd"/></symbol><symbol viewBox="0 0 24 24" id="networking-24" xmlns="http://www.w3.org/2000/svg"><path fill="currentColor" fill-rule="evenodd" d="M3 2h7a1 1 0 0 1 1 1v7a1 1 0 0 1-1 1H3a1 1 0 0 1-1-1V3a1 1 0 0 1 1-1m11 0h7a1 1 0 0 1 1 1v7a1 1 0 0 1-1 1h-7a1 1 0 0 1-1-1V3a1 1 0 0 1 1-1m7 11h-7a1 1 0 0 0-1 1v7a1 1 0 0 0 1 1h7a1 1 0 0 0 1-1v-7a1 1 0 0 0-1-1M6 17a1 1 0 0 0 1 1h3a1 1 0 1 0 0-2H8v-2a1 1 0 1 0-2 0z" clip-rule="evenodd"/></symbol><symbol viewBox="0 0 16 16" id="new-window-16" xmlns="http://www.w3.org/2000/svg"><path fill="currentColor" fill-rule="evenodd" d="M14.25 1h-8.5a.75.75 0 0 0-.75.75v8.5c0 .414.336.75.75.75h8.5a.75.75 0 0 0 .75-.75v-8.5a.75.75 0 0 0-.75-.75M7 3.75A.75.75 0 0 1 7.75 3h4.5a.75.75 0 0 1 .75.75v.5a.75.75 0 0 1-.75.75h-4.5A.75.75 0 0 1 7 4.25zM1.75 5H4v2H3v6h6v-1h2v2.25a.75.75 0 0 1-.75.75h-8.5l-.077-.004A.75.75 0 0 1 1 14.25v-8.5A.75.75 0 0 1 1.75 5" clip-rule="evenodd"/></symbol><symbol viewBox="0 0 12 12" id="next-arrow-12" xmlns="http://www.w3.org/2000/svg"><path fill="currentColor" d="M3.47 1.47a.75.75 0 0 1 1.06 0l4 4a.75.75 0 0 1 0 1.06l-4 4a.75.75 0 0 1-1.06-1.06L6.94 6 3.47 2.53a.75.75 0 0 1 0-1.06"/></symbol><symbol viewBox="0 0 16 16" id="notifications-16" xmlns="http://www.w3.org/2000/svg"><path fill="currentColor" fill-rule="evenodd" d="M8 1a1 1 0 0 0-1 1 .125.125 0 0 1-.098.12A5 5 0 0 0 3 7v2.69a.75.75 0 0 1-.22.53l-.573.573a.707.707 0 0 0 .5 1.207h10.586a.707.707 0 0 0 .5-1.207l-.573-.573a.75.75 0 0 1-.22-.53V7a5 5 0 0 0-3.902-4.88A.125.125 0 0 1 9 2a1 1 0 0 0-1-1m2 12a2 2 0 1 1-4 0z" clip-rule="evenodd"/></symbol><symbol viewBox="0 0 12 12" id="open-link-12" xmlns="http://www.w3.org/2000/svg"><path fill="currentColor" fill-rule="evenodd" d="M1.667 1H5.02l.99.99.51.51H2.5v7h7V5.48l.51.51.99.99v3.353a.667.667 0 0 1-.667.667H1.667A.667.667 0 0 1 1 10.333V1.667C1 1.299 1.299 1 1.667 1M9.5 3.5l-1-1-.1-.1-.261-.261L7 1h3.333c.368 0 .667.299.667.667V5L9.862 3.862 9.6 3.6z" clip-rule="evenodd"/></symbol><symbol viewBox="0 0 16 16" id="organization-16" xmlns="http://www.w3.org/2000/svg"><path fill="currentColor" fill-rule="evenodd" d="M7.47.53a.75.75 0 0 1 1.06 0l2.273 2.273a.75.75 0 0 1 0 1.06L8.53 6.137a.75.75 0 0 1-1.06 0L5.197 3.864a.75.75 0 0 1 0-1.061zm8 8a.75.75 0 0 0 0-1.06l-2.273-2.273a.75.75 0 0 0-1.06 0L9.863 7.47a.75.75 0 0 0 0 1.06l2.272 2.273a.75.75 0 0 0 1.061 0zm-4.667 4.667a.75.75 0 0 0 0-1.06L8.53 9.863a.75.75 0 0 0-1.06 0l-2.273 2.272a.75.75 0 0 0 0 1.061L7.47 15.47a.75.75 0 0 0 1.06 0zM6.136 8.53a.75.75 0 0 0 0-1.06L3.864 5.197a.75.75 0 0 0-1.061 0L.53 7.47a.75.75 0 0 0 0 1.06l2.273 2.273a.75.75 0 0 0 1.06 0z" clip-rule="evenodd"/></symbol><symbol viewBox="0 0 24 24" id="organization-24" xmlns="http://www.w3.org/2000/svg"><path d="M9.918 12.707a1 1 0 0 0 0-1.414L6.52 7.895a1 1 0 0 0-1.415 0l-3.398 3.398a1 1 0 0 0 0 1.414l3.398 3.398a1 1 0 0 0 1.415 0zm12.375 0a1 1 0 0 0 0-1.414l-3.398-3.398a1 1 0 0 0-1.415 0l-3.398 3.398a1 1 0 0 0 0 1.414l3.398 3.398a1 1 0 0 0 1.415 0zm-11-11a1 1 0 0 1 1.414 0l3.398 3.398a1 1 0 0 1 0 1.415l-3.398 3.398a1 1 0 0 1-1.414 0L7.895 6.52a1 1 0 0 1 0-1.415zm4.812 17.188a1 1 0 0 0 0-1.415l-3.398-3.398a1 1 0 0 0-1.414 0L7.895 17.48a1 1 0 0 0 0 1.415l3.398 3.398a1 1 0 0 0 1.414 0z" fill="currentColor"/></symbol><symbol viewBox="0 0 16 16" id="overview-16" xmlns="http://www.w3.org/2000/svg"><path fill="currentColor" fill-rule="evenodd" d="M7 1.75A.75.75 0 0 0 6.25 1h-4.5a.75.75 0 0 0-.75.75v6.5c0 .414.336.75.75.75h4.5A.75.75 0 0 0 7 8.25zm8 0a.75.75 0 0 0-.75-.75h-4.5a.75.75 0 0 0-.75.75v2.5c0 .414.336.75.75.75h4.5a.75.75 0 0 0 .75-.75zm-14 10a.75.75 0 0 1 .75-.75h4.5a.75.75 0 0 1 .75.75v2.5a.75.75 0 0 1-.75.75h-4.5a.75.75 0 0 1-.75-.75zm14-4a.75.75 0 0 0-.75-.75h-4.5a.75.75 0 0 0-.75.75v6.5c0 .414.336.75.75.75h4.5a.75.75 0 0 0 .75-.75z" clip-rule="evenodd"/></symbol><symbol viewBox="0 0 24 24" id="overview-24" xmlns="http://www.w3.org/2000/svg"><path fill="currentColor" fill-rule="evenodd" d="M11 3a1 1 0 0 0-1-1H3a1 1 0 0 0-1 1v10a1 1 0 0 0 1 1h7a1 1 0 0 0 1-1zm11 0a1 1 0 0 0-1-1h-7a1 1 0 0 0-1 1v4a1 1 0 0 0 1 1h7a1 1 0 0 0 1-1zM2 17a1 1 0 0 1 1-1h7a1 1 0 0 1 1 1v4a1 1 0 0 1-1 1H3a1 1 0 0 1-1-1zm20-6a1 1 0 0 0-1-1h-7a1 1 0 0 0-1 1v10a1 1 0 0 0 1 1h7a1 1 0 0 0 1-1z" clip-rule="evenodd"/></symbol><symbol viewBox="0 0 16 16" id="person-16" xmlns="http://www.w3.org/2000/svg"><path fill="currentColor" fill-rule="evenodd" d="M12 5a4 4 0 1 1-8 0 4 4 0 0 1 8 0M1 14.368A3.37 3.37 0 0 1 4.368 11h7.264A3.37 3.37 0 0 1 15 14.368a.63.63 0 0 1-.632.632H1.632A.63.63 0 0 1 1 14.368" clip-rule="evenodd"/></symbol><symbol viewBox="0 0 24 24" id="person-24" xmlns="http://www.w3.org/2000/svg"><path fill="currentColor" fill-rule="evenodd" d="M18 8A6 6 0 1 1 6 8a6 6 0 0 1 12 0M1 21.455A5.455 5.455 0 0 1 6.455 16h11.09A5.455 5.455 0 0 1 23 21.454a.545.545 0 0 1-.546.546H1.546A.545.545 0 0 1 1 21.454" clip-rule="evenodd"/></symbol><symbol viewBox="0 0 16 16" id="person-group-16" xmlns="http://www.w3.org/2000/svg"><path fill="currentColor" fill-rule="evenodd" d="M10.5 8a3.5 3.5 0 1 0 0-7 3.5 3.5 0 0 0 0 7M9 10a3 3 0 0 0-3 3v1.25c0 .414.336.75.75.75h7.5a.75.75 0 0 0 .75-.75V13a3 3 0 0 0-3-3zM5.508 4.212A4.98 4.98 0 0 0 6.68 7.726 2.5 2.5 0 0 1 2 6.5a2.5 2.5 0 0 1 3.508-2.288M5.168 11a5 5 0 0 0-.668 2.5V15H1.75a.75.75 0 0 1-.75-.75V14a3 3 0 0 1 3-3z" clip-rule="evenodd"/></symbol><symbol viewBox="0 0 24 24" id="person-group-24" xmlns="http://www.w3.org/2000/svg"><path fill="currentColor" fill-rule="evenodd" d="M16 12a5 5 0 1 0 0-10 5 5 0 0 0 0 10m-2 2a5 5 0 0 0-5 5v2a1 1 0 0 0 1 1h12a1 1 0 0 0 1-1v-2a5 5 0 0 0-5-5zM9.136 5.618Q9 6.29 9 7c0 1.557.508 2.995 1.368 4.158a4 4 0 1 1-1.232-5.54m-.886 9.388A6.97 6.97 0 0 0 7 19v3H2a1 1 0 0 1-1-1v-1a5 5 0 0 1 5-5h2q.126 0 .25.006" clip-rule="evenodd"/></symbol><symbol viewBox="0 0 12 12" id="prev-arrow-12" xmlns="http://www.w3.org/2000/svg"><path fill="currentColor" d="M8.53 1.47a.75.75 0 0 0-1.06 0l-4 4a.75.75 0 0 0 0 1.06l4 4a.75.75 0 0 0 1.06-1.06L5.06 6l3.47-3.47a.75.75 0 0 0 0-1.06"/></symbol><symbol viewBox="0 0 16 16" id="profile-16" xmlns="http://www.w3.org/2000/svg"><path fill="currentColor" fill-rule="evenodd" d="M12 13.745a7 7 0 1 0-8-11.49 7 7 0 0 0 8 11.49m-7.88-2.59A3 3 0 0 1 7 9h2c1.363 0 2.514.91 2.88 2.155A4.99 4.99 0 0 1 8 13a4.99 4.99 0 0 1-3.88-1.845M10 6a2 2 0 1 1-4 0 2 2 0 0 1 4 0" clip-rule="evenodd"/></symbol><symbol viewBox="0 0 24 24" id="progress-24" xmlns="http://www.w3.org/2000/svg"><path fill="currentColor" fill-rule="evenodd" d="M18 1a1 1 0 0 0-1 1v20a1 1 0 0 0 1 1h2a1 1 0 0 0 1-1V2a1 1 0 0 0-1-1zm-8 8a1 1 0 0 1 1-1h2a1 1 0 0 1 1 1v13a1 1 0 0 1-1 1h-2a1 1 0 0 1-1-1zm-7 7a1 1 0 0 1 1-1h2a1 1 0 0 1 1 1v6a1 1 0 0 1-1 1H4a1 1 0 0 1-1-1z" clip-rule="evenodd"/></symbol><symbol viewBox="0 0 24 24" id="prohibited-24" xmlns="http://www.w3.org/2000/svg"><path fill="currentColor" fill-rule="evenodd" d="M16.49 5.388A7.94 7.94 0 0 0 12 4c-4.4 0-8 3.6-8 8 0 1.661.513 3.208 1.388 4.49zm2.122 2.122L7.51 18.612A7.94 7.94 0 0 0 12 20c4.4 0 8-3.6 8-8a7.94 7.94 0 0 0-1.388-4.49M1 12C1 5.9 5.9 1 12 1s11 4.9 11 11-4.9 11-11 11S1 18.1 1 12" clip-rule="evenodd"/></symbol><symbol viewBox="0 0 12 12" id="question-12" xmlns="http://www.w3.org/2000/svg"><path fill="currentColor" fill-rule="evenodd" d="M6 12A6 6 0 1 0 6 0a6 6 0 0 0 0 12M4.982 3.96c-.063.095-.11.198-.145.3-.09.261-.31.49-.587.49h-.5c-.276 0-.502-.225-.455-.497a3 3 0 0 1 .434-1.118C4.151 2.495 4.885 2 6 2c1.04 0 1.77.355 2.223.902.427.517.527 1.108.527 1.466 0 .598-.182 1.064-.522 1.417-.268.278-.61.45-.826.558l-.062.031c-.253.13-.37.206-.447.3a.5.5 0 0 0-.094.18c-.066.211-.228.396-.449.396h-.43c-.37 0-.683-.304-.6-.665q.114-.5.412-.861c.298-.365.681-.56.928-.686.292-.149.407-.21.487-.293.035-.036.103-.112.103-.377 0-.12-.04-.337-.184-.51C6.95 3.715 6.678 3.5 6 3.5c-.604 0-.87.236-1.018.46m.143 4.96c0-.37.3-.67.67-.67h.41c.37 0 .67.3.67.67v.41c0 .37-.3.67-.67.67h-.41a.67.67 0 0 1-.67-.67z" clip-rule="evenodd"/></symbol><symbol viewBox="0 0 16 16" id="question-16" xmlns="http://www.w3.org/2000/svg"><path fill="currentColor" fill-rule="evenodd" d="M8 15A7 7 0 1 0 8 1a7 7 0 0 0 0 14M6.812 5.62a1.6 1.6 0 0 0-.194.429c-.077.265-.3.492-.576.492h-.75c-.277 0-.502-.224-.46-.497.061-.41.208-.916.519-1.387C5.843 3.91 6.699 3.333 8 3.333c1.214 0 2.065.414 2.593 1.053.498.602.615 1.293.615 1.71 0 .698-.212 1.242-.609 1.654-.312.324-.711.524-.963.65l-.072.037c-.296.15-.433.239-.522.349a.65.65 0 0 0-.127.275c-.052.215-.22.397-.44.397h-.68c-.37 0-.68-.303-.612-.666.083-.437.252-.806.504-1.115.348-.424.795-.653 1.082-.8.341-.173.476-.244.57-.341.04-.043.12-.13.12-.44a1 1 0 0 0-.215-.595c-.137-.167-.453-.418-1.244-.418-.705 0-1.015.275-1.188.537m.167 5.755a.75.75 0 0 1 .75-.75h.542a.75.75 0 0 1 .75.75v.541a.75.75 0 0 1-.75.75h-.542a.75.75 0 0 1-.75-.75z" clip-rule="evenodd"/></symbol><symbol viewBox="0 0 24 24" id="question-24" xmlns="http://www.w3.org/2000/svg"><path fill="currentColor" fill-rule="evenodd" d="M12 22c5.523 0 10-4.477 10-10S17.523 2 12 2 2 6.477 2 12s4.477 10 10 10M10.303 8.6c-.172.26-.274.559-.33.82-.057.27-.28.496-.556.496h-1.5c-.277 0-.502-.224-.472-.498.068-.616.272-1.437.77-2.193C8.92 6.157 10.142 5.333 12 5.333c1.735 0 2.95.592 3.704 1.504a3.9 3.9 0 0 1 .88 2.443c0 .997-.305 1.774-.871 2.362-.446.463-1.016.75-1.376.93l-.103.052c-.423.215-.618.342-.746.498-.069.085-.167.238-.213.562-.03.219-.204.399-.425.399h-1.43c-.37 0-.676-.301-.63-.668.092-.75.349-1.37.763-1.876.497-.607 1.136-.934 1.546-1.143.487-.248.679-.349.813-.488.058-.06.171-.186.171-.628 0-.2-.067-.562-.306-.85-.196-.238-.647-.597-1.777-.597-1.007 0-1.45.393-1.697.768m.238 8.15a1 1 0 0 1 1-1h.917a1 1 0 0 1 1 1v.916a1 1 0 0 1-1 1h-.917a1 1 0 0 1-1-1z" clip-rule="evenodd"/></symbol><symbol viewBox="0 0 16 16" id="ram-16" xmlns="http://www.w3.org/2000/svg"><path fill="currentColor" fill-rule="evenodd" d="M0 4.75A.75.75 0 0 1 .75 4h14.5a.75.75 0 0 1 .75.75V6h-1.25a.75.75 0 0 0-.75.75v.5c0 .414.336.75.75.75H16v1.25a.75.75 0 0 1-.75.75H.75A.75.75 0 0 1 0 9.25zM6.25 9h-1.5A.75.75 0 0 1 4 8.25v-2.5A.75.75 0 0 1 4.75 5h1.5a.75.75 0 0 1 .75.75v2.5a.75.75 0 0 1-.75.75m5 0h-1.5A.75.75 0 0 1 9 8.25v-2.5A.75.75 0 0 1 9.75 5h1.5a.75.75 0 0 1 .75.75v2.5a.75.75 0 0 1-.75.75M14 11H2v1.25c0 .414.336.75.75.75h10.5a.75.75 0 0 0 .75-.75z" clip-rule="evenodd"/></symbol><symbol viewBox="0 0 16 16" id="refresh-16" xmlns="http://www.w3.org/2000/svg"><path fill="currentColor" fill-rule="evenodd" d="M6.806 4.182A4 4 0 0 1 11.873 7h-.968a.375.375 0 0 0-.265.64l1.83 1.83a.75.75 0 0 0 1.06 0l1.83-1.83a.375.375 0 0 0-.265-.64h-1.179A6 6 0 0 0 4.32 3.262c-.327.254-.324.733-.031 1.026l.353.353c.293.293.765.286 1.107.053a4 4 0 0 1 1.058-.512M2.084 9H.905a.375.375 0 0 1-.265-.64l1.83-1.83a.75.75 0 0 1 1.06 0l1.83 1.83a.375.375 0 0 1-.265.64h-.968a4 4 0 0 0 6.125 2.306c.342-.233.814-.24 1.107.053l.353.353c.293.293.296.772-.031 1.027A6 6 0 0 1 2.084 9" clip-rule="evenodd"/></symbol><symbol viewBox="0 0 12 12" id="repair-12" xmlns="http://www.w3.org/2000/svg"><path fill="currentColor" fill-rule="evenodd" d="M5.647 7.647a4 4 0 0 1-5.58-4.375c.084-.459.639-.566.968-.237l1.73 1.73c.13.13.34.13.47 0l1.53-1.53a.333.333 0 0 0 0-.47l-1.73-1.73c-.33-.33-.222-.884.237-.969Q3.627.001 4 0a4 4 0 0 1 3.646 5.647l3.882 3.881c.26.26.26.683 0 .944l-1.056 1.056a.667.667 0 0 1-.944 0z" clip-rule="evenodd"/></symbol><symbol viewBox="0 0 16 16" id="repair-16" xmlns="http://www.w3.org/2000/svg"><path fill="currentColor" fill-rule="evenodd" d="M6.703 9.703A5 5 0 0 1 .03 4.443c.06-.545.712-.7 1.1-.312L3.47 6.47a.75.75 0 0 0 1.06 0l1.94-1.94a.75.75 0 0 0 0-1.06L4.13 1.13C3.742.742 3.897.09 4.442.03Q4.718 0 5 0a5 5 0 0 1 4.703 6.703l5.767 5.767a.75.75 0 0 1 0 1.06l-1.94 1.94a.75.75 0 0 1-1.06 0z" clip-rule="evenodd"/></symbol><symbol viewBox="0 0 16 16" id="resize-16" xmlns="http://www.w3.org/2000/svg"><path fill="currentColor" fill-rule="evenodd" d="M11 .75v.5c0 .414.336.75.75.75H14v2.25c0 .414.336.75.75.75h.5a.75.75 0 0 0 .75-.75V.75a.75.75 0 0 0-.75-.75h-3.5a.75.75 0 0 0-.75.75M.75 11h.5a.75.75 0 0 1 .75.75V14h2.25a.75.75 0 0 1 .75.75v.5a.75.75 0 0 1-.75.75H.75a.75.75 0 0 1-.75-.75v-3.5A.75.75 0 0 1 .75 11m4-7h6.5a.75.75 0 0 1 .75.75v6.5a.75.75 0 0 1-.75.75h-6.5a.75.75 0 0 1-.75-.75v-6.5A.75.75 0 0 1 4.75 4" clip-rule="evenodd"/></symbol><symbol viewBox="0 0 24 24" id="resize-24" xmlns="http://www.w3.org/2000/svg"><path fill="currentColor" fill-rule="evenodd" d="M19 5v6a1 1 0 0 0 1 1h1a1 1 0 0 0 1-1V3a1 1 0 0 0-1-1h-8a1 1 0 0 0-1 1v1a1 1 0 0 0 1 1zM7 8a1 1 0 0 1 1-1h8a1 1 0 0 1 1 1v8a1 1 0 0 1-1 1H8a1 1 0 0 1-1-1zM5 19v-6a1 1 0 0 0-1-1H3a1 1 0 0 0-1 1v8a1 1 0 0 0 1 1h8a1 1 0 0 0 1-1v-1a1 1 0 0 0-1-1z" clip-rule="evenodd"/></symbol><symbol viewBox="0 0 16 16" id="router-16" xmlns="http://www.w3.org/2000/svg"><path fill="currentColor" fill-rule="evenodd" d="M13.268 3.414a.75.75 0 0 1 0 1.172L9.609 7.513A.375.375 0 0 1 9 7.22V6H3.75A.75.75 0 0 1 3 5.25v-2.5A.75.75 0 0 1 3.75 2H9V.78c0-.314.364-.489.61-.293zm-10.536 8a.75.75 0 0 0 0 1.172l3.659 2.927A.375.375 0 0 0 7 15.22V14h5.25a.75.75 0 0 0 .75-.75v-2.5a.75.75 0 0 0-.75-.75H7V8.78a.375.375 0 0 0-.61-.293z" clip-rule="evenodd"/></symbol><symbol viewBox="0 0 24 24" id="router-24" xmlns="http://www.w3.org/2000/svg"><path fill="currentColor" fill-rule="evenodd" d="M20.933 5.2a1 1 0 0 1 0 1.6L14.8 11.4a.5.5 0 0 1-.8-.4V9H5a1 1 0 0 1-1-1V4a1 1 0 0 1 1-1h9V1a.5.5 0 0 1 .8-.4zm-17.866 12a1 1 0 0 0 0 1.6L9.2 23.4a.5.5 0 0 0 .8-.4v-2h9a1 1 0 0 0 1-1v-4a1 1 0 0 0-1-1h-9v-2a.5.5 0 0 0-.8-.4z" clip-rule="evenodd"/></symbol><symbol viewBox="0 0 24 24" id="safety-24" xmlns="http://www.w3.org/2000/svg"><path fill="currentColor" d="M3 4.72a1 1 0 0 1 .684-.948l8-2.667a1 1 0 0 1 .632 0l8 2.667a1 1 0 0 1 .684.949v8.572a8 8 0 0 1-4.115 6.993l-4.4 2.444a1 1 0 0 1-.97 0l-4.4-2.444A8 8 0 0 1 3 13.293z"/></symbol><symbol viewBox="0 0 16 16" id="search-16" xmlns="http://www.w3.org/2000/svg"><path fill="currentColor" fill-rule="evenodd" d="M11 7a4 4 0 1 1-8 0 4 4 0 0 1 8 0m-.524 4.89a6 6 0 1 1 1.414-1.414l2.287 2.287a.75.75 0 0 1 0 1.06l-.354.354a.75.75 0 0 1-1.06 0z" clip-rule="evenodd"/></symbol><symbol viewBox="0 0 12 12" id="security-12" xmlns="http://www.w3.org/2000/svg"><path fill="currentColor" fill-rule="evenodd" d="M4 5h4V4a2 2 0 1 0-4 0zM2 5h-.333A.667.667 0 0 0 1 5.667v5.666c0 .368.299.667.667.667h8.666a.667.667 0 0 0 .667-.667V5.667A.667.667 0 0 0 10.333 5H10V4a4 4 0 1 0-8 0z" clip-rule="evenodd"/></symbol><symbol viewBox="0 0 16 16" id="security-16" xmlns="http://www.w3.org/2000/svg"><path fill="currentColor" fill-rule="evenodd" d="M4.75 7A.75.75 0 0 1 4 6.25V5a4 4 0 1 1 8 0v1.25a.75.75 0 0 1-.75.75h-.5a.75.75 0 0 1-.75-.75V5a2 2 0 1 0-4 0v1.25a.75.75 0 0 1-.75.75zm-2 1a.75.75 0 0 0-.75.75v5.5c0 .414.336.75.75.75h10.5a.75.75 0 0 0 .75-.75v-5.5a.75.75 0 0 0-.75-.75zM8 12a1 1 0 1 0 0-2 1 1 0 0 0 0 2" clip-rule="evenodd"/></symbol><symbol viewBox="0 0 24 24" id="security-24" xmlns="http://www.w3.org/2000/svg"><path fill="currentColor" fill-rule="evenodd" d="M12 1a6 6 0 0 0-6 6v1.385c0 .34.276.615.615.615h2A.385.385 0 0 0 9 8.615V7a3 3 0 1 1 6 0v1.615c0 .213.172.385.385.385h2c.34 0 .615-.276.615-.615V7a6 6 0 0 0-6-6M4 11a1 1 0 0 0-1 1v10a1 1 0 0 0 1 1h16a1 1 0 0 0 1-1V12a1 1 0 0 0-1-1zm8 6a2 2 0 1 0 0-4 2 2 0 0 0 0 4" clip-rule="evenodd"/></symbol><symbol viewBox="0 0 6 14" id="select-arrows-6" xmlns="http://www.w3.org/2000/svg"><path fill="currentColor" fill-rule="evenodd" d="M3.322.536a.375.375 0 0 0-.644 0L.341 4.432A.374.374 0 0 0 .662 5h4.676a.375.375 0 0 0 .321-.568zm-.644 12.928a.375.375 0 0 0 .644 0l2.337-3.896A.375.375 0 0 0 5.338 9H.662a.375.375 0 0 0-.321.568z" clip-rule="evenodd"/></symbol><symbol viewBox="0 0 16 16" id="servers-16" xmlns="http://www.w3.org/2000/svg"><path fill="currentColor" fill-rule="evenodd" d="M15.25 2a.75.75 0 0 1 .75.75v3.5a.75.75 0 0 1-.75.75H.75A.75.75 0 0 1 0 6.25v-3.5A.75.75 0 0 1 .75 2zM4 4.5a1.5 1.5 0 1 1-3 0 1.5 1.5 0 0 1 3 0M15.25 9a.75.75 0 0 1 .75.75v3.5a.75.75 0 0 1-.75.75H.75a.75.75 0 0 1-.75-.75v-3.5A.75.75 0 0 1 .75 9zM4 11.5a1.5 1.5 0 1 1-3 0 1.5 1.5 0 0 1 3 0" clip-rule="evenodd"/></symbol><symbol viewBox="0 0 24 24" id="servers-24" xmlns="http://www.w3.org/2000/svg"><path fill="currentColor" fill-rule="evenodd" d="M3 2a1 1 0 0 0-1 1v7a1 1 0 0 0 1 1h18a1 1 0 0 0 1-1V3a1 1 0 0 0-1-1zm6 4.5a2.5 2.5 0 1 1-5 0 2.5 2.5 0 0 1 5 0M3 13a1 1 0 0 0-1 1v7a1 1 0 0 0 1 1h18a1 1 0 0 0 1-1v-7a1 1 0 0 0-1-1zm6 4.5a2.5 2.5 0 1 1-5 0 2.5 2.5 0 0 1 5 0" clip-rule="evenodd"/></symbol><symbol viewBox="0 0 16 16" id="settings-16" xmlns="http://www.w3.org/2000/svg"><path fill="currentColor" fill-rule="evenodd" d="M8.372.213a.75.75 0 0 0-.744 0l-6.25 3.571A.75.75 0 0 0 1 4.435v7.13c0 .269.144.517.378.65l6.25 3.572a.75.75 0 0 0 .744 0l6.25-3.571a.75.75 0 0 0 .378-.651v-7.13a.75.75 0 0 0-.378-.65zM8 12a4 4 0 1 0 0-8 4 4 0 0 0 0 8" clip-rule="evenodd"/></symbol><symbol viewBox="0 0 24 24" id="settings-24" xmlns="http://www.w3.org/2000/svg"><path fill="currentColor" fill-rule="evenodd" d="M2 7.091a1 1 0 0 1 .518-.876l9-4.95a1 1 0 0 1 .964 0l9 4.95a1 1 0 0 1 .518.876v9.818a1 1 0 0 1-.518.876l-9 4.95a1 1 0 0 1-.964 0l-9-4.95A1 1 0 0 1 2 16.909zM12 17a5 5 0 1 0 0-10 5 5 0 0 0 0 10" clip-rule="evenodd"/></symbol><symbol viewBox="0 0 16 16" id="show-16" xmlns="http://www.w3.org/2000/svg"><path fill="currentColor" fill-rule="evenodd" d="M.184 7.674C.852 6.563 3.357 3 8 3s7.148 3.563 7.816 4.674a.63.63 0 0 1 0 .652C15.148 9.437 12.643 13 8 13S.852 9.437.184 8.326a.63.63 0 0 1 0-.652M8 11a3 3 0 1 0 0-6 3 3 0 0 0 0 6" clip-rule="evenodd"/></symbol><symbol viewBox="0 0 16 16" id="sign-out-16" xmlns="http://www.w3.org/2000/svg"><path fill="currentColor" fill-rule="evenodd" d="M7.25 2h-4.5a.75.75 0 0 0-.75.75v10.5c0 .414.336.75.75.75h4.5a.75.75 0 0 0 .75-.75v-.5a.75.75 0 0 0-.75-.75H4V4h3.25A.75.75 0 0 0 8 3.25v-.5A.75.75 0 0 0 7.25 2M10 6H6.75a.75.75 0 0 0-.75.75v2.5c0 .414.336.75.75.75H10v1.22c0 .314.364.489.61.293l3.658-2.927a.75.75 0 0 0 0-1.172l-3.659-2.927A.375.375 0 0 0 10 4.78z" clip-rule="evenodd"/></symbol><symbol viewBox="0 0 16 16" id="snapshots-16" xmlns="http://www.w3.org/2000/svg"><path fill="currentColor" fill-rule="evenodd" d="m7.705 1.127-5.9 2.528a.375.375 0 0 0 0 .69l5.9 2.528a.75.75 0 0 0 .59 0l5.9-2.528a.375.375 0 0 0 0-.69l-5.9-2.528a.75.75 0 0 0-.59 0M1 7.505v-.368a.75.75 0 0 1 1.045-.689l5.66 2.425a.75.75 0 0 0 .59 0l5.66-2.425a.75.75 0 0 1 1.045.69v.367a.75.75 0 0 1-.455.69l-6.25 2.678a.75.75 0 0 1-.59 0l-6.25-2.678A.75.75 0 0 1 1 7.505m0 3.632v.368c0 .3.179.572.455.69l6.25 2.678a.75.75 0 0 0 .59 0l6.25-2.678a.75.75 0 0 0 .455-.69v-.368a.75.75 0 0 0-1.045-.689l-5.66 2.425a.75.75 0 0 1-.59 0l-5.66-2.425a.75.75 0 0 0-1.045.69" clip-rule="evenodd"/></symbol><symbol viewBox="0 0 24 24" id="snapshots-24" xmlns="http://www.w3.org/2000/svg"><path fill="currentColor" fill-rule="evenodd" d="M11.486 1.309 2.714 6.57a.5.5 0 0 0 0 .858l8.77 5.262a1 1 0 0 0 1.03 0l8.77-5.262a.5.5 0 0 0 0-.858l-8.77-5.262a1 1 0 0 0-1.03 0m-8.187 9.47 8.187 4.912a1 1 0 0 0 1.028 0l8.187-4.912a.858.858 0 0 1 .883 1.47l-9.07 5.442a1 1 0 0 1-1.028 0l-9.07-5.441a.858.858 0 0 1 .883-1.47m8.187 9.912L3.299 15.78a.858.858 0 0 0-.883 1.47l9.07 5.442a1 1 0 0 0 1.028 0l9.07-5.441a.857.857 0 0 0-.883-1.47l-8.187 4.911a1 1 0 0 1-1.028 0" clip-rule="evenodd"/></symbol><symbol viewBox="0 0 16 16" id="software-update-16" xmlns="http://www.w3.org/2000/svg"><path fill="currentColor" fill-rule="evenodd" d="M8.53 1.53a.75.75 0 0 0-1.06 0L5.28 3.72A.75.75 0 0 0 5.81 5h4.38a.75.75 0 0 0 .53-1.28zM1 7.75A.75.75 0 0 1 1.75 7h12.5a.75.75 0 0 1 .75.75v6.5a.75.75 0 0 1-.75.75H1.75a.75.75 0 0 1-.75-.75zm6.47 1.78a.75.75 0 0 1 1.06 0l2.19 2.19a.75.75 0 0 1-.53 1.28H5.81a.75.75 0 0 1-.53-1.28z" clip-rule="evenodd"/></symbol><symbol viewBox="0 0 24 24" id="software-update-24" xmlns="http://www.w3.org/2000/svg"><path fill="currentColor" fill-rule="evenodd" d="M12.707 1.707a1 1 0 0 0-1.414 0L7.707 5.293C7.077 5.923 7.523 7 8.414 7h7.172c.89 0 1.337-1.077.707-1.707zM2 11a1 1 0 0 1 1-1h18a1 1 0 0 1 1 1v10a1 1 0 0 1-1 1H3a1 1 0 0 1-1-1zm9.293 2.707a1 1 0 0 1 1.414 0l3.586 3.586c.63.63.184 1.707-.707 1.707H8.414c-.89 0-1.337-1.077-.707-1.707z" clip-rule="evenodd"/></symbol><symbol viewBox="0 0 16 16" id="sort-16" xmlns="http://www.w3.org/2000/svg"><path fill="currentColor" fill-rule="evenodd" d="M3.414 2.732a.75.75 0 0 1 1.172 0l2.927 3.659A.375.375 0 0 1 7.22 7H6v5.25a.75.75 0 0 1-.75.75h-2.5a.75.75 0 0 1-.75-.75V7H.78a.375.375 0 0 1-.293-.61zm8 10.536a.75.75 0 0 0 1.172 0l2.926-3.659A.375.375 0 0 0 15.22 9H14V3.75a.75.75 0 0 0-.75-.75h-2.5a.75.75 0 0 0-.75.75V9H8.78a.375.375 0 0 0-.293.61z" clip-rule="evenodd"/></symbol><symbol viewBox="0 0 16 16" id="sparkle-16" xmlns="http://www.w3.org/2000/svg"><path fill="currentColor" d="M10.651 4.795a.38.38 0 0 1 .697 0L12.72 7.93a.75.75 0 0 0 .31.348l2.404 1.394a.38.38 0 0 1 0 .658l-2.404 1.394a.75.75 0 0 0-.31.348l-1.372 3.134a.38.38 0 0 1-.697 0l-1.37-3.134a.75.75 0 0 0-.311-.348L6.566 10.33a.38.38 0 0 1 0-.658L8.97 8.277a.75.75 0 0 0 .31-.348zM3.655.738a.38.38 0 0 1 .69 0L5.35 2.892a.75.75 0 0 0 .321.34l1.716.934a.38.38 0 0 1 0 .667l-1.716.934a.75.75 0 0 0-.321.34L4.345 8.263a.38.38 0 0 1-.69 0L2.65 6.108a.75.75 0 0 0-.32-.34L.612 4.833a.38.38 0 0 1 0-.667l1.715-.934a.75.75 0 0 0 .321-.34z"/></symbol><symbol viewBox="0 0 24 24" id="speaker-24" xmlns="http://www.w3.org/2000/svg"><path fill="currentColor" fill-rule="evenodd" d="M10.723 7a1 1 0 0 0 .515-.143l8.247-4.948A1 1 0 0 1 21 2.766v18.468a1 1 0 0 1-1.515.857l-8.247-4.949a1 1 0 0 0-.515-.142H4a1 1 0 0 1-1-1V8a1 1 0 0 1 1-1z" clip-rule="evenodd"/></symbol><symbol viewBox="0 0 16 16" id="ssd-16" xmlns="http://www.w3.org/2000/svg"><path fill="currentColor" fill-rule="evenodd" d="M.75 4h14.5a.75.75 0 0 1 .75.75v6.5a.75.75 0 0 1-.75.75H3.31a.75.75 0 0 1-.53-.22L.22 9.22A.75.75 0 0 1 0 8.69V4.75A.75.75 0 0 1 .75 4m2.5 4h-1.5A.75.75 0 0 1 1 7.25v-1.5A.75.75 0 0 1 1.75 5h1.5a.75.75 0 0 1 .75.75v1.5a.75.75 0 0 1-.75.75m4.5 3h1.5a.75.75 0 0 0 .75-.75v-4.5A.75.75 0 0 0 9.25 5h-1.5a.75.75 0 0 0-.75.75v4.5c0 .414.336.75.75.75m4 0h1.5a.75.75 0 0 0 .75-.75v-4.5a.75.75 0 0 0-.75-.75h-1.5a.75.75 0 0 0-.75.75v4.5c0 .414.336.75.75.75" clip-rule="evenodd"/></symbol><symbol viewBox="0 0 16 16" id="storage-16" xmlns="http://www.w3.org/2000/svg"><path fill="currentColor" fill-rule="evenodd" d="M11.625 1a.75.75 0 0 1 .6.3l2.625 3.5a.75.75 0 0 1 .15.45v9a.75.75 0 0 1-.75.75H1.75a.75.75 0 0 1-.75-.75V1.75A.75.75 0 0 1 1.75 1h.5a.75.75 0 0 1 .75.75V5h7V1.75a.75.75 0 0 1 .75-.75zM8 12a2 2 0 1 0 0-4 2 2 0 0 0 0 4" clip-rule="evenodd"/></symbol><symbol viewBox="0 0 24 24" id="storage-24" xmlns="http://www.w3.org/2000/svg"><path fill="currentColor" d="M18.3 2.375A1 1 0 0 0 17.52 2H17a1 1 0 0 0-1 1v3.1H5V3a1 1 0 0 0-1-1H3a1 1 0 0 0-1 1v18a1 1 0 0 0 1 1h18a1 1 0 0 0 1-1V7.35a1 1 0 0 0-.22-.624zM12 18c-2.2 0-4-1.8-4-4s1.8-4 4-4 4 1.8 4 4-1.8 4-4 4"/></symbol><symbol viewBox="0 0 16 16" id="submit-16" xmlns="http://www.w3.org/2000/svg"><path fill="currentColor" d="M1.332 2.853a.38.38 0 0 1 .506-.486c2.168.946 8.082 3.518 12.33 5.288a.38.38 0 0 1 .001.701L1.832 13.643a.38.38 0 0 1-.504-.486l1.9-4.885a.75.75 0 0 0 0-.544z"/></symbol><symbol viewBox="0 0 16 16" id="subnet-16" xmlns="http://www.w3.org/2000/svg"><path fill="currentColor" fill-rule="evenodd" d="M.75 0h4.5A.75.75 0 0 1 6 .75V2h4V.75a.75.75 0 0 1 .75-.75h4.5a.75.75 0 0 1 .75.75v4.5a.75.75 0 0 1-.75.75H14v4h1.25a.75.75 0 0 1 .75.75v4.5a.75.75 0 0 1-.75.75h-4.5a.75.75 0 0 1-.75-.75V14H6v1.25a.75.75 0 0 1-.75.75H.75a.75.75 0 0 1-.75-.75v-4.5A.75.75 0 0 1 .75 10H2V6H.75A.75.75 0 0 1 0 5.25V.75A.75.75 0 0 1 .75 0M6 12h4v-1.25a.75.75 0 0 1 .75-.75H12V6h-1.25a.75.75 0 0 1-.75-.75V4H6v1.25a.75.75 0 0 1-.75.75H4v4h1.25a.75.75 0 0 1 .75.75z" clip-rule="evenodd"/></symbol><symbol viewBox="0 0 24 24" id="subnet-24" xmlns="http://www.w3.org/2000/svg"><path fill="currentColor" fill-rule="evenodd" d="M3 2a1 1 0 0 0-1 1v6a1 1 0 0 0 1 1h2v4H3a1 1 0 0 0-1 1v6a1 1 0 0 0 1 1h6a1 1 0 0 0 1-1v-2h4v2a1 1 0 0 0 1 1h6a1 1 0 0 0 1-1v-6a1 1 0 0 0-1-1h-2v-4h2a1 1 0 0 0 1-1V3a1 1 0 0 0-1-1h-6a1 1 0 0 0-1 1v2h-4V3a1 1 0 0 0-1-1zm14 12v-4h-2a1 1 0 0 1-1-1V7h-4v2a1 1 0 0 1-1 1H7v4h2a1 1 0 0 1 1 1v2h4v-2a1 1 0 0 1 1-1z" clip-rule="evenodd"/></symbol><symbol viewBox="0 0 12 12" id="success-12" xmlns="http://www.w3.org/2000/svg"><path fill="currentColor" fill-rule="evenodd" d="M6 12A6 6 0 1 0 6 0a6 6 0 0 0 0 12m3.111-7.002a.667.667 0 0 0-.05-.942l-.123-.112a.667.667 0 0 0-.942.05L5.36 6.924 4 5.632a.667.667 0 0 0-.943.023l-.114.12a.667.667 0 0 0 .023.943l1.979 1.885c.272.26.704.242.955-.037z" clip-rule="evenodd"/></symbol><symbol viewBox="0 0 16 16" id="tags-16" xmlns="http://www.w3.org/2000/svg"><path fill="currentColor" fill-rule="evenodd" d="M15.78 1.78a.75.75 0 0 1 .22.53v3.38a.75.75 0 0 1-.22.53l-9.25 9.25a.75.75 0 0 1-1.06 0L.53 10.53a.75.75 0 0 1 0-1.06L9.78.22a.75.75 0 0 1 .53-.22h3.38a.75.75 0 0 1 .53.22zM12 6a2 2 0 1 0 0-4 2 2 0 0 0 0 4" clip-rule="evenodd"/></symbol><symbol viewBox="0 0 16 16" id="terminal-16" xmlns="http://www.w3.org/2000/svg"><path fill="currentColor" fill-rule="evenodd" d="M.75 1a.75.75 0 0 0-.75.75v12.5c0 .414.336.75.75.75h14.5a.75.75 0 0 0 .75-.75V1.75a.75.75 0 0 0-.75-.75zm2.335 9.457A.75.75 0 0 1 2 9.787v-.323a.75.75 0 0 1 .415-.671L6 7 2.415 5.207A.75.75 0 0 1 2 4.537v-.323a.75.75 0 0 1 1.085-.671l4.5 2.25a.75.75 0 0 1 .415.67v1.073a.75.75 0 0 1-.415.671zM8 11.75a.75.75 0 0 1 .75-.75h4.5a.75.75 0 0 1 .75.75v.5a.75.75 0 0 1-.75.75h-4.5a.75.75 0 0 1-.75-.75z" clip-rule="evenodd"/></symbol><symbol viewBox="0 0 24 24" id="terminal-24" xmlns="http://www.w3.org/2000/svg"><path fill="currentColor" fill-rule="evenodd" d="M2 3a1 1 0 0 0-1 1v16a1 1 0 0 0 1 1h20a1 1 0 0 0 1-1V4a1 1 0 0 0-1-1zm3.44 12.294A1 1 0 0 1 4 14.396v-.138a1 1 0 0 1 .585-.91L9.733 11 4.585 8.651A1 1 0 0 1 4 7.741v-.137a1 1 0 0 1 1.44-.898l6 2.943a1 1 0 0 1 .56.898v.906a1 1 0 0 1-.56.898zM19 16h-6a1 1 0 1 0 0 2h6a1 1 0 1 0 0-2" clip-rule="evenodd"/></symbol><symbol viewBox="0 0 16 16" id="time-16" xmlns="http://www.w3.org/2000/svg"><path fill="currentColor" fill-rule="evenodd" d="M8 15A7 7 0 1 0 8 1a7 7 0 0 0 0 14M7 3.75A.75.75 0 0 1 7.75 3h.5a.75.75 0 0 1 .75.75V7h2.25a.75.75 0 0 1 .75.75v.5a.75.75 0 0 1-.75.75h-3.5A.75.75 0 0 1 7 8.25v-4.5" clip-rule="evenodd"/></symbol><symbol viewBox="0 0 16 16" id="transmit-16" xmlns="http://www.w3.org/2000/svg"><path fill="currentColor" fill-rule="evenodd" d="M13.582 9.332c-.192.322-.164.739.104 1.002l.014.013c.319.313.842.28 1.08-.098A7.96 7.96 0 0 0 16 6c0-1.63-.488-3.147-1.326-4.412-.243-.367-.757-.394-1.071-.085l-.011.01c-.274.268-.297.697-.093 1.02A6.47 6.47 0 0 1 14.5 6a6.47 6.47 0 0 1-.918 3.332m-11.164 0c.192.322.164.739-.104 1.002l-.014.013c-.319.313-.842.28-1.08-.098A7.96 7.96 0 0 1 0 6c0-1.63.488-3.147 1.326-4.412.243-.367.757-.394 1.071-.085l.011.01c.274.268.297.697.093 1.02A6.47 6.47 0 0 0 1.5 6a6.47 6.47 0 0 0 .918 3.332m1.011-1.303c.19.427.743.482 1.076.155l.042-.042c.244-.239.287-.61.169-.93A3.5 3.5 0 0 1 4.5 6c0-.48.096-.936.27-1.352.138-.328.103-.718-.151-.967l-.034-.033c-.325-.32-.864-.277-1.066.132A5 5 0 0 0 3 6c0 .723.153 1.41.429 2.03m8.066.155c.334.327.886.272 1.076-.155C12.847 7.41 13 6.723 13 6a5 5 0 0 0-.518-2.22c-.203-.409-.741-.451-1.067-.132l-.034.033c-.254.249-.29.64-.152.967.175.416.271.873.271 1.352 0 .426-.076.835-.216 1.213-.118.32-.075.69.169.93zM10 6a2 2 0 0 1-1.406 1.91.8.8 0 0 1 .118.225l1.959 5.878a.75.75 0 0 1-.712.987H6.041a.75.75 0 0 1-.712-.987l1.96-5.878a.8.8 0 0 1 .117-.225A2 2 0 1 1 10 6" clip-rule="evenodd"/></symbol><symbol viewBox="0 0 24 24" id="transmit-24" xmlns="http://www.w3.org/2000/svg"><path fill="currentColor" fill-rule="evenodd" d="M18.363 13.84c-.336.439-.336 1.07.059 1.456.394.387 1.03.384 1.377-.046A9.95 9.95 0 0 0 22 8.995c0-2.366-.823-4.54-2.199-6.252-.345-.43-.983-.434-1.377-.047s-.395 1.017-.06 1.456A7.95 7.95 0 0 1 20 8.995c0 1.821-.61 3.5-1.637 4.845m-12.726 0c.336.439.336 1.07-.059 1.456-.394.387-1.03.384-1.377-.046A9.95 9.95 0 0 1 2 8.995c0-2.366.823-4.54 2.199-6.252.346-.43.983-.434 1.377-.047s.394 1.017.06 1.456A7.95 7.95 0 0 0 4 8.995c0 1.821.61 3.5 1.637 4.845m1.444-1.412c.316.452.957.454 1.351.068.395-.387.387-1.017.108-1.495A4 4 0 0 1 8 8.996c0-.73.196-1.416.54-2.006.278-.477.285-1.107-.11-1.494-.393-.386-1.034-.384-1.35.068A5.97 5.97 0 0 0 6 8.995c0 1.277.4 2.46 1.08 3.434m8.487.068c.394.386 1.035.384 1.351-.068A5.97 5.97 0 0 0 18 8.996c0-1.277-.4-2.46-1.08-3.432-.316-.452-.957-.454-1.35-.068-.395.387-.388 1.017-.11 1.494.343.59.54 1.275.54 2.006s-.197 1.417-.54 2.007c-.279.477-.287 1.107.108 1.494M14 9a2 2 0 0 1-1.412 1.912l3.014 9.794A1 1 0 0 1 14.646 22H9.354a1 1 0 0 1-.956-1.294l3.014-9.794A2 2 0 1 1 14 9" clip-rule="evenodd"/></symbol><symbol viewBox="0 0 12 12" id="unauthorized-12" xmlns="http://www.w3.org/2000/svg"><path fill="currentColor" fill-rule="evenodd" d="M6 12A6 6 0 1 0 6 0a6 6 0 0 0 0 12M4.472 8.528a.667.667 0 0 1-.944 0l-.056-.056a.667.667 0 0 1 0-.944l4.056-4.056c.26-.26.683-.26.944 0l.056.056c.26.26.26.683 0 .944z" clip-rule="evenodd"/></symbol><symbol viewBox="0 0 12 12" id="warning-12" xmlns="http://www.w3.org/2000/svg"><path fill="currentColor" fill-rule="evenodd" d="m6.597 1.193 4.92 9.842a.667.667 0 0 1-.596.965H1.079a.667.667 0 0 1-.596-.965l4.92-9.842a.667.667 0 0 1 1.194 0M6.083 4c.368 0 .667.299.667.667v2.666A.667.667 0 0 1 6.083 8h-.166a.667.667 0 0 1-.667-.667V4.667c0-.368.299-.667.667-.667zm0 5c.368 0 .667.299.667.667v.166a.667.667 0 0 1-.667.667h-.166a.667.667 0 0 1-.667-.667v-.166c0-.368.299-.667.667-.667z" clip-rule="evenodd"/></symbol><symbol viewBox="0 0 16 16" id="webhooks-16" xmlns="http://www.w3.org/2000/svg"><path fill="currentColor" fill-rule="evenodd" d="M8.25 4h-.5A.75.75 0 0 1 7 3.25V.75A.75.75 0 0 1 7.75 0h.5A.75.75 0 0 1 9 .75v2.5a.75.75 0 0 1-.75.75M4.995 5.348l.353-.353a.75.75 0 0 0 0-1.061l-1.06-1.06a.75.75 0 0 0-1.061 0l-.354.353a.75.75 0 0 0 0 1.06l1.061 1.061a.75.75 0 0 0 1.06 0m5.657-.353.353.353a.75.75 0 0 0 1.06 0l1.062-1.06a.75.75 0 0 0 0-1.061l-.354-.354a.75.75 0 0 0-1.06 0l-1.061 1.061a.75.75 0 0 0 0 1.06M10 8a2 2 0 1 1-4 0 2 2 0 0 1 4 0m-1.75 8a.75.75 0 0 0 .75-.75v-2.5a.75.75 0 0 0-.75-.75h-.5a.75.75 0 0 0-.75.75v2.5c0 .414.336.75.75.75zm-5.023-2.874-.354-.353a.75.75 0 0 1 0-1.06l1.061-1.061a.75.75 0 0 1 1.06 0l.354.353a.75.75 0 0 1 0 1.06l-1.06 1.061a.75.75 0 0 1-1.061 0m9.9-.353-.354.354a.75.75 0 0 1-1.06 0l-1.061-1.061a.75.75 0 0 1 0-1.06l.353-.354a.75.75 0 0 1 1.06 0l1.061 1.06a.75.75 0 0 1 0 1.061M0 7.75v.5c0 .414.336.75.75.75h2.5A.75.75 0 0 0 4 8.25v-.5A.75.75 0 0 0 3.25 7H.75a.75.75 0 0 0-.75.75m12 .5v-.5a.75.75 0 0 1 .75-.75h2.5a.75.75 0 0 1 .75.75v.5a.75.75 0 0 1-.75.75h-2.5a.75.75 0 0 1-.75-.75" clip-rule="evenodd"/></symbol><symbol viewBox="0 0 24 24" id="webhooks-24" xmlns="http://www.w3.org/2000/svg"><path fill="currentColor" fill-rule="evenodd" d="M12.75 0h-1.5a.75.75 0 0 0-.75.75v4.5c0 .414.336.75.75.75h1.5a.75.75 0 0 0 .75-.75V.75a.75.75 0 0 0-.75-.75M10.5 18.75a.75.75 0 0 1 .75-.75h1.5a.75.75 0 0 1 .75.75v4.5a.75.75 0 0 1-.75.75h-1.5a.75.75 0 0 1-.75-.75zm5.212-1.977 1.061-1.06a.75.75 0 0 1 1.06 0l2.476 2.474a.75.75 0 0 1 0 1.06l-1.061 1.061a.75.75 0 0 1-1.06 0l-2.476-2.474a.75.75 0 0 1 0-1.061M4.752 3.691l-1.06 1.061a.75.75 0 0 0 0 1.06l2.474 2.476a.75.75 0 0 0 1.061 0l1.06-1.061a.75.75 0 0 0 0-1.06L5.814 3.69a.75.75 0 0 0-1.06 0m12.021 4.597-1.06-1.061a.75.75 0 0 1 0-1.06l2.474-2.476a.75.75 0 0 1 1.06 0l1.061 1.061a.75.75 0 0 1 0 1.06l-2.474 2.476a.75.75 0 0 1-1.061 0M3.692 19.248l1.06 1.06a.75.75 0 0 0 1.06 0l2.476-2.474a.75.75 0 0 0 0-1.061l-1.06-1.06a.75.75 0 0 0-1.062 0l-2.474 2.474a.75.75 0 0 0 0 1.06M6 11.25v1.5a.75.75 0 0 1-.75.75H.75a.75.75 0 0 1-.75-.75v-1.5a.75.75 0 0 1 .75-.75h4.5a.75.75 0 0 1 .75.75m17.25 2.25a.75.75 0 0 0 .75-.75v-1.5a.75.75 0 0 0-.75-.75h-4.5a.75.75 0 0 0-.75.75v1.5c0 .414.336.75.75.75zM12 15a3 3 0 1 0 0-6 3 3 0 0 0 0 6" clip-rule="evenodd"/></symbol><symbol viewBox="0 0 24 24" id="wireless-24" xmlns="http://www.w3.org/2000/svg"><path fill="currentColor" d="M11.321 20.227a1 1 0 0 0 1.457-.004L22.476 9.86a.956.956 0 0 0 .102-1.2C20.164 5.2 16.338 3 12.052 3S3.849 5.2 1.425 8.657a.954.954 0 0 0 .104 1.203z"/></symbol></svg>