<svg xmlns="http://www.w3.org/2000/svg" width="24" height="24" viewBox="0 0 24 24"><path fill="currentColor" d="M4 15a1 1 0 0 1 1 1v3h3a1 1 0 0 1 1 1v1a1 1 0 0 1-1 1H3l-.103-.005A1 1 0 0 1 2 21v-5a1 1 0 0 1 1-1zm17 0a1 1 0 0 1 1 1v5a1 1 0 0 1-1 1h-5a1 1 0 0 1-1-1v-1a1 1 0 0 1 1-1h3v-3a1 1 0 0 1 1-1zm-8.5-9a1 1 0 0 1 1 1v2.401l2.08-1.2a1 1 0 0 1 1.366.366l.5.866a1 1 0 0 1-.366 1.366L15 11.999l2.081 1.202a1 1 0 0 1 .366 1.366l-.5.866a1 1 0 0 1-1.366.366l-2.08-1.201V17a1 1 0 0 1-1 1h-1a1 1 0 0 1-1-1v-2.402l-2.08 1.2a1 1 0 0 1-1.366-.365l-.5-.866a1 1 0 0 1 .366-1.366L9 12l-2.08-1.2a1 1 0 0 1-.366-1.366l.5-.866a1 1 0 0 1 1.366-.366l2.08 1.2V7a1 1 0 0 1 1-1zM8 2a1 1 0 0 1 1 1v1a1 1 0 0 1-1 1H5v3a1 1 0 0 1-1 1H3a1 1 0 0 1-1-1V3a1 1 0 0 1 1-1zm13 0a1 1 0 0 1 1 1v5a1 1 0 0 1-1 1h-1a1 1 0 0 1-1-1V5h-3a1 1 0 0 1-1-1V3a1 1 0 0 1 1-1z"/></svg>