<svg xmlns="http://www.w3.org/2000/svg" width="24" height="24" viewBox="0 0 24 24"><path fill="currentColor" fill-rule="evenodd" d="M24 14.75v6.5a.75.75 0 0 1-.75.75h-6.5a.75.75 0 0 1-.75-.75v-6.5a.75.75 0 0 1 .75-.75h6.5a.75.75 0 0 1 .75.75M7.25 10A.75.75 0 0 0 8 9.25v-6.5A.75.75 0 0 0 7.25 2H.75a.75.75 0 0 0-.75.75v6.5c0 .414.336.75.75.75zm0 12a.75.75 0 0 0 .75-.75v-6.5a.75.75 0 0 0-.75-.75H.75a.75.75 0 0 0-.75.75v6.5c0 .414.336.75.75.75zM24 9.25v-6.5a.75.75 0 0 0-.75-.75h-6.5a.75.75 0 0 0-.75.75v6.5c0 .414.336.75.75.75h6.5a.75.75 0 0 0 .75-.75M12.25 6h-.5a.75.75 0 0 1-.75-.75V.75a.75.75 0 0 1 .75-.75h.5a.75.75 0 0 1 .75.75v4.5a.75.75 0 0 1-.75.75m-.5 9h.5a.75.75 0 0 0 .75-.75v-4.5a.75.75 0 0 0-.75-.75h-.5a.75.75 0 0 0-.75.75v4.5c0 .414.336.75.75.75m.5 9h-.5a.75.75 0 0 1-.75-.75v-4.5a.75.75 0 0 1 .75-.75h.5a.75.75 0 0 1 .75.75v4.5a.75.75 0 0 1-.75.75" clip-rule="evenodd"/></svg>