<svg xmlns="http://www.w3.org/2000/svg" width="24" height="24" viewBox="0 0 24 24"><path fill="currentColor" fill-rule="evenodd" d="M14.586 1a1 1 0 0 1 .707.293l.414.414a1 1 0 0 0 .707.293H20a1 1 0 0 1 1 1v1a1 1 0 0 1-1 1H4a1 1 0 0 1-1-1V3a1 1 0 0 1 1-1h3.586a1 1 0 0 0 .707-.293l.414-.414A1 1 0 0 1 9.414 1zM6 7a1 1 0 0 0-1 1v14a1 1 0 0 0 1 1h12a1 1 0 0 0 1-1V8a1 1 0 0 0-1-1zm4 3a1 1 0 0 1 1 1v8a1 1 0 0 1-1 1H9a1 1 0 0 1-1-1v-8a1 1 0 0 1 1-1zm4 0a1 1 0 0 0-1 1v8a1 1 0 0 0 1 1h1a1 1 0 0 0 1-1v-8a1 1 0 0 0-1-1z" clip-rule="evenodd"/></svg>