<svg xmlns="http://www.w3.org/2000/svg" width="16" height="16" viewBox="0 0 16 16"><path fill="currentColor" fill-rule="evenodd" d="M9.69 0a.75.75 0 0 1 .53.22l.56.56c.141.141.332.22.53.22h1.94a.75.75 0 0 1 .75.75v.5a.75.75 0 0 1-.75.75H2.75A.75.75 0 0 1 2 2.25v-.5A.75.75 0 0 1 2.75 1h1.94a.75.75 0 0 0 .53-.22l.56-.56A.75.75 0 0 1 6.31 0zM3.75 5a.75.75 0 0 0-.75.75v9.5c0 .414.336.75.75.75h8.5a.75.75 0 0 0 .75-.75v-9.5a.75.75 0 0 0-.75-.75zM6.5 7a.5.5 0 0 1 .5.5v6a.5.5 0 0 1-.5.5h-1a.5.5 0 0 1-.5-.5v-6a.5.5 0 0 1 .5-.5zm3 0a.5.5 0 0 0-.5.5v6a.5.5 0 0 0 .5.5h1a.5.5 0 0 0 .5-.5v-6a.5.5 0 0 0-.5-.5z" clip-rule="evenodd"/></svg>