<svg xmlns="http://www.w3.org/2000/svg" width="24" height="24" viewBox="0 0 24 24"><path fill="currentColor" fill-rule="evenodd" d="M12 22c5.523 0 10-4.477 10-10S17.523 2 12 2 2 6.477 2 12s4.477 10 10 10M7.447 9.613a.75.75 0 0 1 0-1.06l.884-.884a.75.75 0 0 1 1.06 0l2.387 2.387 2.387-2.387a.75.75 0 0 1 1.06 0l.884.884a.75.75 0 0 1 0 1.06L13.723 12l2.386 2.387a.75.75 0 0 1 0 1.06l-.884.884a.75.75 0 0 1-1.06 0l-2.387-2.386-2.386 2.386a.75.75 0 0 1-1.061 0l-.884-.884a.75.75 0 0 1 0-1.06L9.834 12z" clip-rule="evenodd"/></svg>