<svg xmlns="http://www.w3.org/2000/svg" width="12" height="12" viewBox="0 0 12 12"><path fill="currentColor" fill-rule="evenodd" d="M11.539 1.385 1.385 11.539a.653.653 0 1 1-.923-.924L2.298 8.78C1.117 7.92.392 6.835.086 6.31a.61.61 0 0 1 0-.622C.635 4.749 2.534 2 6 2c.966 0 1.81.213 2.536.54l2.08-2.078a.653.653 0 0 1 .923.923M6.867 4.21 4.183 6.894A2 2 0 0 1 6.866 4.21m1.099 1.624L10.19 3.61a8.5 8.5 0 0 1 1.723 2.08.61.61 0 0 1 0 .622C11.366 7.251 9.467 10 6 10a6.1 6.1 0 0 1-1.903-.297l1.71-1.71Q5.889 8 5.973 8a2 2 0 0 0 1.993-2.166" clip-rule="evenodd"/></svg>