<svg xmlns="http://www.w3.org/2000/svg" width="12" height="12" viewBox="0 0 12 12"><circle cx="6" cy="6" r="5.25" stroke="#1C2225" stroke-width="1.5"/><path fill="currentColor" d="M10.5 5.999a4.5 4.5 0 0 0-.464-1.99l-.14-.259a4.5 4.5 0 0 0-1.395-1.491l-.251-.156a4.5 4.5 0 0 0-1.585-.554C6.3 1.495 6 1.201 6 .833V.667c0-.368.3-.67.666-.63A6 6 0 0 1 9 .804l.334.208a6 6 0 0 1 1.862 1.987l.186.348A6 6 0 0 1 12 5.999l-.013.394a6 6 0 0 1-.49 2.011c-.147.338-.558.446-.877.262l-.073-.042-.072-.042c-.319-.184-.423-.59-.288-.933.17-.432.273-.889.303-1.354z"/></svg>