<svg xmlns="http://www.w3.org/2000/svg" width="12" height="12" viewBox="0 0 12 12"><path fill="currentColor" d="M6.02 2H2v8h8V5.98l.01.01.99.99v3.353l-.014.135a.67.67 0 0 1-.518.518l-.135.014H1.667l-.135-.014a.67.67 0 0 1-.518-.518L1 10.333V1.667c0-.322.228-.591.532-.653L1.667 1H5.02zm4.448-.986q.06.012.117.036l.036.018a1 1 0 0 1 .071.038l.04.03a.7.7 0 0 1 .136.137q.014.017.026.036.024.037.043.079l.012.028q.016.041.028.085l.01.04q.012.06.013.126V5l-1-1v-.033a.7.7 0 0 1-.139-.106L8.14 2.14A.7.7 0 0 1 8.033 2H8L7 1h3.333z"/></svg>