<svg xmlns="http://www.w3.org/2000/svg" width="16" height="16" viewBox="0 0 16 16"><path fill="currentColor" fill-rule="evenodd" d="M7 1.75A.75.75 0 0 0 6.25 1h-4.5a.75.75 0 0 0-.75.75v6.5c0 .414.336.75.75.75h4.5A.75.75 0 0 0 7 8.25zm8 0a.75.75 0 0 0-.75-.75h-4.5a.75.75 0 0 0-.75.75v2.5c0 .414.336.75.75.75h4.5a.75.75 0 0 0 .75-.75zm-14 10a.75.75 0 0 1 .75-.75h4.5a.75.75 0 0 1 .75.75v2.5a.75.75 0 0 1-.75.75h-4.5a.75.75 0 0 1-.75-.75zm14-4a.75.75 0 0 0-.75-.75h-4.5a.75.75 0 0 0-.75.75v6.5c0 .414.336.75.75.75h4.5a.75.75 0 0 0 .75-.75z" clip-rule="evenodd"/></svg>