<svg xmlns="http://www.w3.org/2000/svg" width="16" height="16" viewBox="0 0 16 16"><path fill="currentColor" fill-rule="evenodd" d="M8 15A7 7 0 1 0 8 1a7 7 0 0 0 0 14M6.812 5.62a1.6 1.6 0 0 0-.194.429c-.077.265-.3.492-.576.492h-.75c-.277 0-.502-.224-.46-.497.061-.41.208-.916.519-1.387C5.843 3.91 6.699 3.333 8 3.333c1.214 0 2.065.414 2.593 1.053.498.602.615 1.293.615 1.71 0 .698-.212 1.242-.609 1.654-.312.324-.711.524-.963.65l-.072.037c-.296.15-.433.239-.522.349a.65.65 0 0 0-.127.275c-.052.215-.22.397-.44.397h-.68c-.37 0-.68-.303-.612-.666.083-.437.252-.806.504-1.115.348-.424.795-.653 1.082-.8.341-.173.476-.244.57-.341.04-.043.12-.13.12-.44a1 1 0 0 0-.215-.595c-.137-.167-.453-.418-1.244-.418-.705 0-1.015.275-1.188.537m.167 5.755a.75.75 0 0 1 .75-.75h.542a.75.75 0 0 1 .75.75v.541a.75.75 0 0 1-.75.75h-.542a.75.75 0 0 1-.75-.75z" clip-rule="evenodd"/></svg>