<svg xmlns="http://www.w3.org/2000/svg" width="24" height="24" viewBox="0 0 24 24"><path fill="currentColor" fill-rule="evenodd" d="M12 22c5.523 0 10-4.477 10-10S17.523 2 12 2 2 6.477 2 12s4.477 10 10 10M10.303 8.6c-.172.26-.274.559-.33.82-.057.27-.28.496-.556.496h-1.5c-.277 0-.502-.224-.472-.498.068-.616.272-1.437.77-2.193C8.92 6.157 10.142 5.333 12 5.333c1.735 0 2.95.592 3.704 1.504a3.9 3.9 0 0 1 .88 2.443c0 .997-.305 1.774-.871 2.362-.446.463-1.016.75-1.376.93l-.103.052c-.423.215-.618.342-.746.498-.069.085-.167.238-.213.562-.03.219-.204.399-.425.399h-1.43c-.37 0-.676-.301-.63-.668.092-.75.349-1.37.763-1.876.497-.607 1.136-.934 1.546-1.143.487-.248.679-.349.813-.488.058-.06.171-.186.171-.628 0-.2-.067-.562-.306-.85-.196-.238-.647-.597-1.777-.597-1.007 0-1.45.393-1.697.768m.238 8.15a1 1 0 0 1 1-1h.917a1 1 0 0 1 1 1v.916a1 1 0 0 1-1 1h-.917a1 1 0 0 1-1-1z" clip-rule="evenodd"/></svg>