<svg xmlns="http://www.w3.org/2000/svg" width="16" height="16" viewBox="0 0 16 16"><path fill="currentColor" fill-rule="evenodd" d="M6.806 4.182A4 4 0 0 1 11.873 7h-.968a.375.375 0 0 0-.265.64l1.83 1.83a.75.75 0 0 0 1.06 0l1.83-1.83a.375.375 0 0 0-.265-.64h-1.179A6 6 0 0 0 4.32 3.262c-.327.254-.324.733-.031 1.026l.353.353c.293.293.765.286 1.107.053a4 4 0 0 1 1.058-.512M2.084 9H.905a.375.375 0 0 1-.265-.64l1.83-1.83a.75.75 0 0 1 1.06 0l1.83 1.83a.375.375 0 0 1-.265.64h-.968a4 4 0 0 0 6.125 2.306c.342-.233.814-.24 1.107.053l.353.353c.293.293.296.772-.031 1.027A6 6 0 0 1 2.084 9" clip-rule="evenodd"/></svg>