<svg xmlns="http://www.w3.org/2000/svg" width="16" height="16" viewBox="0 0 16 16"><g fill="currentColor"><path fill-rule="evenodd" d="M7.25 2h-4.5a.75.75 0 0 0-.75.75v10.5c0 .414.336.75.75.75h4.5a.75.75 0 0 0 .75-.75v-.5a.75.75 0 0 0-.75-.75H4V4h3.25A.75.75 0 0 0 8 3.25v-.5A.75.75 0 0 0 7.25 2M13 7.75v.5a.75.75 0 0 1-.75.75h-4.5A.75.75 0 0 1 7 8.25v-.5A.75.75 0 0 1 7.75 7h4.5a.75.75 0 0 1 .75.75" clip-rule="evenodd"/><rect width="4" height="5" rx=".75" transform="matrix(0 -1 -1 0 11 10)"/><path d="M14.268 8.586a.75.75 0 0 0 0-1.172l-3.659-2.927A.375.375 0 0 0 10 4.78v6.44c0 .314.364.489.61.293z"/></g></svg>