<svg xmlns="http://www.w3.org/2000/svg" width="16" height="16" viewBox="0 0 16 16"><path fill="currentColor" fill-rule="evenodd" d="m7.705 1.127-5.9 2.528a.375.375 0 0 0 0 .69l5.9 2.528a.75.75 0 0 0 .59 0l5.9-2.528a.375.375 0 0 0 0-.69l-5.9-2.528a.75.75 0 0 0-.59 0M1 7.505v-.368a.75.75 0 0 1 1.045-.689l5.66 2.425a.75.75 0 0 0 .59 0l5.66-2.425a.75.75 0 0 1 1.045.69v.367a.75.75 0 0 1-.455.69l-6.25 2.678a.75.75 0 0 1-.59 0l-6.25-2.678A.75.75 0 0 1 1 7.505m0 3.632v.368c0 .3.179.572.455.69l6.25 2.678a.75.75 0 0 0 .59 0l6.25-2.678a.75.75 0 0 0 .455-.69v-.368a.75.75 0 0 0-1.045-.689l-5.66 2.425a.75.75 0 0 1-.59 0l-5.66-2.425a.75.75 0 0 0-1.045.69" clip-rule="evenodd"/></svg>