<svg xmlns="http://www.w3.org/2000/svg" width="16" height="16" viewBox="0 0 16 16"><g fill="currentColor"><path d="m9.28 7.929 1.372-3.134a.38.38 0 0 1 .696 0L12.72 7.93a.75.75 0 0 0 .31.348l2.404 1.394a.38.38 0 0 1 0 .658l-2.404 1.394a.75.75 0 0 0-.31.348l-1.372 3.134a.38.38 0 0 1-.696 0L9.28 12.07a.75.75 0 0 0-.31-.348l-2.404-1.394a.38.38 0 0 1 0-.658L8.97 8.277a.75.75 0 0 0 .31-.348M2.65 2.892 3.656.737a.38.38 0 0 1 .688 0L5.35 2.892a.75.75 0 0 0 .321.341l1.715.933a.38.38 0 0 1 0 .668l-1.715.933a.75.75 0 0 0-.32.341L4.343 8.263a.38.38 0 0 1-.688 0L2.65 6.108a.75.75 0 0 0-.321-.341L.614 4.834a.38.38 0 0 1 0-.668l1.715-.933a.75.75 0 0 0 .32-.341"/></g></svg>