<svg xmlns="http://www.w3.org/2000/svg" width="16" height="16" viewBox="0 0 16 16"><path fill="currentColor" fill-rule="evenodd" d="M.75 4h14.5a.75.75 0 0 1 .75.75v6.5a.75.75 0 0 1-.75.75H3.31a.75.75 0 0 1-.53-.22L.22 9.22A.75.75 0 0 1 0 8.69V4.75A.75.75 0 0 1 .75 4m2.5 4h-1.5A.75.75 0 0 1 1 7.25v-1.5A.75.75 0 0 1 1.75 5h1.5a.75.75 0 0 1 .75.75v1.5a.75.75 0 0 1-.75.75m4.5 3h1.5a.75.75 0 0 0 .75-.75v-4.5A.75.75 0 0 0 9.25 5h-1.5a.75.75 0 0 0-.75.75v4.5c0 .414.336.75.75.75m4 0h1.5a.75.75 0 0 0 .75-.75v-4.5a.75.75 0 0 0-.75-.75h-1.5a.75.75 0 0 0-.75.75v4.5c0 .414.336.75.75.75" clip-rule="evenodd"/></svg>