<svg xmlns="http://www.w3.org/2000/svg" width="16" height="16" viewBox="0 0 16 16"><path fill="currentColor" fill-rule="evenodd" d="M.75 0h4.5A.75.75 0 0 1 6 .75V2h4V.75a.75.75 0 0 1 .75-.75h4.5a.75.75 0 0 1 .75.75v4.5a.75.75 0 0 1-.75.75H14v4h1.25a.75.75 0 0 1 .75.75v4.5a.75.75 0 0 1-.75.75h-4.5a.75.75 0 0 1-.75-.75V14H6v1.25a.75.75 0 0 1-.75.75H.75a.75.75 0 0 1-.75-.75v-4.5A.75.75 0 0 1 .75 10H2V6H.75A.75.75 0 0 1 0 5.25V.75A.75.75 0 0 1 .75 0M6 12h4v-1.25a.75.75 0 0 1 .75-.75H12V6h-1.25a.75.75 0 0 1-.75-.75V4H6v1.25a.75.75 0 0 1-.75.75H4v4h1.25a.75.75 0 0 1 .75.75z" clip-rule="evenodd"/></svg>