<svg xmlns="http://www.w3.org/2000/svg" width="12" height="12" viewBox="0 0 12 12"><path fill="currentColor" fill-rule="evenodd" d="M6.833 10.5c.368 0 .667.299.667.667v.166a.667.667 0 0 1-.667.667H5.167a.667.667 0 0 1-.667-.667v-.166c0-.368.299-.667.667-.667zM.776 7.284a.667.667 0 0 1 .91.244l.834 1.444a.67.67 0 0 1-.244.91l-.145.084a.667.667 0 0 1-.911-.244L.387 8.278a.67.67 0 0 1 .244-.91zm9.538.244a.667.667 0 0 1 .91-.244l.144.083a.667.667 0 0 1 .245.911l-.833 1.444a.667.667 0 0 1-.912.244l-.143-.083a.667.667 0 0 1-.244-.911zM3.5 3.5a3.536 3.536 0 1 1 5 5 3.536 3.536 0 0 1-5-5M1.22 2.278a.667.667 0 0 1 .911-.244l.145.083a.67.67 0 0 1 .244.911l-.833 1.444a.667.667 0 0 1-.911.244L.63 4.633a.67.67 0 0 1-.244-.911zm8.648-.244a.667.667 0 0 1 .912.244l.833 1.444a.667.667 0 0 1-.245.91l-.143.084a.667.667 0 0 1-.911-.244L9.48 3.028a.667.667 0 0 1 .244-.91zM6.833 0c.368 0 .667.299.667.667v.166a.667.667 0 0 1-.667.667H5.167A.667.667 0 0 1 4.5.833V.667C4.5.299 4.8 0 5.167 0z" clip-rule="evenodd"/></svg>