<svg xmlns="http://www.w3.org/2000/svg" width="12" height="12" viewBox="0 0 12 12"><path fill="currentColor" fill-rule="evenodd" d="m6.597 1.193 4.92 9.842a.667.667 0 0 1-.596.965H1.079a.667.667 0 0 1-.596-.965l4.92-9.842a.667.667 0 0 1 1.194 0M6.083 4c.368 0 .667.299.667.667v2.666A.667.667 0 0 1 6.083 8h-.166a.667.667 0 0 1-.667-.667V4.667c0-.368.299-.667.667-.667zm0 5c.368 0 .667.299.667.667v.166a.667.667 0 0 1-.667.667h-.166a.667.667 0 0 1-.667-.667v-.166c0-.368.299-.667.667-.667z" clip-rule="evenodd"/></svg>