<svg xmlns="http://www.w3.org/2000/svg" width="16" height="16" viewBox="0 0 16 16"><path fill="currentColor" fill-rule="evenodd" d="M8.25 4h-.5A.75.75 0 0 1 7 3.25V.75A.75.75 0 0 1 7.75 0h.5A.75.75 0 0 1 9 .75v2.5a.75.75 0 0 1-.75.75M4.995 5.348l.353-.353a.75.75 0 0 0 0-1.061l-1.06-1.06a.75.75 0 0 0-1.061 0l-.354.353a.75.75 0 0 0 0 1.06l1.061 1.061a.75.75 0 0 0 1.06 0m5.657-.353.353.353a.75.75 0 0 0 1.06 0l1.062-1.06a.75.75 0 0 0 0-1.061l-.354-.354a.75.75 0 0 0-1.06 0l-1.061 1.061a.75.75 0 0 0 0 1.06M10 8a2 2 0 1 1-4 0 2 2 0 0 1 4 0m-1.75 8a.75.75 0 0 0 .75-.75v-2.5a.75.75 0 0 0-.75-.75h-.5a.75.75 0 0 0-.75.75v2.5c0 .414.336.75.75.75zm-5.023-2.874-.354-.353a.75.75 0 0 1 0-1.06l1.061-1.061a.75.75 0 0 1 1.06 0l.354.353a.75.75 0 0 1 0 1.06l-1.06 1.061a.75.75 0 0 1-1.061 0m9.9-.353-.354.354a.75.75 0 0 1-1.06 0l-1.061-1.061a.75.75 0 0 1 0-1.06l.353-.354a.75.75 0 0 1 1.06 0l1.061 1.06a.75.75 0 0 1 0 1.061M0 7.75v.5c0 .414.336.75.75.75h2.5A.75.75 0 0 0 4 8.25v-.5A.75.75 0 0 0 3.25 7H.75a.75.75 0 0 0-.75.75m12 .5v-.5a.75.75 0 0 1 .75-.75h2.5a.75.75 0 0 1 .75.75v.5a.75.75 0 0 1-.75.75h-2.5a.75.75 0 0 1-.75-.75" clip-rule="evenodd"/></svg>